<svg width="40" height="45" viewBox="0 0 40 45" fill="none" xmlns="http://www.w3.org/2000/svg">
<g clip-path="url(#clip0)">
<path d="M20 40.5882C31.0457 40.5882 40 31.5022 40 20.2941C40 9.08599 31.0457 0 20 0C8.9543 0 0 9.08599 0 20.2941C0 31.5022 8.9543 40.5882 20 40.5882Z" fill="#355197"/>
<g filter="url(#filter0_d)">
<path d="M33.1008 23.6559C32.926 23.5293 32.7172 23.4678 32.5068 23.481C32.2963 23.4941 32.0956 23.5809 31.9355 23.7282C30.1071 25.4328 27.7693 26.3758 25.3477 26.3853C22.7548 26.4241 20.2534 25.3574 18.392 23.4193C16.5307 21.4812 15.4612 18.8298 15.418 16.0465C15.4291 14.398 15.8093 12.7766 16.5268 11.319C17.2442 9.86143 18.2778 8.61057 19.5402 7.67192C19.7146 7.54002 19.8433 7.34965 19.906 7.1307C19.9688 6.91176 19.962 6.67664 19.8868 6.46227C19.8132 6.256 19.68 6.08046 19.5067 5.96138C19.3334 5.84231 19.1291 5.78595 18.9237 5.80058C15.5678 6.12364 12.4436 7.77448 10.1581 10.4323C7.87268 13.0901 6.5893 16.5651 6.55737 20.1821C6.61066 24.0695 8.09724 27.7758 10.6914 30.489C13.2856 33.2021 16.7758 34.7007 20.3973 34.6565C23.2477 34.6764 26.034 33.7489 28.374 32.0015C30.7139 30.2541 32.4929 27.7723 33.4668 24.8966C33.5475 24.6761 33.5551 24.4325 33.4884 24.2066C33.4219 23.9808 33.285 23.7864 33.1008 23.6559ZM20.3973 32.5887C17.2859 32.6357 14.2841 31.3558 12.0507 29.0299C9.81715 26.7041 8.53431 23.522 8.4836 20.1821C8.49175 17.7048 9.19049 15.287 10.4899 13.2399C11.7892 11.1926 13.6298 9.60996 15.7744 8.69547C14.2908 10.8152 13.4897 13.3952 13.4918 16.0465C13.5349 19.3781 14.8074 22.5555 17.03 24.8814C19.2527 27.2073 22.244 28.4918 25.3477 28.4531C26.9664 28.4522 28.5683 28.1006 30.0573 27.4193C28.9331 29.0285 27.4743 30.3338 25.7972 31.2312C24.1203 32.1288 22.2712 32.5935 20.3973 32.5887Z" fill="#FFE81E"/>
</g>
<path d="M25.4099 8.52695L26.1827 10.8837H28.684L26.6604 12.3403L27.4333 14.6971L25.4099 13.2405L23.3863 14.6971L24.1592 12.3403L22.1357 10.8837H24.6369L25.4099 8.52695Z" fill="#FFE81E"/>
<path d="M33.4426 12.6198L34.1788 15.2124H36.5608L34.6337 16.8145L35.3698 19.407L33.4426 17.8048L31.5155 19.407L32.2516 16.8145L30.3244 15.2124H32.7065L33.4426 12.6198Z" fill="#FFE81E"/>
</g>
<defs>
<filter id="filter0_d" x="-0.442635" y="2.79831" width="40.976" height="42.8592" filterUnits="userSpaceOnUse" color-interpolation-filters="sRGB">
<feFlood flood-opacity="0" result="BackgroundImageFix"/>
<feColorMatrix in="SourceAlpha" type="matrix" values="0 0 0 0 0 0 0 0 0 0 0 0 0 0 0 0 0 0 127 0"/>
<feOffset dy="4"/>
<feGaussianBlur stdDeviation="3.5"/>
<feColorMatrix type="matrix" values="0 0 0 0 0 0 0 0 0 0 0 0 0 0 0 0 0 0 0.25 0"/>
<feBlend mode="normal" in2="BackgroundImageFix" result="effect1_dropShadow"/>
<feBlend mode="normal" in="SourceGraphic" in2="effect1_dropShadow" result="shape"/>
</filter>
<clipPath id="clip0">
<rect width="40" height="45" fill="white"/>
</clipPath>
</defs>
</svg>
