<svg width="1024" height="768" viewBox="0 0 1024 768" fill="none" xmlns="http://www.w3.org/2000/svg">
<g clip-path="url(#clip0)">
<path fill-rule="evenodd" clip-rule="evenodd" d="M796.003 92.6652C796.365 95.7922 800.247 93.4042 800.61 95.0992C800.839 96.1642 796.843 98.8072 795.981 99.5352C798.765 101.213 802.319 97.3472 804.406 95.7272C805.481 96.8942 805.845 97.5072 804.857 98.8422C803.115 101.199 803.194 98.0762 801.122 99.7162C801.985 101.166 802.743 100.335 803.839 99.9452C803.362 102.735 804.431 100.969 805.268 102.736C805.948 104.173 805.865 105.235 806.068 106.84C805.084 109.1 804.101 111.361 803.117 113.621C801.934 116.34 802.286 117.214 799.392 116.305C799.718 115.741 801.883 112.983 801.707 112.305C801.507 111.53 798.546 110.458 797.764 109.807C796.388 108.662 796.403 107.68 795.525 106.45C795.874 105.306 795.603 104.771 794.71 104.848L793.724 107.499C793.806 109.38 795.395 109.204 796.332 111.001C797.768 113.751 796.964 112.128 795.791 114.341C794.639 116.515 794.51 119.29 792.616 120.383C793.634 120.83 794.651 121.277 795.669 121.723C793.293 124.331 798.235 123.061 799.052 122.808C798.216 124.583 797.38 126.358 796.545 128.133C794.04 126.731 792.804 124.073 791.136 121.878L787.326 128.96C788.59 128.843 789.854 128.727 791.116 128.61C790.94 128.943 789.322 131.227 789.46 131.735C790.025 133.806 794.325 132.638 793.85 135.347C793.788 135.694 789.934 139.581 789.273 139.956C791.21 140.826 792.086 140.465 791.392 142.75L788.694 141.119C787.928 142.494 787.041 143.837 786.553 145.343C786.646 146.328 786.471 147.261 786.025 148.143C785.495 148.932 784.898 149.668 784.234 150.35C783.708 151.735 783.539 159.295 784.173 160.528C785.587 158.701 788.748 161.926 783.413 161.926C781.077 161.926 781.234 161.44 780.341 163.492C779.639 165.107 779.259 166.516 781.25 166.671C779.753 169.62 780.073 171.892 779.938 175.035C779.828 177.581 779.114 180.112 778.585 182.61C779.059 181.929 779.533 181.249 780.007 180.568C781.284 183.292 780.311 185.586 779.704 188.501C778.378 186.75 778.216 189.874 777.082 189.551C774.769 188.891 776.501 188.405 775.561 186.888C774.746 185.574 774.831 185.197 773.325 184.394C771.327 183.329 767.825 183.289 765.565 182.913C761.765 182.279 757.96 182.12 754.116 181.953C739.726 181.329 725.386 181.169 710.998 181.96C697.761 182.688 684.203 184.544 671.223 187.058C657.404 189.734 643.888 192.202 630.504 196.729C627.918 197.604 625.329 199.429 622.744 200.07C620.291 200.679 617.833 200.671 615.276 201.559C609.153 203.685 602.818 205.297 596.648 207.326C589.999 209.513 582.803 211.337 576.475 214.364C573.727 215.679 571.232 217.462 568.484 218.794C565.896 220.049 561.544 221.194 560.177 224.092C559.644 225.222 559.735 226.041 560.066 227.212C560.73 229.562 561.254 229.308 563.058 229.149C565.568 228.927 568.816 226.974 571.253 226.206C577.925 224.104 584.677 222.421 591.462 220.737C603.647 217.712 615.88 212.356 627.904 210.261C635.035 209.019 641.791 205.641 648.961 204.365C650.534 204.086 655.088 201.841 656.379 202.617C656.721 202.822 657.559 205.286 657.854 205.875C658.913 207.991 660.127 210.034 661.549 211.929C665.835 217.643 671.584 222.245 676.715 227.169C682.576 232.794 687.669 238.999 693.078 245.037C693.548 244.492 694.017 243.947 694.486 243.403C693.991 247.216 696.847 249.966 699.182 252.555C701.953 255.631 704.182 258.522 706.367 262.029C708.16 264.905 710.454 267.423 712.48 270.043C714.472 272.621 715.798 275.732 717.631 278.51C721.839 284.891 725.98 291.395 730.224 297.69C732.222 300.653 733.8 303.987 735.381 307.36C736.636 310.037 740.412 315.511 740.412 318.108C740.141 319.38 742.899 327.032 739.951 323.426C739.481 324.154 739.01 324.882 738.538 325.61C739.345 325.272 740.15 324.934 740.957 324.596C738.509 326.813 743.081 327.098 743.182 328.337C742.774 328.73 742.367 329.123 741.96 329.516C741.264 330.95 740.358 331.136 739.245 330.074C738.018 330.149 737.773 329.463 736.405 329.92C737.711 331.959 739.394 330.67 740.056 333.488C740.638 335.971 738.793 336.504 736.844 337.972L736.723 338.064L736.68 338.211C736.255 339.481 735.05 338.94 733.708 338.663C730.498 338.002 726.951 336.735 723.825 335.76C717.068 333.653 710.259 331.877 703.273 330.436C687.333 327.147 671.521 327.302 655.436 326.262C655.859 324.5 655.862 324.655 655.36 323.563C656.004 324.963 652.119 323.135 655.047 326.228C647.573 327.45 639.5 326.531 631.92 326.938C632.273 326.152 633.084 325.248 632.326 324.679C628.737 329.868 616.745 327.643 610.817 328.386C607.337 328.823 603.898 329.66 600.429 330.211L598.969 330.44C597.751 330.634 596.533 330.846 595.343 331.168C593.81 331.581 591.256 333.278 589.803 332.884C591.93 328.596 589.477 332.308 589.143 332.357C588.133 332.506 586.394 332.846 584.943 332.846C586.597 326.205 589.434 320.086 590.577 313.246C591.29 308.982 593.248 302.114 589.032 299.092C586.722 297.436 582.936 297.077 580.261 296.514C577.329 295.897 572.206 295.922 569.655 294.265C567.663 292.97 567.242 291.78 564.633 290.79C561.623 289.648 560.235 288.514 557.194 289.437C558.431 287.888 560.164 286.758 557.736 285.175C556.741 284.528 554.791 285.399 554.442 283.983C552.64 285.256 553.067 286.284 552.585 288.029C552.629 288.767 552.823 289.471 553.169 290.139C552.215 290.523 551.262 290.907 550.308 291.291C550.914 289.662 549.135 290.633 548.78 289.832C548.251 288.635 548.565 286.808 548.565 285.509C546.599 286.13 544.543 286.898 543.683 288.944C541.276 287.509 542.232 287.411 543.466 285.258C541.445 284.78 541.017 285.82 540.71 287.494C539.644 287.164 538.576 286.835 537.51 286.506C539.914 286.489 540.491 284.611 540.548 282.571C539.613 282.875 538.678 283.18 537.742 283.484C537.55 284.471 537.358 285.458 537.166 286.445C535.693 287.693 531.861 285.439 530.618 284.794C526.284 282.547 524.698 281.897 525.309 276.791C525.82 272.511 526.951 268.21 527.202 263.908C527.481 259.129 526.923 254.018 526.504 249.254C525.692 240.035 524.385 230.95 523.927 221.693C523.68 216.681 523.404 211.668 523.207 206.653C523.051 202.667 521.675 198.281 526.648 197.927C526.04 195.997 527.861 193.765 529.74 192.708C530.397 191.211 531.115 191.077 531.896 192.308C532.574 192.521 533.204 192.421 533.787 192.006C536.525 191.385 539.809 187.5 542.267 186.099C544.677 184.726 549.932 182.73 551.653 180.418C553.317 178.181 550.8 178.433 551.309 176.383C552.003 173.581 554.532 177.605 554.92 178.165C555.765 177.316 558.993 175.724 558.955 174.49C558.164 174.349 557.374 174.208 556.583 174.067C557.447 173.568 559.364 172.078 560.369 171.881C562.077 171.546 561.436 171.113 562.805 172.996C563.281 172.258 564.439 169.833 565.164 169.342C565.51 169.107 567.566 168.951 567.997 168.799C570.235 168.008 570.009 166.267 571.654 165.439C572.452 165.038 573.434 165.654 574.104 165.362C575.174 164.894 575.177 163.297 576.148 162.718C576.988 162.216 579.118 162.633 580.121 162.268C581.783 161.661 581.71 161.096 582.95 159.988C584.689 158.435 586.29 158.66 588.227 157.483C590.235 156.263 589.927 153.516 591.749 152.992C594.182 152.293 594.805 154.597 596.128 152.321C596.426 151.81 595.076 151.046 595.923 150.226C596.967 149.216 597.399 150.421 597.878 151.206L599.53 148.089C602.178 149.539 601.066 147.669 603.087 146.673C603.984 146.231 604.723 147.104 605.706 146.57C606.429 146.178 606.554 145.324 607.073 144.795C608.071 143.778 608.623 142.382 610.169 141.898C609.61 142.072 614.19 141.94 613.781 141.744C613.336 141.09 612.89 140.436 612.444 139.782C614.841 139.782 616.934 140.02 619.253 139.3C620.074 139.046 621.357 138.654 622.04 138.132C623.917 136.697 623.494 137.047 623.494 134.411C626.083 136.059 629.379 135.483 631.934 133.572C633.268 132.574 634.123 131.38 635.586 130.478C636.214 130.153 636.853 129.849 637.501 129.567C638.313 128.727 639.126 128.719 639.941 129.544C641.093 129.235 641.08 129.022 641.973 128.463C642.229 127.957 642.501 127.46 642.793 126.973C643.751 126.873 644.695 126.7 645.627 126.454C649.244 125.481 651.428 123.067 654.785 125.206C655.214 124.331 655.644 123.455 656.072 122.579C657.501 124.811 658.478 122.679 660.374 121.775C661.169 121.396 662.201 121.302 662.919 120.956L664.133 121.243C664.476 120.183 664.818 119.123 665.16 118.063C665.851 118.332 668.59 119.803 669.413 119.725C670.593 119.614 672.003 117.617 673.146 117.24C674.89 116.665 674.265 117.425 675.978 117.437C677.295 117.446 677.916 117.633 679.054 116.527C675.208 115.528 680.06 115.057 681.681 114.719C684.206 114.193 685.507 114.755 687.261 112.76H685.44C687.237 111.125 686.632 111.702 688.524 111.862C689.12 111.911 691.712 113.334 691.717 111.436C694.162 112.877 694.189 112.88 696.71 112.23C697.826 111.942 698.776 111.005 700.003 110.983C701.2 110.962 702.058 111.503 703.126 111.387C703.765 111.319 706.002 110.48 706.758 110.205C707.957 109.768 708.747 108.835 709.894 108.474C711.156 108.075 712.762 108.549 714.088 108.258C718.031 107.39 720.345 105.03 724.614 106.308C725.07 102.487 729.832 103.337 732.395 103.731C734.179 104.006 735.088 104.728 736.935 103.854C738.439 103.143 739.296 102.015 740.97 101.447C742.254 101.011 743.984 100.694 745.325 100.416C746.154 100.154 747.001 100.07 747.866 100.165C748.735 100.287 749.464 100.665 750.051 101.298L750.16 101.423C750.293 101.108 752.313 99.6113 752.081 99.7962C753.589 98.5892 754.296 99.0502 755.223 96.7002L751.991 96.0182C753.655 95.9062 754.905 95.7142 756.385 96.3612C757.408 96.8082 759.127 99.1772 760.152 99.1792C762.005 99.1812 762.653 96.5702 762.469 95.2112C764.024 98.8322 765.351 99.4352 768.843 97.5842C769.253 97.3662 769.664 97.1492 770.074 96.9312C770.905 96.0602 771.731 96.0762 772.553 96.9802L774.017 97.7772C774.604 96.8002 775.19 95.8242 775.778 94.8472C777.024 96.5632 778.208 96.6472 780.24 96.2462C781.641 95.9692 784.517 93.4302 785.55 93.4312C786.149 93.4312 786.914 94.8912 787.913 95.1762C789.566 95.6502 792.135 94.4582 792.724 92.8762C793.037 93.5362 793.35 94.1972 793.662 94.8582C794.443 94.1282 795.227 93.4002 796.003 92.6652ZM736.67 338.052L736.667 338.108L736.723 338.064L736.724 338.062L736.67 338.052ZM734.641 334.607V337.682L735.682 337.872L736.67 338.052L736.68 337.884C736.724 336.405 735.966 335.309 734.641 334.607ZM642.621 322.373C642.296 323.369 641.972 324.366 641.648 325.362C642.741 325.451 643.835 325.54 644.929 325.63C644.159 324.544 643.39 323.459 642.621 322.373ZM514.194 243.579C516.585 244.277 516.552 244.192 517.032 246.404C519.763 258.994 511.313 273.434 517.517 285.402C499.381 285.255 481.208 285.617 463.178 287.742C463.178 280.886 463.403 274.045 462.885 267.2C462.65 264.093 462.299 260.997 461.982 257.898C461.581 253.965 461.708 254.195 464.927 253.518C466.618 253.162 467.223 252.09 468.839 251.437C470.052 250.946 470.596 251.55 471.792 251.718C473.931 252.02 473.957 251.661 475.917 251.243C480.124 250.346 483.697 250.666 487.021 247.525C488.744 247.376 488.186 248.972 489.387 248.816C490.26 248.702 490.816 247.072 491.707 246.683C494.478 245.47 499.091 245.766 502.123 245.387C505.22 245.001 507.961 243.604 510.926 243.19C512.147 243.02 513.037 243.241 514.194 243.579ZM549.178 279.915C548.593 282.092 546.025 279.258 545.985 280.966L545.988 281.121L545.993 281.083C546.128 280.791 548.725 284.228 548.572 284.113C549.967 285.164 550.78 285.065 552.361 283.859C549.531 283.752 549.843 282.006 549.178 279.915ZM557.064 282.991C558.097 283.559 558.413 282.106 558.948 281.219C557.794 280.644 557.624 281.982 557.064 282.991ZM553.867 273.52C554.269 274.934 554.24 276.018 554.24 277.478C556.629 277.14 557.38 276.966 557.424 274.425L556.147 275.228C555.477 273.901 555.329 273.798 553.867 273.52ZM535.379 275.887C535.92 275.539 536.461 275.19 537.002 274.841C536.204 273.693 534.785 275.058 535.379 275.887ZM541.421 254.761C542.111 254.399 542.803 254.037 543.493 253.675C541.701 251.39 541.57 252.157 541.421 254.761ZM538.924 236.637H536.208C536.74 238.383 538.924 238.759 538.924 236.637ZM805.027 135.055C805.647 135.417 806.268 135.779 806.888 136.14C805.276 137.609 803.294 139.09 804.864 140.812C806.111 142.179 811.933 142.831 813.677 143.329C813.072 144.025 811.825 145.927 811 146.406C810.346 146.785 809.749 145.284 808.431 146.779C810.617 147.913 810.031 147.054 809.463 149.459C809.128 150.878 807.929 152.402 807.254 153.675C805.609 156.772 803.926 159.849 802.201 162.902C798.662 169.163 794.936 175.32 791.021 181.354C790.361 177.946 792.249 174.127 793.228 170.839C794.46 166.701 795.694 162.565 796.934 158.43C799.327 150.462 801.475 142.577 805.027 135.055ZM710.04 145.452C708.271 145.903 707.112 146.197 705.283 146.663C707.94 147.509 707.94 147.509 710.04 145.452ZM788.365 130.093C786.109 131.149 785.868 131.916 787.693 133.208C787.91 132.203 788.069 131.466 788.365 130.093ZM788.091 105.104C787.785 106.445 785.888 105.155 785.468 106.135C784.506 108.377 787.564 108.073 788.666 107.938C788.475 106.993 788.282 106.049 788.091 105.104ZM800.875 103.402C800.271 106.269 800.271 106.269 803.067 106.7C802.333 105.596 801.718 104.67 800.875 103.402ZM750.16 101.423L750.155 101.454C750.157 101.471 750.174 101.48 750.208 101.477L750.16 101.423Z" fill="#2357F5" fill-opacity="0.788235"/>
<path fill-rule="evenodd" clip-rule="evenodd" d="M396.602 401.715C396.178 403.898 395.118 404.926 396.229 406.931C397.172 408.634 399.876 409.749 401.691 409.318L396.602 401.715ZM347.428 324.069L338.475 327.138C340.922 329.539 343.254 332.063 345.952 334.195L347.428 324.069ZM495.107 331.929C490.837 329.777 486.054 329.534 481.373 329.258C482.084 333.101 482.797 336.945 483.51 340.788C487.375 337.835 491.242 334.882 495.107 331.929ZM392.574 629.424C391.722 627.915 385.91 616.256 384.702 616.855C384.061 617.172 384.011 623.663 383.917 624.586C383.584 627.87 383.25 631.153 382.917 634.437C386.355 633.223 390.027 632.216 392.574 629.424ZM351.966 535.17C352.845 537.746 353.725 540.323 354.604 542.9C355.022 544.125 355.267 545.932 356.007 547.013C356.968 548.415 356.243 549.24 357.526 547.705C358.904 546.056 359.316 541.658 359.914 539.638C360.823 536.569 361.731 533.502 362.639 530.434C358.358 530.398 355.763 533.923 351.966 535.17ZM262.004 383.43C256.74 387.028 251.411 390.597 246.831 395.069C250.86 394.818 256.47 397.59 260.265 396.288C262.017 396.662 262.596 395.997 262.004 394.291V390.747V383.43ZM340.056 408.882V429.889C344.971 425.701 350.144 421.811 354.873 417.407C349.934 414.565 344.996 411.724 340.056 408.882ZM515.757 463.313C514.206 472.665 514.12 482.289 513.695 491.753C513.62 493.433 512.973 495.962 514.092 497.433C515.215 498.908 518.414 499.725 520.04 500.513C524.615 502.731 529.159 505.012 533.721 507.257C527.733 492.609 521.745 477.961 515.757 463.313ZM631.908 405.8C643.194 400.252 654.481 394.704 665.768 389.155C654.702 384.47 643.635 379.786 632.57 375.101C632.349 385.334 632.128 395.568 631.908 405.8ZM515.733 431.921C517.796 432.069 518.122 424.212 518.463 422.134C519.113 418.19 519.779 414.249 520.462 410.31C521.829 402.436 523.265 394.574 524.777 386.727C527.801 371.035 531.136 355.402 534.832 339.855C530.86 339.139 527.211 338.624 523.332 337.468C520.199 336.534 516.468 337.042 513.671 335.1C513.308 342.385 515.127 350.13 515.8 357.415C516.58 365.844 516.999 374.229 516.93 382.696C516.794 399.105 516.171 415.518 515.733 431.921ZM255.951 654.24C257.907 653.719 255.244 626.906 255.125 623.039C254.785 611.844 254.719 600.641 254.919 589.443C244.381 596.051 233.598 602.137 222.466 607.626C225.327 611.337 228.008 615.339 231.174 618.793C234.436 622.35 238.178 625.265 241.201 629.096C247.287 636.811 251.456 645.569 255.951 654.24ZM509.538 495.622C510.028 487.557 510.482 479.509 511.296 471.468C511.643 468.046 514.95 449.863 509.655 450.29C506.643 450.533 501.36 454.941 498.598 456.486C494.95 458.526 491.297 460.56 487.631 462.569C480.397 466.533 473.115 470.409 465.855 474.326C480.416 481.425 494.977 488.524 509.538 495.622ZM478.1 327.923C472.069 327.473 466.239 327.025 460.29 325.902C457.082 325.296 453.874 325.38 450.649 324.971C448.339 324.678 443.824 322.781 441.672 323.402C438.968 324.182 437.986 337.733 437.614 341.134C437.015 346.612 436.611 353.258 439.058 358.404C443.774 368.324 456.481 360.581 462.663 356.42C467.962 352.852 473.965 349.239 478.665 344.908C482.828 341.071 479.091 332.881 478.1 327.923ZM509.377 435.798C513.921 433.96 513.849 431.652 514.047 426.898C514.287 421.122 514.427 415.339 514.592 409.56C514.886 399.262 515.164 388.959 515.072 378.655C514.983 368.59 514.49 358.541 513.338 348.538C512.931 345.001 513.336 338.96 511.472 335.943C509.771 333.191 504.491 333.162 501.61 333.332C498.362 333.523 495.731 336.608 493.334 338.558C490.679 340.719 485.224 343.761 484.789 346.983C484.301 350.581 486.278 355.715 487.044 359.205C489.845 371.942 493.253 384.554 496.843 397.088C500.567 410.092 504.341 423.227 509.377 435.798ZM393.929 405.31C394.222 402.448 395.287 400.058 393.847 397.332C392.61 394.988 390.596 392.633 389.083 390.414C384.753 384.058 379.897 377.97 375.18 371.898C370.86 366.337 366.434 360.835 361.906 355.442C359.384 352.439 356.784 349.501 354.2 346.551C352.307 344.392 350.513 341.358 347.836 340.228C345.863 352.625 344.233 365.076 342.961 377.565C342.347 383.602 341.817 389.648 341.372 395.7C341.246 397.408 339.921 403.177 340.768 404.768C341.659 406.439 347.104 408.675 348.771 409.699C353.431 412.563 357.052 416.878 361.484 412.17C364.535 408.928 366.992 404.358 370.402 401.529C372.179 400.055 373.852 400.124 375.845 399.249C378.162 398.233 378.235 397.254 381.004 398.637C385.669 400.966 388.503 404.408 393.929 405.31ZM160.38 469.095C160.38 477.678 159.793 484.734 165.611 491.682C170.695 497.754 175.978 499.159 183.129 501.555C187.34 502.965 187.634 501.665 191.046 499.283C194.289 497.021 197.82 495.206 201.018 492.872C207.911 487.842 214.799 482.654 221.498 477.363C223.75 475.584 223.418 476.191 223.076 474.056C222.763 472.111 221.367 469.635 220.604 467.785C219.224 464.438 217.598 461.199 215.971 457.966C214.124 454.298 212.515 450.314 210.221 446.894C209.269 445.475 208.139 444.191 207.028 442.897C204.689 440.172 204.772 440.273 201.975 442.5C196.07 447.203 190.576 452.294 183.93 455.971C176.067 460.323 168.223 464.704 160.38 469.095ZM338.429 402.61C339.282 390.288 340.244 378.034 341.721 365.768C342.48 359.47 343.363 353.189 344.222 346.904C344.572 344.345 345.922 340.05 345.17 337.564C344.431 335.117 341.169 332.788 339.379 331.018C338.898 330.542 337.419 328.545 336.783 328.455C336.102 328.36 333.539 330.237 332.8 330.66C330.186 332.159 327.619 333.735 325.091 335.375C320.327 338.466 315.711 341.783 311.194 345.224C301.722 352.439 292.689 360.203 283.418 367.671C291.912 375.115 302.367 380.896 311.864 386.925C317.479 390.49 323.123 394.016 328.84 397.415C331.739 399.137 335.101 401.77 338.429 402.61ZM222.315 622.952C215.456 627.487 208.906 632.274 201.149 635.184C193.427 638.082 185.795 639.197 177.814 640.919C173.789 641.788 170.006 642.738 165.898 643.346C163.596 643.686 160.033 643.555 157.934 644.527C156.065 644.129 155.399 644.766 155.938 646.439C155.958 646.959 155.978 647.479 155.998 647.999C156.527 655.232 161.176 663.936 165.231 669.816C167.598 673.25 170.614 676.445 173.611 679.331C176.995 682.59 178.946 684.888 183.663 683.523C191.614 681.221 198.631 676.588 206.69 674.545C213.065 672.929 218.36 669.542 224.577 667.789C232.244 665.627 239.831 663.163 247.604 661.357C244.132 654.655 241.027 647.677 236.582 641.538C232.023 635.238 226.996 629.184 222.315 622.952ZM264.382 397.434C278.726 400.289 294.273 402.932 307.111 410.337C312.121 413.227 318.472 417.694 319.939 423.671C321.693 430.815 314.797 435.24 309.037 437.47C302.121 440.147 294.593 441.173 287.265 442.017C283.386 442.464 279.489 442.708 275.592 442.929C272.438 443.109 267.089 442.416 264.206 443.666C262.4 443.306 261.774 444.038 262.328 445.863C262.294 446.518 262.261 447.174 262.228 447.829L261.929 453.719C261.73 457.641 261.531 461.564 261.331 465.486C260.898 474.03 260.464 482.575 260.031 491.119C267.544 486.464 273.599 479.799 280.942 474.833C284.433 472.472 287.899 470.106 291.376 467.753C292.834 466.767 293.725 465.384 295.16 464.465C297.063 463.246 298.75 462.513 300.535 460.916C307.825 454.396 315.932 448.76 323.664 442.775C327.176 440.055 331.021 437.555 334.363 434.638C337.863 431.582 337.379 429.066 337.293 424.673C337.203 420.022 338.91 414.247 338.118 409.762C338.783 408.24 338.272 407.293 336.587 406.921C335.461 406.201 334.336 405.481 333.21 404.761C330.965 403.325 328.72 401.889 326.475 400.454C317.544 394.743 308.614 389.031 299.683 383.32C295.222 380.467 290.761 377.614 286.299 374.761C285.053 373.965 280.989 370.365 279.591 370.471C278.165 370.579 275.691 373.363 274.622 374.249C272.982 375.607 271.39 377.036 269.618 378.225C268.735 378.837 267.813 379.383 266.853 379.864C265.318 380.012 264.785 380.855 265.252 382.392C263.904 386.716 264.645 392.892 264.382 397.434ZM463.294 601.28C460.046 586.095 455.857 568.114 443.188 557.785C430.339 547.309 411.554 551.357 401.503 563.659C396.469 569.821 393.348 577.106 391.03 584.655C388.65 592.403 385.143 602.498 385.785 610.692C386.066 614.284 389.144 618.145 390.903 621.279C392.718 624.516 393.923 629.157 398.201 628.036C404.834 626.297 411.58 622.305 417.787 619.448C424.065 616.557 430.675 614.179 437.185 611.387C441.507 609.534 445.994 608.124 450.305 606.244C454.393 604.463 459.787 604.033 463.294 601.28ZM655.225 510.837C664.285 514.08 668.994 508.889 675.369 503.045C681.408 497.509 687.951 492.185 693.512 486.168C699.248 479.964 703.782 472.632 708.192 465.466C712.65 458.224 718.676 450.402 721.421 442.336C722.817 438.233 723.413 433.687 724.293 429.446C724.505 428.425 725.926 424.626 725.475 423.767C724.853 422.586 720.897 422.461 719.811 422.289C711.166 420.922 702.005 420.854 693.334 422.076C676.557 424.44 662.526 433.849 657.223 450.301C651.007 469.587 653.994 491.023 655.225 510.837ZM596.482 343.555C596.342 346.894 604.346 347.822 606.421 348.601C611.215 350.399 615.982 352.298 620.637 354.426C630.224 358.808 640.447 361.663 649.627 366.961C669.416 378.382 690.899 386.433 710.891 397.357C714.006 399.06 720.093 403.161 723.651 402.814C725.542 402.63 724.133 404.152 725.36 401.146C725.801 400.064 725.948 398.657 726.195 397.498C726.936 394.025 727.509 390.52 728.341 387.066C729.71 381.381 731.108 376.107 731.685 370.264C731.93 367.788 732.198 365.315 732.227 362.825C732.257 360.301 732.838 353.977 731.699 351.792C730.943 350.343 730.792 350.84 728.904 350.431C727.822 350.197 726.687 349.71 725.644 349.385C723.195 348.623 720.744 347.891 718.176 347.667C715.639 347.445 714.02 346.673 711.641 346.225C709.145 345.755 706.581 346.325 704.038 345.669C701.293 344.96 699.983 344.313 697.115 344.584C694.334 344.846 693.534 344.23 690.811 343.472C688.538 342.84 685.83 343.282 683.461 343.09C680.594 342.856 677.736 342.498 674.867 342.271C661.967 341.25 648.914 342.764 635.984 342.644C628.953 342.579 622.073 343.617 615.052 343.296C608.916 343.016 602.573 343.082 596.482 343.555ZM630.041 411.544C623.766 413.934 617.947 417.816 612.129 421.159C605.42 425.014 598.999 429.11 592.79 433.733C582.351 441.507 570.169 450.828 567.421 464.393C564.602 478.315 576.692 489.722 588.027 495.418C600.954 501.913 615.993 505.272 630.153 507.753C628.639 475.704 628.995 443.602 630.041 411.544ZM442.309 486.996C438.502 488.048 435.279 490.301 431.747 491.968C428.584 493.461 425.523 494.587 422.568 496.509C417.753 499.642 412.171 502.324 407.137 504.747C394.681 510.74 382.588 518.183 370.256 524.825C366.988 526.586 365.917 527.698 364.81 531.322C363.608 535.258 362.475 539.221 361.317 543.171C360.237 546.855 358.513 550.794 358.967 554.683C359.363 558.066 361.113 561.257 362.432 564.343C365.754 572.109 369.355 579.751 373.076 587.332C376.415 594.138 379.462 601.359 383.748 607.615C387.079 590.241 390.068 570.774 402.981 557.535C415.884 544.306 436.469 544.119 448.903 557.775C454.81 564.262 458.405 572.432 461.231 580.641C462.715 584.954 463.712 589.349 464.667 593.803C465.687 598.561 465.436 601.086 470.686 599.644C474.855 598.499 479.275 597.585 483.362 596.279C485.482 595.602 487.55 594.841 487.646 593.166C487.768 591.051 484.92 586.72 484.079 584.73C479.736 574.459 475.392 564.187 471.048 553.916C466.331 542.763 461.613 531.61 456.894 520.458C454.54 514.893 452.185 509.329 449.83 503.765C447.682 498.693 445.893 491.161 442.309 486.996ZM630.394 400.263C630.464 395.192 630.548 390.121 630.614 385.049C630.654 382.027 632.001 376.183 629.369 374.024C627.737 372.686 622.896 371.66 620.832 370.744C616.759 368.938 612.349 368.132 608.252 366.338C592.206 359.309 575.507 353.455 558.986 347.79C555.424 346.568 551.783 345.568 548.197 344.365C546.261 343.716 539.09 339.902 537.299 340.9C535.73 341.773 534.547 352.173 534.045 354.332C532.856 359.444 531.719 364.569 530.627 369.703C526.386 389.635 522.829 409.707 519.521 429.813C528.309 426.476 536.732 420.694 545.035 416.224C553.66 411.581 562.255 406.949 570.939 402.413C573.39 401.132 582.013 395.246 584.031 397.556C587.268 401.263 579.555 405.611 577.53 407.199C569.698 413.342 561.424 418.697 553.048 424.055C544.369 429.609 535.337 434.515 526.613 439.967C523.464 441.935 518.437 444.331 517.199 447.655C515.607 451.931 516.756 457.128 518.206 461.213C521.766 471.252 525.665 481.167 529.788 490.987C531.663 495.452 533.586 499.897 535.545 504.325C537.878 509.599 540.939 510.714 546.022 513.141C567.676 523.481 590.168 533.294 610.967 545.259C607.486 549.271 599.002 542.683 595.567 541.015C589.205 537.925 582.837 534.845 576.48 531.746C564.637 525.973 552.854 520.085 540.944 514.451C548.577 531.812 557.585 548.539 567.573 564.654C565.051 565.508 565.666 565.553 564.083 564.036C562.75 562.759 561.855 560.257 560.952 558.653C559.085 555.34 557.243 552.014 555.362 548.709C551.46 541.85 547.416 535.095 543.853 528.049C541.173 522.751 539.097 513.489 533.589 510.818C526.726 507.488 519.772 504.247 512.909 500.87C512.909 527.265 514.806 553.074 517.59 579.306C517.731 580.629 518.999 584.533 516.442 584.151C515.289 583.978 514.9 576.74 514.698 575.229C513.768 568.3 512.979 561.354 512.334 554.394C511.049 540.505 510.35 526.56 510.26 512.612C508.613 526.173 506.966 539.734 505.319 553.295L502.978 572.572C502.568 575.947 502.158 579.322 501.748 582.697C501.56 584.248 501.679 586.275 501.134 587.754C500.277 590.081 500.565 589.903 497.878 590.964C500.447 573.305 502.82 555.616 504.919 537.895C505.944 529.248 506.904 520.594 507.789 511.932C508.027 509.603 508.26 507.272 508.488 504.942C508.603 503.754 509.628 499.934 509.059 498.947C508.496 497.969 504.763 496.949 503.688 496.45C501.335 495.358 498.982 494.267 496.631 493.169C488.999 489.602 481.373 486.006 473.825 482.265C470.523 480.628 467.06 478.099 463.469 477.226C459.894 476.357 457.294 478.845 454.237 480.427C451.858 481.658 446.253 483.297 444.664 485.388C443.185 487.334 447.778 495.122 448.985 497.993C452.388 506.093 455.792 514.194 459.196 522.294C466.097 538.718 472.999 555.142 479.901 571.567C481.588 575.581 483.275 579.596 484.962 583.611C486.043 586.184 487.848 593.516 490.471 593.803C491.632 593.93 493.538 592.667 494.66 592.304C496.334 591.763 497.88 591.771 499.56 591.486C502.638 590.964 505.834 589.376 508.857 588.262C516.626 585.398 524.68 583.549 532.512 580.874C540.38 578.187 548.12 575.168 555.957 572.48C563.075 570.04 570.257 567.259 577.095 564.081C584.316 560.724 591.722 557.764 598.758 554.042C611.574 547.263 624.251 540.932 635.575 532.618C638.237 530.663 641.073 528.7 643.707 526.607C646.016 524.77 650.422 522.502 651.994 520.087C652.593 519.166 653.108 517.36 652.408 516.267C651.657 515.093 648.331 515.2 646.777 514.991C641.876 514.333 636.976 513.674 632.076 513.016C632.452 516.239 632.832 519.459 633.105 522.694C633.296 524.977 634.646 531.011 632.826 532.8C630.324 530.422 631.128 523.311 630.904 520.143C630.784 518.45 631.215 515.136 630.457 513.634C629.626 511.988 627.33 512.01 625.249 511.56C616.425 509.651 607.681 508.049 599.142 505.024C584.717 499.915 567.474 491.288 564.252 474.648C560.893 457.301 575.653 442.271 588.08 432.596C595.521 426.804 603.437 421.789 611.624 417.133C615.451 414.958 619.275 412.782 623.126 410.653C624.527 409.879 629.126 408.284 629.865 406.93C630.621 405.545 630.234 401.841 630.394 400.263ZM321.775 666.668C321.075 667.01 320.374 667.352 319.675 667.694C327.46 645.509 335.173 623.424 341.682 600.822C344.824 589.913 348.007 579.015 351.256 568.137C352.659 563.445 356.104 556.983 355.147 552.122C354.111 546.861 351.627 541.265 349.705 536.262C337.402 543.996 324.841 551.333 312.333 558.716C301.12 565.337 289.717 571.225 278.425 577.776C272.639 581.132 266.67 583.399 260.631 586.141C255.724 588.37 257.629 595.183 257.7 599.734C257.948 615.802 257.936 631.927 258.911 647.972C259.266 653.817 258.808 660.528 262.529 665.393C267.288 671.613 271.702 677.954 276.042 684.502C277.668 686.955 284.499 700.236 287.046 699.945C288.709 699.756 290.24 694.378 291.072 693.103C292.865 690.354 295.486 687.989 297.872 685.776C308.176 676.216 319.61 669.482 331.493 662.495C343.566 655.397 355.921 648.79 368.222 642.059C371.001 640.538 373.994 639.441 376.755 637.887C377.846 637.273 380.009 636.298 380.696 635.201C381.723 633.559 381.375 629.01 381.589 627.047C382.027 623.037 382.814 618.871 382.856 614.831C382.897 610.841 380.498 607.412 378.759 603.933C371.125 588.655 363.708 573.34 357.066 557.599C351.829 575.877 346.331 594.069 341.194 612.374C338.512 621.932 335.279 631.334 332.131 640.745C330.524 645.552 328.907 650.355 327.302 655.163C326.052 658.907 325.403 664.389 321.775 666.668ZM431.416 322.201C427.369 322.246 423.701 321.651 419.743 320.806C418.291 320.497 417.015 320.366 415.543 320.236C413.874 320.089 412.358 319.185 410.895 319.008C409.789 318.875 407.858 319.339 406.802 319.693C404.354 320.513 404.432 320.099 404.33 322.941C404.17 327.332 404.05 331.724 403.809 336.111C402.86 353.38 401.026 370.481 398.513 387.583C398.004 391.04 396.58 395.574 397.363 399.007C398.069 402.102 400.743 405.408 402.509 408.004C406.142 413.343 414.698 415.981 420.717 417.495C427.064 419.092 433.654 419.68 439.684 421.104C441.355 421.499 443.273 420.803 445.054 421.199C446.701 421.565 447.98 422.469 449.502 423.123C453.231 424.724 457.397 425.019 461.248 426.255C468.884 428.706 477.06 428.559 484.703 430.913C486.657 431.514 488.345 433.03 490.225 433.549C491.944 434.023 493.714 433.465 495.513 433.73C499.325 434.291 502.879 435.594 503.758 439.686C506.089 437.841 506.413 438.326 506.01 435.472C505.752 433.642 504.733 431.414 504.175 429.65C502.753 425.152 501.323 420.657 499.902 416.159C497.091 407.258 494.297 398.35 491.706 389.383C489.387 381.362 487.279 373.28 485.437 365.136C484.5 360.995 483.717 356.836 482.914 352.673C482.68 351.465 482.912 349.545 481.698 348.741C480.597 348.012 478.027 350.628 476.864 351.471C468.741 357.355 450.11 374.758 439.954 364.492C434.485 358.964 434.805 349.245 435.399 342.103C435.763 337.713 436.534 333.38 437.396 329.064C437.611 327.987 438.928 324.527 438.446 323.76C437.925 322.935 432.503 322.443 431.416 322.201ZM716.835 418.256C718.998 418.498 721.159 418.741 723.321 418.984C723.123 417.237 723.301 414.61 722.64 412.983C721.725 410.734 719.486 410.483 717.023 409.551C713.127 408.078 709.154 406.797 705.301 405.211C696.939 401.77 688.616 398.28 680.249 394.839C676.582 393.33 672.273 390.861 668.291 392.093C663.997 393.423 659.759 396.131 655.745 398.114C651.2 400.36 646.657 402.611 642.115 404.862C639.985 405.918 637.854 406.973 635.724 408.029C632.377 409.687 631.932 409.855 631.668 413.642C630.323 433.014 630.423 453.138 631.009 472.536C631.309 482.435 630.973 492.388 631.683 502.27C631.738 503.03 631.681 507.319 632.157 507.904C632.827 508.728 637.544 509.006 638.671 509.213C643.065 510.016 647.49 510.283 651.93 510.68C650.884 488.148 647.042 461.511 658.613 440.901C670.236 420.195 695.08 415.71 716.835 418.256ZM514.779 196.586C516.082 193.618 518.326 191.112 520.244 188.508C521.281 187.1 523.075 185.417 523.739 183.77C524.684 181.426 524.679 181.928 523.267 179.875C521.932 177.935 521.959 177.789 519.895 177.442C518.157 177.15 516.306 177.646 514.531 177.328C512.736 177.006 507.803 175.494 508.934 172.638C508.885 172.763 511.739 171.356 511.961 171.112C512.678 170.331 512.905 168.666 513.259 167.722C514.399 164.696 514.799 162.737 513.529 159.515C511.631 154.704 504.129 153.28 499.459 154.899C497.124 155.707 495.793 157.421 494.744 159.575C494.077 160.943 493.922 162.92 493.06 164.111C491.76 165.904 491.68 165.705 488.985 165.388C485.554 164.985 482.74 163.667 479.489 162.748C475.948 161.746 473.645 163.784 470.551 165.427C464.965 168.395 459.57 169.425 453.313 169.896C446.345 170.421 439.887 168.741 432.988 168.308C434.778 176.553 439.407 183.247 443.107 190.713C443.757 192.026 444.808 193.368 444.833 194.887C444.859 196.318 442.787 198.265 443.02 199.449C443.519 201.975 449.078 203.997 451.184 204.708C457.141 206.717 463.924 210.65 470.48 209.07C474.075 208.204 476.009 202.528 479.392 202.111C483.93 201.549 480.535 207.393 479.692 209.403C486.133 210.382 494.297 209.552 500.462 207.368C503.552 206.274 506.17 204.641 508.99 203.022C512.502 201.006 513.232 200.452 514.779 196.586ZM402.064 319.296C390.581 319.487 378.93 317.834 367.421 319.353C364.755 319.704 362.124 320.27 359.504 320.872C357.621 321.305 351.64 321.671 350.384 323.071C349.24 324.348 349.232 330.227 348.996 331.884C348.471 335.574 348.611 336.848 350.964 339.701C358.706 349.089 366.769 358.197 374.398 367.689C381.726 376.807 387.741 386.995 395.148 395.984C399.104 384.469 399.341 370.65 400.427 358.576C401.006 352.138 401.533 345.695 402.028 339.251C402.499 333.113 404.101 325.148 402.064 319.296ZM253.435 440.653C254.763 440.653 256.881 441.069 258.172 440.653C259.947 441.218 260.54 440.552 259.953 438.656C259.981 437.993 260.009 437.329 260.038 436.665C260.223 432.388 260.427 428.112 260.625 423.835C260.807 419.925 260.984 416.014 261.138 412.103C261.244 409.433 262.593 402.814 261.514 400.403C260.789 398.782 259.072 399.15 256.983 398.913C254.996 398.688 253.003 398.48 251.027 398.172C248.519 397.781 245.739 396.883 243.187 397.445C240.623 398.01 238.759 400.377 236.747 401.883C233.563 404.264 230.31 406.557 227.099 408.901C221.263 413.163 215.486 417.503 209.699 421.83C207.309 423.616 206.85 422.996 208.015 425.564C208.736 427.15 210.375 428.945 211.373 430.378C213.36 433.232 215.339 437.558 217.888 439.874C221.597 443.244 231.888 441.104 236.815 441.08C242.433 441.052 247.849 441.139 253.435 440.653ZM267.977 440.374C272.849 439.897 277.771 440.103 282.613 439.448C287.877 438.735 293.103 437.68 298.357 436.889C303.595 436.102 319.53 432.917 317.957 425.099C316.295 416.835 304.096 411.885 297.346 409.107C286.804 404.768 275.798 402.445 264.709 399.992C263.318 407.4 263.518 415.353 263.264 422.86C263.126 426.937 263.005 431.019 263.007 435.1C263.007 436.082 262.67 438.12 263.071 439.033C264.013 441.182 265.109 440.374 267.977 440.374ZM251.955 443.924H220.859C225.461 453.45 229.811 463.154 234.772 472.5C239.713 481.81 246.075 490.582 251.681 499.518C253.101 497.973 255.366 496.297 256.331 494.458C257.4 492.424 257.37 489.431 257.545 487.076C257.999 480.964 258.206 474.798 258.36 468.672C258.495 463.307 258.731 457.978 259.143 452.626C259.233 451.452 260.528 445.355 259.787 444.353C259.126 443.461 253.315 443.933 251.955 443.924ZM380.02 256.886C385.266 256.885 390.518 256.819 395.763 256.907C400.523 256.988 406.725 256.159 411.085 258.61C419.968 263.602 402.211 276.423 398.61 279.65C404.432 281.76 413.519 277.572 419.219 275.653C426.267 273.281 433.454 271.688 440.643 269.83C442.439 269.366 450.149 268.457 451.123 267.081C452.089 265.716 449.925 257.481 449.708 255.744C449.505 254.111 449.676 251.565 448.996 250.029C449.413 248.184 448.765 247.537 447.052 248.091C446.46 248.089 445.87 248.086 445.278 248.084C440.904 248.119 436.526 248.322 432.155 248.467C417.131 248.967 402.472 249.634 387.576 251.979C380.651 253.069 373.665 254.41 366.776 255.748C360.977 256.874 361.953 257.819 367.369 257.833C371.605 257.844 375.805 257.215 380.02 256.886ZM810.999 146.406C811.891 145.381 812.785 144.355 813.677 143.329C811.502 142.708 809.327 142.086 807.152 141.465C804.839 140.805 803.594 140.956 804.623 138.372C805.911 135.135 811.795 134.764 814.623 134.642C824.36 134.221 834.588 137.319 843.838 140.048C848.351 141.38 851.889 143.441 855.708 146.182C857.375 147.379 859.3 148.503 860.759 149.941C862.275 151.435 862.906 153.349 864.388 154.847C866.819 157.303 869.93 158.526 871.122 162.071C872.49 166.14 870.857 170.798 868.832 174.346C866.778 177.947 863.727 180.67 861.249 183.942C859.282 186.538 855.175 193.631 861.593 192.809C864.987 192.374 869.389 186.586 871.832 184.28C875.333 180.973 878.777 177.59 882.485 174.51C885.773 171.779 889.561 168.979 893.958 168.499C898.592 167.993 900.907 170.959 903.166 174.566C905.296 177.968 905.638 181.289 907.136 184.771C907.859 186.45 908.779 187.386 909.204 189.216C909.857 192.031 909.925 195.102 910.258 197.972C910.782 202.479 911.275 206.023 910.402 210.439C909.584 214.572 909.361 218.962 908.672 223.167C907.892 227.929 907.243 232.713 906.474 237.477C905.823 241.513 903.346 247.261 905.776 251.014C911.614 260.033 918.618 246.756 920.462 241.796C923.704 233.08 925.354 223.552 928.215 214.657C929.747 209.9 931.084 205.098 931.962 200.173C932.689 196.1 932.331 191.138 934.563 187.51C936.298 184.692 939.384 182.552 942.771 183.412C947.009 184.489 948.637 190.615 949.884 194.339C953.175 204.161 951.964 213.007 950.624 223.024C950.004 227.662 949.412 232.307 948.347 236.868C947.628 239.945 944.651 246.173 949.077 247.846C955.352 250.22 962.003 232.218 963.791 228.153C968.473 217.506 970.266 206.947 972.196 195.539C972.639 192.916 972.978 190.237 973.641 187.659C974.218 185.415 975.942 183.147 976.097 180.903C976.252 178.657 974.765 177.09 976.289 174.885C977.557 173.05 979.848 172.939 981.918 172.923C986.78 172.885 991.431 175.02 995.954 176.569C1000.16 178.01 1006.39 181.172 1010.93 180.154C996.689 165.697 982.486 151.404 965.503 140.145C957.617 134.916 949.725 129.891 941.201 125.627C932.567 121.308 922.673 118.391 913.426 115.778C908.397 114.356 903.396 112.745 898.43 111.114C894.009 109.662 889.559 109.387 885.23 107.74C875.825 104.163 865.316 102.777 855.578 100.241C851.278 99.1222 846.931 98.1622 842.621 97.1252C838.091 96.0352 831.727 94.1422 827.112 94.3262C823.17 94.4832 821.84 99.0002 819.944 102.142C817.191 106.703 814.844 111.442 812.679 116.307C808.245 126.275 803.564 136.573 800.392 146.987C798.651 152.705 796.931 158.429 795.22 164.156C793.74 169.114 790.037 176.266 791.021 181.354C798.314 170.115 805.105 158.443 810.999 146.406ZM471.466 247.89C467.597 248.066 463.727 248.241 459.858 248.417C463.716 261.097 463.178 274.599 463.178 287.742C481.207 285.617 499.381 285.255 517.517 285.402C514.185 278.974 515.477 270.635 516.426 263.752C516.982 259.723 517.292 255.842 517.211 251.777C517.135 247.964 518.234 244.758 514.194 243.579C510.989 242.644 508.963 244.202 505.91 244.913C502.253 245.764 498.27 245.867 494.547 246.33C486.798 247.293 479.326 247.858 471.466 247.89ZM367.577 272.584C379.196 269.361 391.543 270.549 403.22 268.099C400.564 265.675 395.56 267.111 392.033 267.313C388.023 267.541 384.016 267.708 380.006 267.903C376.095 268.094 365.247 267.798 363.836 272.774C365.082 272.711 366.33 272.647 367.577 272.584ZM792.717 92.9042C777.513 94.2382 761.59 94.0312 746.496 96.6842C729.209 99.7222 711.189 101.628 694.428 106.982C677.987 112.235 661.219 115.912 645.011 122.08C629.255 128.076 614.079 134.455 599.241 142.475C591.979 146.4 584.912 150.561 577.989 155.069C571.23 159.47 563.824 163.078 557.275 167.743C551.445 171.896 546.416 175.705 541.332 180.793C535.898 186.233 530.611 191.82 525.172 197.251C520.632 201.782 523.506 212.86 523.794 218.89C524.193 227.25 524.882 235.492 525.907 243.797C526.882 251.711 527.886 260.217 526.597 268.114C526.056 271.434 524.188 277.169 525.08 280.483C525.793 283.137 530.527 285.083 532.942 285.948C535.896 287.006 538.913 286.56 541.944 287.906C545.329 289.411 548.183 291.287 551.778 292.078C556.209 293.053 561.191 293.873 565.745 293.903C569.956 293.93 574.181 295.294 578.38 296.134C585.21 297.502 591.877 297.928 591.452 306.165C590.961 315.669 587.19 323.824 584.944 332.846C587.981 332.846 590.098 333.04 592.878 331.963C596.124 330.707 599.587 330.373 602.998 329.831C610.534 328.632 617.881 328.248 625.467 327.483C639.363 326.081 653.5 326.249 667.407 326.397C674.448 326.471 682.086 327.015 689.03 328.111C696.154 329.236 703.532 329.939 710.436 332.096C716.26 333.916 722.274 335.156 728.215 336.764C730.893 337.488 734.1 338.076 736.63 338.886C740.296 340.061 742.255 342.566 746.488 342.51C745.297 334.669 742.499 327.396 740.811 319.621C739.049 311.501 735.533 304.317 731.653 296.657C729.922 293.24 728.641 289.614 726.972 286.168C725.116 282.335 722.507 279.16 720.266 275.576C715.681 268.245 710.787 261.193 706.283 253.81C702.351 247.364 697.859 241.185 693.554 234.963C688.822 228.122 682.246 222.959 676.875 216.683C674.608 214.032 672.45 211.569 669.91 209.136C667.571 206.896 664.253 201.938 660.672 201.706C658.614 201.572 655.048 202.73 653.084 203.351C649.45 204.502 645.595 205.252 641.842 206.265C637.735 207.374 633.699 208.817 629.585 209.871C627.939 210.292 625.984 210.092 624.423 210.569C622.791 211.069 621.488 212.17 619.703 212.675C610.897 215.173 602.144 218.009 593.273 220.283C584.14 222.625 574.867 224.619 566.016 227.936C564.328 228.569 562.45 230.065 561.153 229.082C560.186 228.348 559.562 226.275 559.817 225.065C560.666 221.037 567.109 219.582 570.211 217.965C578.524 213.631 586.783 210.575 595.717 207.632C600.118 206.184 604.503 204.638 608.965 203.387C612.695 202.342 616.577 200.574 620.391 200.039C623.783 199.563 626.192 198.227 629.559 197.044C634.519 195.301 639.62 193.87 644.661 192.381C653.276 189.835 662.408 188.765 671.223 187.058C691.645 183.103 712.848 181.123 733.687 181.368C744.193 181.492 755.183 181.185 765.566 182.913C768.07 183.329 773.333 183.249 775.059 185.496C775.986 186.702 775.484 188.497 775.722 189.804C776.124 192.01 777.327 193.038 778.37 195.048C780.587 184.172 783.134 173.527 785.996 162.81C788.584 153.111 790.979 143.236 794.437 133.673C798.096 123.555 802.532 112.827 808.001 103.567C809.127 101.661 811.934 98.6332 812.175 96.5012C812.425 94.3012 809.342 92.5972 807.224 92.3522C802.472 91.8032 797.384 92.7432 792.717 92.9042ZM894.854 248.309C896.401 233.222 900.923 217.441 898.397 202.294C897.328 195.882 896.493 189.761 893.286 183.973C891.664 181.046 891.014 178.896 887.918 180.622C884.784 182.369 881.899 186.684 879.301 189.185C874.526 193.782 869.525 198.516 863.807 201.93C859.303 204.618 850.357 207.166 846.971 201.351C843.745 195.809 848.048 188.075 851.137 183.503C854.672 178.272 861.368 173.427 857.61 166.973C855.993 164.195 853.666 163.467 851.22 161.644C849.103 160.066 847.329 158.022 845.211 156.416C839.075 151.761 832.345 149.767 825.26 147.107C821.989 145.878 821.559 144.722 819.669 147.531C817.617 150.582 816.493 154.858 815.009 158.232C812.037 164.991 808.867 171.395 805.035 177.697C801.168 184.057 797.741 190.701 794.086 197.187C792.707 199.634 791.41 202.121 789.78 204.418C788.892 205.668 787.793 206.782 787.072 208.15C786.005 210.173 786.48 212.017 785.816 214.031C782.95 222.721 778.77 210.59 777.971 207.754C777.063 204.528 774.872 202.013 773.452 199.004C772.279 196.519 771.479 192.826 768.647 191.656C766.327 190.698 763.337 192.013 760.97 192.141C756.62 192.377 752.238 192.025 747.869 192.297C743.784 192.551 739.708 192.943 735.624 193.193C731.536 193.444 727.453 192.753 723.419 193.183C716.18 193.955 708.779 193.831 701.556 194.901C693.08 196.155 684.691 197.493 676.191 198.537C678.166 202.272 682.26 203.892 685.497 206.557C688.39 208.939 690.681 211.688 693.595 213.954C696.552 216.254 698.309 219.656 700.756 222.42C703.154 225.127 705.374 227.397 707.475 230.426C717.614 245.052 728.072 259.138 736.435 274.946C740.668 282.947 744.71 291.507 747.602 300.091C750.704 309.298 752.226 319.172 754.069 328.692C754.987 333.437 755.468 337.442 754.462 342.214C754.198 343.35 753.923 344.484 753.638 345.615C752.756 346.969 753.082 347.847 754.618 348.25C755.516 349.559 756.742 350.05 756.82 351.84C756.88 353.2 756.123 354.776 754.952 355.543C752.691 357.023 752.691 355.024 750.36 355.467C749.486 355.94 748.612 356.412 747.739 356.884C747.278 356.182 746.803 355.488 746.316 354.804C744.83 353.391 743.648 353.52 741.706 353.176C742.693 364.543 741.119 374.692 738.617 385.78C737.413 391.112 735.35 396.331 734.31 401.672C733.149 407.639 735.687 410.357 739.613 414.337C738.617 414.857 736.871 415.422 736.049 416.199C734.741 417.438 735.075 417.59 735.076 419.529C735.078 423.079 734.397 426.578 733.839 430.069C732.807 436.534 731.864 443.224 729.638 449.414C725.595 460.657 719.06 472.333 712.402 482.236C708.676 487.778 704.941 494.074 700.271 498.856C695.584 503.654 690.938 508.496 686.262 513.309C677.059 522.783 667.002 529.328 655.977 536.421C651.611 539.231 647.012 542.309 643.257 545.807C639.441 549.361 634.366 551.849 629.805 554.431C627.77 555.583 626.322 557.238 624.125 558.183C622.061 559.07 620.619 559.36 618.888 560.524C614.593 563.412 609.954 565.881 605.225 568.059C599.457 570.715 593.781 573.805 587.857 576.072C585.158 577.105 582.619 578.231 580.005 579.439C577.176 580.746 574.124 581.604 571.222 582.997C568.77 584.174 566.287 584.858 563.791 585.82C561.753 586.606 560.153 587.878 558.074 588.7C553.757 590.405 549.828 591.323 545.634 593.333C540.061 596.004 533.457 597.25 527.587 599.172C521.033 601.319 514.234 603.455 507.508 604.977C504.646 605.625 502.208 606.472 499.444 607.453C497.643 608.092 495.578 608.442 493.583 609.049C488.07 610.73 482.56 612.35 477.018 613.779C466.19 616.572 455.128 619.925 444.627 623.716C439.121 625.704 433.536 628.096 428.254 630.627C422.283 633.487 415.849 635.138 409.856 637.97C398.279 643.439 386.741 649.069 375.298 654.811C369.289 657.827 363.364 660.934 357.497 664.214C355.368 665.404 353.04 665.895 350.925 667.062C348.159 668.589 345.889 670.83 343.056 672.343C332.136 678.175 320.991 683.669 310.961 691.048C305.712 694.91 300.072 698.865 295.536 703.567C294.039 705.118 291.445 707.52 291.174 709.771C290.775 713.101 291.149 710.037 292.302 712.091C293.899 712.285 294.26 712.899 293.389 713.931C292.987 714.415 292.472 714.662 291.845 714.672C289.828 715.08 286.055 712.943 284.434 712.049C281.625 710.501 280.134 708.544 278.33 705.945C274.412 700.307 270.589 694.618 266.554 689.059C262.925 684.06 259.373 678.556 255.244 673.965C252.444 670.853 252.234 672.212 249.12 673.967C246.803 675.272 244.112 675.829 241.711 677.058C232.562 681.745 222.505 685.206 213.121 688.472C210.984 689.216 209.845 690.396 207.967 691.423C205.575 692.732 202.545 693.372 199.987 694.302C192.94 696.864 185.928 699.524 178.931 702.22C173.529 704.303 168.338 705.944 164.109 709.787C162.426 711.317 160.389 712.413 158.651 713.96C156.627 715.759 153.89 718.687 151.342 719.705L149.79 720.917C148.74 720.187 147.689 719.458 146.636 718.731C145.592 718.008 144.547 717.288 143.505 716.563C140.888 714.744 138.29 712.899 135.689 711.057C129.79 706.876 123.853 702.736 118.366 698.016C108.619 689.635 98.5047 681.703 88.3127 673.853C77.6157 665.614 67.1867 656.992 56.1227 649.248C46.0947 642.229 35.1537 636.301 25.4307 628.893C20.5367 625.164 15.6547 621.411 10.6577 617.799C10.3857 617.603 6.31969 615.108 6.27889 614.831C6.20969 614.321 7.54769 612.99 7.94269 612.562C9.81269 610.529 11.8847 608.719 13.7477 606.664C22.4307 597.089 33.7677 597.423 45.7507 596.971C51.1847 596.766 57.0777 599.272 62.2387 600.978C68.5497 603.064 74.6377 606.126 80.7337 608.77C93.2967 614.219 106.263 618.875 118.953 623.922C123.943 625.906 128.914 626.874 133.987 628.238C139.134 629.623 144.436 628.303 149.941 628.402C152.798 628.453 155.499 628.62 158.376 628.458C160.084 628.362 162.052 628.038 163.739 628.067C165.106 628.091 166.525 628.655 167.783 628.512C173.29 627.888 179.107 627.013 184.787 626.297C190.426 625.586 196.245 625.233 201.81 624.12C204.612 623.56 207.377 622.768 210.073 621.818C212.413 620.993 216.667 620.056 218.587 618.385C220.305 616.89 219.554 616.87 218.596 614.431C218.217 613.467 217.825 612.005 217.263 611.076C215.744 608.566 214.276 607.777 215.16 604.636C216.717 599.1 222.024 595.566 226.567 592.839C236.801 586.699 246.161 578.823 256.937 573.614C279.141 562.882 299.377 548.941 321.031 537.155C344.833 524.2 367.349 508.998 391.482 496.59C413.946 485.041 436.307 473.424 458.957 462.238C470.017 456.778 482.526 451.781 492.561 444.622C487.001 443.932 481.425 443.041 475.846 442.547C473.258 442.318 470.639 442.53 468.066 442.119C465.188 441.659 462.467 440.495 459.595 440.011C454.656 439.177 450.215 437.484 445.272 436.86C439.972 436.19 434.781 434.632 429.456 434.196C418.317 433.283 408.264 429.175 398.499 423.998C396.082 422.716 394.096 423.449 391.78 422.577C390.504 422.098 389.149 420.182 387.716 419.153C383.769 416.319 380.381 412.973 376.63 409.877C368.744 427.575 353.259 439.612 338.482 451.484C330.997 457.496 322.873 462.593 315.311 468.492C309.449 473.066 304.125 477.16 297.867 480.797C291.858 484.287 286.213 489.001 280.484 493.194C276.601 496.036 272.05 498.181 267.921 500.649C264.547 502.665 257.96 505.672 257.04 509.329C256.287 512.317 257.756 515.873 253.196 514.499C249.113 513.27 246.153 508.737 243.775 505.544C237.625 497.282 231.888 488.74 226.178 480.174C223.111 486.16 217.821 490.471 212.931 494.909C209.96 497.606 206.876 500.108 203.667 502.515C202.111 503.683 200.537 504.828 198.978 505.993C198.364 506.453 196.972 507.16 196.574 507.808C195.644 509.324 196.209 508.637 196.354 510.47C196.58 513.341 197.538 515.6 195.913 518.351C194.387 520.934 191.06 522.037 188.728 523.801C183.18 528 177.346 532.463 171.191 535.742C169.794 536.486 168.473 537.131 167.172 538.042C165 539.561 165.397 540.112 163.208 538.656C159.785 536.377 156.828 532.594 153.739 529.846C147.267 524.088 140.723 518.403 134.095 512.826C121.464 502.196 108.46 492.095 95.9857 481.275C84.1317 470.993 71.4237 462.142 59.1857 452.367C55.8287 449.686 52.5127 446.95 49.1997 444.214C46.2497 441.779 41.4627 439.095 39.2807 435.979C36.1117 431.453 48.5077 425.268 52.2477 424.347C58.6967 422.76 67.0357 423.668 73.4947 424.969C80.2747 426.334 87.1787 430.9 93.5097 433.744C100.646 436.949 107.914 439.72 115.103 442.746C118.309 444.095 121.708 445.172 124.684 446.99C127.842 448.919 130.661 451.118 134.019 452.736C137.889 454.598 141.91 456.336 145.98 457.714C147.824 458.338 149.809 458.965 151.747 459.217C154.491 459.574 154.119 458.31 156.398 457.604C158.335 457.004 158.795 458.589 160.537 459.03C162.177 459.446 163.403 459.025 164.823 458.143C167.989 456.178 170.807 453.468 173.974 451.422C176.912 449.523 180.151 447.749 182.905 445.599C184.133 444.641 185.041 443.328 186.251 442.355C188.19 440.795 188.959 441.414 191.223 440.34C193.074 439.461 194.753 437.825 196.514 436.741C197.607 436.068 200.258 435.218 200.963 434.129C202.815 431.27 199.654 429.284 196.823 430.127C196.399 427.658 194.222 421.796 195.162 419.481C195.994 417.433 198.178 417.816 200.015 416.732C206.919 412.656 212.014 405.25 218.473 400.461C224.562 395.946 229.934 390.556 235.966 385.958C241.133 382.019 246.78 378.173 251.485 373.925C257.048 368.903 264.17 364.996 270.218 360.513C276.466 355.883 282.272 350.731 288.453 346.048C294.4 341.543 300.241 336.837 306.352 332.548C311.844 328.693 317.601 325.173 322.979 321.265C325.925 319.125 329.146 317.245 332.509 315.84C335.853 314.442 338.778 312.803 342.043 311.298C348.532 308.307 356.982 306.24 364.038 305.383C371.796 304.441 379.586 303.596 387.418 303.589C391.59 303.586 395.642 304.38 399.789 304.632C403.599 304.862 407.719 305.826 411.502 305.699C413.215 305.642 414.704 304.917 416.363 305.151C417.748 305.346 418.953 306.182 420.439 306.328C423.748 306.654 427.075 306.329 430.421 306.757C438.108 307.739 445.805 309.139 453.508 309.919C461.715 310.75 469.851 310.907 478.015 312.307C485.993 313.674 494.021 315.091 501.953 316.672C518.81 320.032 535.843 323.313 552.433 328.302C556.311 329.468 560.212 330.577 563.94 332.176C565.749 332.951 567.487 333.891 569.374 334.471C572.076 335.301 572.608 335.616 574 333.349C576.396 329.447 577.716 324.286 579.455 320.041C581.174 315.84 583.262 311.606 584.259 307.219C581.36 306.76 577.703 307.652 574.712 307.754C571.055 307.88 567.438 307.801 563.785 307.779C556.422 307.735 550.665 305.56 543.698 303.277C537.826 301.352 530.008 300.248 525.529 295.84C523.127 293.477 522.328 293.061 518.718 293.485C515.076 293.912 511.479 294.648 507.802 294.77C493.944 295.23 480.149 297.648 466.228 298.126C462.462 298.255 453.043 300.04 453.66 293.653C453.788 292.327 454.804 291.177 455.002 289.812C455.214 288.349 454.848 286.864 454.619 285.434C454.074 282.051 453.505 278.67 452.962 275.286C440.268 279.36 427.414 282.661 414.478 285.888C409.114 287.226 400.496 290.303 394.953 288.616C389.594 286.985 392.698 279.435 394.367 275.821C383.72 278.251 372.364 282.225 361.507 283.137C358.204 283.415 354.989 284.146 354.22 280.153C353.608 276.971 355.906 273.08 357.078 270.285C348.746 269.541 340.118 269.612 341.686 258.932C343.123 249.133 351.263 247.182 359.93 245.392C370.627 243.181 381.552 242.444 392.319 240.655C401.687 239.098 411.908 237.362 421.475 238.148C426.54 238.563 431.635 238.658 436.698 239.127C439.087 239.348 441.384 239.718 443.696 240.37C445.829 240.97 448.812 242.831 450.998 242.864C454.298 242.916 458.276 238.454 461.825 237.423C466.221 236.145 470.958 235.913 475.5 235.6C480.648 235.247 485.804 235.05 490.948 234.633C492.121 234.538 496.554 234.828 497.48 234.141C498.828 233.14 497.931 228.006 497.837 225.897C497.749 223.946 498.125 220.292 496.773 219.527C495.503 218.809 491.801 219.794 490.551 219.994C485.37 220.824 480.447 220.729 475.285 220.518C472.901 220.421 470.611 221.056 468.25 220.743C465.717 220.408 463.167 219.556 460.644 219.082C455.179 218.055 450.2 216.777 445.491 213.715C441.357 211.028 436.465 209.209 434.155 204.503C432.463 201.057 431.775 194.407 436.75 193.427C433.362 188.54 431.024 183.05 429.228 177.403C428.902 176.379 428.686 174.837 428.199 173.944C426.479 170.786 428.075 173.587 425.621 172.324C423.196 171.077 421.448 170.09 419.553 167.921C416.532 164.462 415.26 160.205 414.878 155.698C414.36 149.577 413.392 142.675 414.286 136.585C415.833 126.036 423.543 118.11 431.377 111.73C435.63 108.266 441.229 106.976 446.217 104.874C451.032 102.844 456.411 100.716 461.484 100.24C466.063 99.8102 470.527 98.3152 475.111 97.7122C481.411 96.8822 487.718 97.1922 494.049 96.9402C496.963 96.8242 499.87 96.4132 502.771 96.1002C504.409 95.9232 507.179 96.1122 508.679 95.4632C511.134 94.3992 509.808 96.6332 510.685 93.3792C512.353 87.1892 513.715 81.3842 516.242 75.3692C518.596 69.7652 521.455 64.4072 525.234 59.6162C528.778 55.1222 533.374 51.8352 537.549 47.9962C540.643 45.1522 544.152 42.5832 547.681 40.2832C549.699 38.9682 551.947 38.2572 553.918 37.0962C556.366 35.6562 558.526 34.5642 561.28 33.6822C567.19 31.7902 573.055 29.7812 579.332 29.8802C586.099 29.9862 592.883 28.4112 599.471 30.4082C611.704 34.1172 617.698 47.3752 617.493 59.5502C621.677 58.5062 625.334 56.4962 629.766 56.3242C633.848 56.1662 638.698 56.5202 642.708 57.2782C650.49 58.7492 658.494 63.0752 663.134 69.6312C667.56 75.8842 668.222 84.1862 665.502 91.2802C664.2 94.6762 662.135 97.6972 659.935 100.566C658.323 102.67 654.725 104.999 654.555 107.818C684.676 98.7132 714.92 92.2952 746.079 88.1412C761.874 86.0362 777.695 87.0902 793.506 85.8872C800.26 85.3732 807.6 86.0922 814.582 86.1192C817.53 86.1312 819.824 85.7212 821.961 83.8132C824.125 81.8832 825.854 79.5192 828.376 82.3052C829.02 83.0162 829.155 84.7362 830.021 85.2712C831.071 85.9192 834.124 85.4742 835.38 85.5512C839.771 85.8192 844.056 86.5642 848.367 87.4222C856.277 88.9972 864.136 90.5892 871.952 92.5882C886.834 96.3952 901.519 100.077 916.186 104.596C931.152 109.207 946.276 114.896 960.075 122.36C966.759 125.975 973.435 130.488 979.58 134.96C982.437 137.04 984.998 139.29 987.482 141.798C990.139 144.479 993.388 146.288 996.019 148.989C1001.74 154.864 1007.44 161.096 1012.63 167.461C1015.34 170.784 1017.83 174.289 1020.24 177.831C1021.94 180.316 1026.4 184.866 1025.37 188.076C1024.83 189.79 1022.91 190.989 1021.16 190.569C1020.57 190.429 1020.09 189.669 1019.59 189.597C1017.89 189.357 1019.43 188.761 1017.46 189.562C1013.53 191.155 1012.28 194.35 1007.29 193.623C998.813 192.386 990.838 188.382 983.127 184.891C980.925 193.311 980.613 202.04 978.685 210.561C976.805 218.874 973.67 226.802 969.885 234.427C966.565 241.117 962.302 248.247 956.425 253.028C951.941 256.676 940.874 261.208 937.58 253.441C936.181 250.142 938.262 245.016 938.851 241.621C939.642 237.065 940.514 232.496 940.99 227.894C941.376 224.155 941.571 220.394 941.931 216.651C942.242 213.431 943.102 206.518 941.291 203.674C940.2 201.96 940.105 203.642 939.47 205.353C938.7 207.428 938.06 209.486 937.497 211.623C936.299 216.164 935.219 220.736 934.086 225.293C932.062 233.435 929.833 241.399 925.615 248.72C921.869 255.221 916.597 262.353 908.585 263.418C904.834 263.916 899.944 262.201 897.081 259.674C893.868 256.839 894.828 252.163 894.854 248.309Z" fill="black"/>
<path fill-rule="evenodd" clip-rule="evenodd" d="M711.906 580.789C716.309 579.92 720.015 576.406 723.611 573.766C728.197 570.399 732.548 566.73 737.001 563.193C745.392 556.528 753.006 549.218 760.246 541.268C774.531 525.584 785.285 505.395 790.174 484.768C792.647 474.331 795.706 462.102 794.302 451.316C793.814 447.569 793.07 446.882 789.396 446.456C787.737 446.264 783.526 445.787 782.032 446.439C778.16 448.131 776.07 455.33 774.922 458.948C771.53 469.63 769.534 480.693 766.469 491.463C763.465 502.019 758.623 512.73 753.835 522.601C743.181 544.565 728.373 562.94 711.906 580.789ZM799.249 459.526C796.616 489.435 788.312 517.931 769.693 542.017C760.843 553.466 750.435 563.427 739.154 572.475C727.506 581.818 715.61 590.617 702.393 597.585C698.876 599.44 695.354 601.288 691.793 603.057C689.819 604.038 684.836 607.65 682.559 607.079C680.735 606.62 680.259 605.209 679.974 603.373C679.336 599.252 682.013 597.195 684.72 594.549C695.595 583.917 706.504 573.247 716.672 561.937C736.753 539.601 751.838 512.854 760.223 483.994C762.806 475.108 765.111 466.123 767.899 457.3C769.597 451.925 772.005 442.357 777.649 439.677C780.675 438.24 784.202 439.638 787.384 438.777C790.369 437.969 792.347 436.321 794.891 439.085C799.355 443.935 799.554 453.448 799.249 459.526Z" fill="black"/>
<path fill-rule="evenodd" clip-rule="evenodd" d="M3.71008 632.098C1.48108 632.888 1.38808 633.671 0.367084 631.378C-0.146916 630.222 -0.0079163 628.639 0.113084 627.438C0.403084 624.562 1.91708 621.905 3.16108 619.355C14.8691 629.013 27.0261 637.717 39.5801 646.25C53.0061 655.375 65.8251 665.521 78.5231 675.629C89.8941 684.682 101.402 693.467 112.654 702.633C118.081 707.054 124.268 710.48 129.427 715.036C133.596 718.718 140.51 720.368 144.064 724.699C138.432 728.065 130.913 730.775 124.672 727.863C117.787 724.651 112.506 720.464 106.379 716.111C103.222 713.868 99.9391 711.832 96.7321 709.662C93.9131 707.753 91.9221 704.967 89.0681 703.177C83.0701 699.414 76.9171 695.268 71.2261 690.971C65.3801 686.558 58.9181 683.047 53.2781 678.357C47.4961 673.548 41.0241 670.362 34.9871 665.984C22.1931 656.707 10.9271 646.272 3.71008 632.098Z" fill="black"/>
<path fill-rule="evenodd" clip-rule="evenodd" d="M348.893 139.473C348.734 140.327 348.575 141.181 348.416 142.036C348.513 142.058 356.169 127.268 357.437 125.482C361.739 119.427 367.337 114.389 372.734 109.332C384.166 98.62 397.546 89.974 408.749 79.071C412.435 75.484 419.039 70.049 417.581 63.984C416.132 57.956 403.9 59.181 399.711 60.925C393.144 63.66 387.81 69.38 382.916 74.364C377.578 79.801 372.197 85.177 367.673 91.33C362.795 97.965 358.164 105.151 355.175 112.851C351.826 121.477 350.518 130.404 348.893 139.473ZM351.407 165.937C346.212 167.539 352.725 168.621 350.69 171.397C348.458 174.441 344.706 165.062 344.145 163.291C340.838 152.828 342.317 140.117 344.123 129.494C345.035 124.135 345.624 118.688 346.854 113.387C348.054 108.218 350.667 103.306 353.081 98.604C357.914 89.196 364.314 80.431 371.577 72.76C378.862 65.064 386.982 57.364 396.595 52.626C404.538 48.713 417.128 51.428 420.846 59.975C424.645 68.709 419.507 78.223 413.431 84.364C405.505 92.373 396.869 100.328 387.966 107.234C383.391 110.784 379.556 115.077 375.111 118.781C370.38 122.724 366.287 126.69 362.789 131.789C359.401 136.73 355.914 141.667 353.712 147.276C351.301 153.418 351.407 159.439 351.407 165.937Z" fill="black"/>
<path fill-rule="evenodd" clip-rule="evenodd" d="M143.61 542.58C131.672 534.893 119.694 528.144 109.298 518.341C99.0345 508.662 90.0665 497.747 78.6425 489.349C72.9425 485.159 67.0595 481.226 61.4605 476.899C56.1465 472.792 50.0385 469.274 45.2355 464.59C38.8335 458.344 26.8475 446.739 35.0265 437.427C45.1785 449.501 59.1075 459.018 71.8065 468.184C85.1965 477.849 97.4865 489.124 110.187 499.654C122.422 509.797 134.616 520.035 146.555 530.447C149.69 533.182 152.714 536.054 155.886 538.745C156.274 539.074 159.562 541.157 159.562 541.711C159.562 543.041 157.014 543.871 156.106 544.241C154.673 544.825 150.797 546.277 149.172 545.786C148.32 545.528 148.305 544.834 147.691 544.422C147.338 543.756 146.926 543.129 146.458 542.539C145.508 542.554 144.559 542.568 143.61 542.58Z" fill="black"/>
<path fill-rule="evenodd" clip-rule="evenodd" d="M846.393 408.553C837.883 408.334 824.929 408.309 825.406 419.93C825.642 425.684 828.762 429.91 831.325 434.832C834.016 440.004 836.011 445.347 836.801 451.145C839.996 474.612 831.424 497.538 823.671 519.232C840.322 505.793 852.347 487.093 858.661 466.596C861.722 456.656 862.913 443.88 861.924 433.53C861.429 428.351 859.519 423.708 857.219 419.094C856.064 416.776 854.909 414.129 853.067 412.253C851.222 410.373 848.664 409.747 846.393 408.553ZM816.707 532.673C811.209 523.632 819.865 510.32 822.695 501.504C826.079 490.964 829.201 479.99 830.647 468.997C832.162 457.482 830.206 448.529 824.869 438.358C820.096 429.265 817.263 417.155 822.569 407.534C824.706 403.662 827.861 403.186 831.612 401.641C836.216 399.746 837.484 396.54 843.134 397.048C853.215 397.953 857.879 407.514 861.629 415.66C870.373 434.65 867.996 459.157 860.539 478.226C856.247 489.198 851.352 500.591 844.065 509.934C840.492 514.515 836.292 518.486 831.934 522.308C827.219 526.441 822.995 531.423 816.707 532.673Z" fill="black"/>
<path fill-rule="evenodd" clip-rule="evenodd" d="M241.03 202.973C227.74 205.644 215.612 211.634 213.483 226.57C211.548 240.144 220.794 252.702 232.148 259.056C244.428 265.93 259.815 267.072 272.051 259.454C284.932 251.434 287.854 235.362 280.014 222.753C271.266 208.682 256.611 204.529 241.03 202.973ZM249.571 196.461C265.397 198.78 280.088 210.043 285.419 225.212C290.915 240.849 285.865 258.041 271.315 266.609C241.91 283.926 202.609 255.067 209.706 221.897C211.508 213.475 216.625 206.953 223.577 202.022C231.252 196.577 240.533 196.429 249.571 196.461Z" fill="black"/>
<path fill-rule="evenodd" clip-rule="evenodd" d="M812.253 37.6649C793.184 29.0429 774.114 20.4209 755.045 11.7989C754.263 20.4429 753.481 29.0859 752.698 37.7299C752.486 40.0689 751.62 43.2509 751.989 45.5589C752.384 48.0219 751.541 47.7589 754.752 47.4089C758.858 46.9599 762.978 45.9459 767.042 45.2209C774.348 43.9169 782.118 43.5449 789.269 41.6269C792.918 40.6479 796.413 40.5249 800.117 39.9329C804.185 39.2829 808.144 38.0789 812.253 37.6649ZM747.747 54.3749C747.747 44.6379 748.829 35.0319 749.72 25.3399C750.522 16.6199 750.831 8.30788 753.677 -0.00012207C756.336 4.82888 763.699 6.75888 768.255 9.24388C774.533 12.6679 781.219 15.1889 787.645 18.3079C793.957 21.3709 800.037 24.8879 806.356 27.9439C809.56 29.4939 812.813 30.9399 816.011 32.5019C818.013 33.4799 822.761 35.0539 824.006 36.8699C827.787 42.3819 814.846 42.9149 812.348 43.4009C804.857 44.8619 797.279 45.6849 789.802 47.1869C782.831 48.5889 775.847 49.8899 768.851 51.1609C761.927 52.4189 754.793 54.3749 747.747 54.3749Z" fill="black"/>
<path fill-rule="evenodd" clip-rule="evenodd" d="M159.766 295.424C167.274 294.643 174.751 293.519 182.251 292.777C189.353 292.074 195.635 291.326 202.123 288.072C193.262 285.4 184.381 282.87 175.445 280.456C171.013 279.259 166.59 277.992 162.138 276.874C158.694 276.008 155.692 275.51 154.368 271.751C152.827 267.375 157.112 268.038 159.783 269.15C163.467 270.683 167.48 271.636 171.298 272.911C179.82 275.756 188.394 278.373 196.996 280.96C199.67 281.764 215.164 284.738 209.581 289.907C207.192 292.12 201.861 293.335 198.94 294.924C195.193 296.962 191.114 297.774 186.946 298.585C178.259 300.275 169.244 300.924 160.45 302.39C155.959 303.139 151.469 303.888 146.979 304.637C144.348 305.075 143.335 305.032 142.648 302.098C142.148 299.966 142.8 297.833 143.28 295.768C144.498 290.521 145.853 285.301 147.194 280.085C147.704 278.095 148.607 269.347 150.382 268.39C154.409 266.219 151.302 278.33 151.003 279.813C149.873 285.407 148.531 290.962 147.927 296.639C151.882 296.281 155.826 295.91 159.766 295.424Z" fill="black"/>
<path fill-rule="evenodd" clip-rule="evenodd" d="M266.224 339.96C267.714 343.701 265.24 344.538 262.238 345.834C258.344 347.515 254.514 349.289 250.549 350.803C242.208 353.986 233.807 356.942 225.665 360.625C210.136 367.648 194.397 374.392 179.109 381.912C175.31 383.781 171.508 385.643 167.675 387.443C163.711 389.305 159.165 392.438 154.924 393.502C151.225 394.43 150.839 391.796 153.031 389.37C155.857 386.241 160.226 383.905 163.775 381.73C178.381 372.777 194.322 365.489 210.275 359.33C228.714 352.21 247.203 345.379 266.224 339.96Z" fill="black"/>
<path fill-rule="evenodd" clip-rule="evenodd" d="M306.769 127.733C306.235 116.359 307.756 104.954 306.849 93.6098C291.253 107.436 298.937 128.803 307.909 143.805L306.769 127.733ZM313.52 127.083C313.619 132.639 313.934 138.192 313.394 143.72C312.827 149.523 315.549 152.512 319.097 156.786C316.084 159.844 309.17 152.714 307.261 150.612C303.33 146.284 300.405 140.534 297.802 135.337C292.258 124.266 288.44 112.413 292.877 100.258C294.522 95.7528 296.534 89.6278 300.889 87.0048C305.671 84.1248 309.329 88.1868 311.313 92.3648C316.157 102.559 312.464 116.141 313.52 127.083Z" fill="black"/>
<path fill-rule="evenodd" clip-rule="evenodd" d="M478.74 692.462C485.931 693.032 493.015 693.593 500.207 694.049C498.966 684.191 497.724 674.332 496.483 664.473C492.322 665.437 488.161 666.4 484 667.362C482.033 667.817 479.016 667.937 477.275 668.919C476.624 669.069 475.972 669.22 475.322 669.371C475.304 670.65 475.29 671.93 475.278 673.21C475.229 676.996 475.12 680.778 474.963 684.561C474.897 686.146 474.344 688.467 474.723 690.037C474.05 691.625 474.478 692.3 476.011 692.062C476.921 692.195 477.83 692.329 478.74 692.462ZM473.789 699.589C468.152 696.782 469.693 688.206 469.702 682.747C469.709 679.274 469.954 675.824 470.045 672.356C470.108 669.972 469.563 667.022 470.383 664.719C471.842 660.622 478.981 660.733 482.652 661.02C485.374 661.232 487.652 661.095 490.442 660.916C491.817 660.828 493.351 661.09 494.702 660.684C494.994 660.596 497.743 658.679 497.621 658.674C502.552 658.863 502.618 670.686 502.938 673.686C503.729 681.081 504.445 688.489 505.089 695.899C505.26 697.86 505.989 700.077 504.126 701.196C502.446 702.206 497.993 701.208 496.135 701.151C488.645 700.925 481.197 699.757 473.789 699.589Z" fill="black"/>
<path fill-rule="evenodd" clip-rule="evenodd" d="M825.672 260.274C828.931 263.207 827.365 266.233 826.298 269.897C825.656 272.096 822.13 279.316 823.103 281.373C824.228 283.751 829.51 284.336 831.769 285.087C835.703 286.395 839.655 287.709 843.378 289.553C845.03 290.372 850.989 292.254 852.106 293.782C852.746 294.658 852.979 295.344 852.498 296.473C851.653 298.455 850.448 297.406 848.389 296.981C838.98 295.037 829.651 292.551 820.925 288.451C818.492 294.098 816.432 299.865 814.374 305.659C813.771 307.357 813.195 311.215 810.904 311.49C808.11 311.824 808.072 308.082 808.258 306.063C808.528 303.115 810.056 299.972 810.978 297.181C811.739 294.877 814.408 290.08 814.079 287.706C813.854 286.072 812.858 286.186 811.083 285.544C809.406 284.938 807.728 284.335 806.052 283.722C803.365 282.739 800.689 281.753 798.074 280.587C796.639 279.947 793.636 279.199 792.597 277.871C791.994 277.101 791.322 274.326 792.083 273.558C793.862 271.759 805.694 276.601 808.127 277.262C809.741 277.701 811.363 278.036 812.929 278.611C813.522 278.83 814.224 279.718 814.865 279.751C817.587 279.889 817.803 277.796 818.647 275.551C820.608 270.334 822.737 265.012 825.672 260.274Z" fill="black"/>
<path fill-rule="evenodd" clip-rule="evenodd" d="M147.291 364.069C145.84 360.512 161.241 356.215 164.1 355.017C171.078 352.096 178.554 350.329 185.779 348.098C192.884 345.904 199.958 343.542 206.946 341.003C209.107 340.217 224.669 332.64 225.483 333.748C228.18 337.414 195.524 348.93 192.342 350.076C177.566 355.396 162.309 359.481 147.291 364.069Z" fill="black"/>
<path fill-rule="evenodd" clip-rule="evenodd" d="M809.689 85.9032C805.697 85.9432 799.939 87.0752 796.276 85.4552C800.747 85.6042 805.218 85.7542 809.689 85.9032Z" fill="black"/>
<path fill-rule="evenodd" clip-rule="evenodd" d="M249.571 196.461L240.694 196.429C243.656 195.742 246.616 195.327 249.571 196.461Z" fill="black"/>
<path fill-rule="evenodd" clip-rule="evenodd" d="M711.845 194.09C713.938 194.079 716.032 194.068 718.111 194.056C716.013 194.068 713.929 194.079 711.845 194.09Z" fill="black"/>
<path fill-rule="evenodd" clip-rule="evenodd" d="M894.854 248.309C894.838 250.548 894.824 252.787 894.805 255.017C894.819 252.775 894.836 250.542 894.854 248.309Z" fill="black"/>
<path fill-rule="evenodd" clip-rule="evenodd" d="M482.652 661.02C480.429 661.181 478.206 661.341 475.985 661.501C478.209 661.341 480.43 661.18 482.652 661.02Z" fill="black"/>
<path fill-rule="evenodd" clip-rule="evenodd" d="M495.18 234.289C492.922 234.472 490.664 234.656 488.409 234.839C490.666 234.655 492.923 234.472 495.18 234.289Z" fill="black"/>
<path fill-rule="evenodd" clip-rule="evenodd" d="M728.806 193.353C730.404 193.35 732.001 193.347 733.586 193.344C731.984 193.348 730.395 193.351 728.806 193.353Z" fill="black"/>
<path fill-rule="evenodd" clip-rule="evenodd" d="M407.347 238.658C405.362 238.837 403.375 239.016 401.391 239.195C403.376 239.016 405.362 238.837 407.347 238.658Z" fill="black"/>
<path fill-rule="evenodd" clip-rule="evenodd" d="M495.042 96.934C493.056 96.946 491.07 96.958 489.085 96.97C491.065 95.92 493.052 96.191 495.042 96.934Z" fill="black"/>
<path fill-rule="evenodd" clip-rule="evenodd" d="M132.572 440.383C130.92 440.295 129.574 441.097 128.642 439.521C130.167 438.332 131.047 439.702 132.572 440.383Z" fill="black"/>
<path fill-rule="evenodd" clip-rule="evenodd" d="M438.957 307.769L433.801 307.189L438.957 307.769Z" fill="black"/>
<path fill-rule="evenodd" clip-rule="evenodd" d="M473.789 699.59C474.928 699.616 476.066 699.641 477.192 699.667C476.049 699.64 474.919 699.615 473.789 699.59Z" fill="black"/>
<path fill-rule="evenodd" clip-rule="evenodd" d="M738.367 89.1449C736.593 89.3039 734.817 89.4629 733.043 89.6219C734.818 89.4619 736.593 89.3039 738.367 89.1449Z" fill="black"/>
<path fill-rule="evenodd" clip-rule="evenodd" d="M175.869 627.586C174.164 627.593 172.46 627.601 170.756 627.607C172.461 627.6 174.165 627.593 175.869 627.586Z" fill="black"/>
<path fill-rule="evenodd" clip-rule="evenodd" d="M38.8293 597.365C37.1083 597.368 35.3883 597.371 33.6683 597.374C35.3893 597.371 37.1083 597.368 38.8293 597.365Z" fill="black"/>
<path fill-rule="evenodd" clip-rule="evenodd" d="M473.655 235.709C471.908 235.881 470.161 236.052 468.414 236.224C470.162 236.052 471.908 235.881 473.655 235.709Z" fill="black"/>
<path fill-rule="evenodd" clip-rule="evenodd" d="M424.911 238.544C423.192 238.346 421.474 238.148 419.756 237.95C421.459 238.283 423.351 236.968 424.911 238.544Z" fill="black"/>
<path fill-rule="evenodd" clip-rule="evenodd" d="M580.584 307.541C581.654 307.42 583.156 307.045 584.259 307.22C584.115 307.85 580.995 307.539 580.584 307.541Z" fill="black"/>
<path fill-rule="evenodd" clip-rule="evenodd" d="M471.55 442.378C472.703 442.4 473.857 442.422 474.998 442.441C473.841 442.42 472.696 442.399 471.55 442.378Z" fill="black"/>
<path fill-rule="evenodd" clip-rule="evenodd" d="M367.404 305.057C365.72 305.22 364.037 305.383 362.353 305.545C364.038 305.382 365.72 305.22 367.404 305.057Z" fill="black"/>
<path fill-rule="evenodd" clip-rule="evenodd" d="M178.869 299.318C179.787 299.343 180.705 299.368 181.611 299.393C180.689 299.368 179.779 299.343 178.869 299.318Z" fill="black"/>
<path fill-rule="evenodd" clip-rule="evenodd" d="M427.04 306.325C425.6 306.296 424.159 306.267 422.72 306.239C424.16 306.267 425.6 306.296 427.04 306.325Z" fill="black"/>
<path fill-rule="evenodd" clip-rule="evenodd" d="M159.766 295.424C158.31 295.604 156.854 295.783 155.4 295.962C156.857 295.782 158.311 295.603 159.766 295.424Z" fill="black"/>
<path fill-rule="evenodd" clip-rule="evenodd" d="M359.491 283.055C360.39 283.091 361.289 283.127 362.177 283.166C361.273 283.132 360.382 283.094 359.491 283.055Z" fill="black"/>
<path fill-rule="evenodd" clip-rule="evenodd" d="M428.089 434.285C429.002 434.225 429.914 434.166 430.815 434.105C429.899 434.164 428.994 434.225 428.089 434.285Z" fill="black"/>
<path fill-rule="evenodd" clip-rule="evenodd" d="M497.931 315.864C496.463 315.681 494.994 315.498 493.528 315.315C494.995 315.498 496.463 315.681 497.931 315.864Z" fill="black"/>
<path fill-rule="evenodd" clip-rule="evenodd" d="M143.61 542.581C144.563 542.568 145.516 542.555 146.458 542.539C145.502 542.552 144.555 542.567 143.61 542.581Z" fill="black"/>
<path fill-rule="evenodd" clip-rule="evenodd" d="M65.3644 424.161C63.8464 424.008 62.3284 423.854 60.8094 423.701C62.3274 423.854 63.8454 424.008 65.3644 424.161Z" fill="black"/>
<path fill-rule="evenodd" clip-rule="evenodd" d="M32.9738 597.573C31.4818 597.745 29.9898 597.918 28.4968 598.09C29.9908 597.917 31.4818 597.745 32.9738 597.573Z" fill="black"/>
<path fill-rule="evenodd" clip-rule="evenodd" d="M846.317 193.848C846.2 195.138 846.083 196.428 845.963 197.713C846.08 196.421 846.198 195.135 846.317 193.848Z" fill="black"/>
<path fill-rule="evenodd" clip-rule="evenodd" d="M184.786 626.297C183.285 626.469 181.784 626.642 180.284 626.814C181.785 626.641 183.286 626.469 184.786 626.297Z" fill="black"/>
<path fill-rule="evenodd" clip-rule="evenodd" d="M170.06 627.785C168.541 628.846 167.023 628.906 165.503 627.789C167.022 627.787 168.541 627.786 170.06 627.785Z" fill="black"/>
<path fill-rule="evenodd" clip-rule="evenodd" d="M141.26 629.054C139.787 629.055 138.315 629.056 136.843 629.057C138.316 629.056 139.788 629.055 141.26 629.054Z" fill="black"/>
<path fill-rule="evenodd" clip-rule="evenodd" d="M313.52 127.083C313.394 125.776 313.268 124.47 313.142 123.168C313.268 124.477 313.394 125.78 313.52 127.083Z" fill="black"/>
<path fill-rule="evenodd" clip-rule="evenodd" d="M474.377 97.8983C472.897 98.0813 471.417 98.2633 469.938 98.4453C471.418 98.2633 472.898 98.0813 474.377 97.8983Z" fill="black"/>
<path fill-rule="evenodd" clip-rule="evenodd" d="M479.622 97.206C478.118 97.374 476.613 97.543 475.11 97.712C476.614 97.543 478.118 97.374 479.622 97.206Z" fill="black"/>
<path fill-rule="evenodd" clip-rule="evenodd" d="M246.023 271.361C246.949 271.347 247.875 271.333 248.788 271.319C247.858 271.333 246.941 271.347 246.023 271.361Z" fill="black"/>
<path fill-rule="evenodd" clip-rule="evenodd" d="M380.02 256.887C384.932 256.077 389.843 255.807 394.753 256.884L380.02 256.887Z" fill="black"/>
<path fill-rule="evenodd" clip-rule="evenodd" d="M511.007 201.64C512.029 198.97 512.283 197.968 514.779 196.586C513.74 199.181 513.577 200.569 511.007 201.64Z" fill="black"/>
<path fill-rule="evenodd" clip-rule="evenodd" d="M630.774 465.879C630.873 468.655 630.971 471.431 631.069 474.204C630.97 471.427 630.872 468.653 630.774 465.879Z" fill="black"/>
<path fill-rule="evenodd" clip-rule="evenodd" d="M808.885 92.3148C806.663 92.3648 804.442 92.4158 802.23 92.4658C804.455 92.4158 806.67 92.3648 808.885 92.3148Z" fill="black"/>
<path fill-rule="evenodd" clip-rule="evenodd" d="M512.908 515.218C512.986 517.532 513.063 519.847 513.14 522.159C513.062 519.843 512.985 517.531 512.908 515.218Z" fill="black"/>
<path fill-rule="evenodd" clip-rule="evenodd" d="M240.648 441.074C242.892 441.09 245.137 441.106 247.381 441.122C245.136 441.106 242.892 441.09 240.648 441.074Z" fill="black"/>
<path fill-rule="evenodd" clip-rule="evenodd" d="M431.416 322.201C430.063 322.214 428.712 322.226 427.373 322.243C428.729 322.231 430.072 322.216 431.416 322.201Z" fill="black"/>
<path fill-rule="evenodd" clip-rule="evenodd" d="M427.011 248.639C425.899 248.601 424.786 248.563 423.686 248.529C424.803 248.568 425.907 248.603 427.011 248.639Z" fill="black"/>
<path fill-rule="evenodd" clip-rule="evenodd" d="M267.977 440.374C269.732 440.203 271.486 440.031 273.241 439.859C271.486 440.031 269.732 440.203 267.977 440.374Z" fill="black"/>
<path fill-rule="evenodd" clip-rule="evenodd" d="M229.742 441.162C231.461 441.136 233.18 441.109 234.898 441.082C233.18 441.109 231.461 441.136 229.742 441.162Z" fill="black"/>
<path fill-rule="evenodd" clip-rule="evenodd" d="M248.094 441.118C249.874 440.963 251.654 440.808 253.435 440.653C251.655 440.807 249.874 440.963 248.094 441.118Z" fill="black"/>
<path fill-rule="evenodd" clip-rule="evenodd" d="M254.585 443.94C253.7 443.935 252.815 443.929 251.942 443.924C252.831 443.93 253.708 443.935 254.585 443.94Z" fill="black"/>
<path fill-rule="evenodd" clip-rule="evenodd" d="M629.997 404.168C630.129 402.863 630.262 401.559 630.393 400.259C630.262 401.565 630.129 402.866 629.997 404.168Z" fill="black"/>
<path fill-rule="evenodd" clip-rule="evenodd" d="M364.226 272.298C365.342 272.393 366.459 272.488 367.577 272.584C366.33 272.648 365.082 272.711 363.836 272.775C363.843 272.519 363.973 272.36 364.226 272.298Z" fill="black"/>
<path fill-rule="evenodd" clip-rule="evenodd" d="M651.05 491.715C650.979 490.527 650.907 489.338 650.838 488.157C650.909 489.348 650.98 490.532 651.05 491.715Z" fill="black"/>
<path fill-rule="evenodd" clip-rule="evenodd" d="M384.265 267.765C383.369 267.783 382.472 267.8 381.587 267.817C382.488 267.799 383.376 267.782 384.265 267.765Z" fill="black"/>
<path fill-rule="evenodd" clip-rule="evenodd" d="M712.354 417.732C713.848 417.907 715.342 418.082 716.835 418.256C715.341 418.082 713.848 417.907 712.354 417.732Z" fill="black"/>
<path fill-rule="evenodd" clip-rule="evenodd" d="M402.064 319.296C401.144 319.31 400.225 319.323 399.317 319.339C400.24 319.326 401.152 319.311 402.064 319.296Z" fill="black"/>
<path fill-rule="evenodd" clip-rule="evenodd" d="M348.893 139.473C349.858 139.988 349.357 142.252 348.416 142.036C348.575 141.181 348.734 140.327 348.893 139.473Z" fill="black"/>
<path fill-rule="evenodd" clip-rule="evenodd" d="M846.393 408.553C845.506 408.53 844.62 408.507 843.746 408.484C844.635 408.508 845.514 408.531 846.393 408.553Z" fill="black"/>
<path fill-rule="evenodd" clip-rule="evenodd" d="M306.769 127.733C306.675 125.738 306.582 123.744 306.489 121.755C306.582 123.752 306.676 125.742 306.769 127.733Z" fill="black"/>
<path fill-rule="evenodd" clip-rule="evenodd" d="M474.646 691.862C476.012 692.062 477.377 692.262 478.742 692.462C477.375 692.262 476.011 692.062 474.646 691.862Z" fill="black"/>
<path fill-rule="evenodd" clip-rule="evenodd" d="M465.619 178.278C460.804 179.269 455.859 179.787 451.157 181.246C449.984 181.61 446.134 183.846 444.729 183.257C442.594 182.36 443.674 180.059 444.573 178.831C446.979 175.547 451.283 173.707 455.23 173.748C459.169 173.79 464.577 173.646 465.619 178.278Z" fill="black"/>
<path fill-rule="evenodd" clip-rule="evenodd" d="M452.241 187.088C457.543 190.799 461.593 192.627 462.042 184.286C467.788 185.069 465.213 194.323 460.865 195.021C456.133 195.78 452.976 191.053 452.241 187.088Z" fill="black"/>
</g>
<defs>
<clipPath id="clip0">
<rect width="1024" height="768" fill="white"/>
</clipPath>
</defs>
</svg>
