<svg width="1024" height="768" viewBox="0 0 1024 768" fill="none" xmlns="http://www.w3.org/2000/svg">
<path fill-rule="evenodd" clip-rule="evenodd" d="M521.919 324.834C559.284 321.862 594.932 335.786 624.796 357.488C663.286 385.459 695.909 425.461 717.991 467.612C720.34 469.421 722.654 471.276 724.952 473.148C737.242 483.16 749.249 493.735 759.892 505.505C765.834 512.075 781.419 528.051 774.653 538.128C773.217 540.268 770.859 541.496 768.497 542.343C761.875 544.714 754.972 545.915 748.441 548.689C740.379 552.112 732.019 556.906 726.854 564.215C725.385 566.294 725.002 568.747 723.027 569.663C720.933 570.635 716.985 570.256 714.696 570.48C710.095 570.932 705.493 571.383 700.891 571.833C690.08 572.893 678.779 573.01 668.203 575.621L619.55 587.634C609.599 590.091 598.162 591.445 588.725 595.483C574.643 601.51 561.208 610.334 547.733 617.606C541.218 621.122 534.702 624.639 528.186 628.155C525.004 629.873 522.826 629.896 519.097 630.183L492.187 632.253C487.846 632.587 485.762 634.335 485.193 629.991L478.938 582.233L475.632 556.979C475.435 555.477 475.493 548.037 474.262 547.139C473.49 546.576 468.96 547.788 468.122 547.891L455.908 549.387C447.111 550.464 438.315 551.541 429.518 552.618C428.804 552.705 424.849 552.66 424.405 553.244C423.885 553.929 424.874 557.855 424.963 558.7C425.896 567.568 426.83 576.436 427.763 585.304C427.872 586.332 429.121 591.101 428.463 591.945C428.005 592.531 424.691 592.602 424.018 592.712C415.532 594.097 407.047 595.482 398.561 596.868C392.484 597.86 384.542 597.81 378.797 600.095C375.498 601.407 372.234 604.762 369.384 606.859L327.998 637.313C321.721 641.931 313.261 640.755 305.617 641.337L217.44 648.055C217.513 645.309 217.587 642.563 217.66 639.816C218.048 625.271 218.435 610.726 218.823 596.181L219.331 577.157C219.363 575.953 218.882 572.43 219.669 571.54C220.715 570.359 225.39 569.847 226.841 569.417C231.708 567.976 236.574 566.536 241.44 565.096C255.717 560.87 269.992 556.644 284.268 552.419C298.378 548.243 312.486 544.066 326.595 539.89C331.423 538.461 336.25 537.032 341.077 535.603C342.192 535.273 346.087 534.834 346.862 533.891C347.839 532.703 347.402 527.634 347.558 526.128C348.324 518.779 349.416 511.463 350.746 504.196C360.338 451.778 382.757 398.534 424.326 363.565C451.804 340.449 486.272 327.669 521.919 324.834ZM528.509 429.95C524.81 425.607 518.596 418.522 512.061 419.698C506.75 420.654 503.856 427.238 502.005 431.615C494.564 449.207 492.256 469.372 489.942 488.173C488.49 499.97 487.322 511.819 486.575 523.682C513.081 521.643 539.587 519.604 566.093 517.565C564.842 509.119 563.839 500.595 562.333 492.19C561.578 487.977 559.49 484.184 557.705 480.292C549.721 462.884 541.006 444.623 528.509 429.95Z" fill="#2357F5" fill-opacity="0.788235"/>
<path fill-rule="evenodd" clip-rule="evenodd" d="M896.454 87.001L897.102 87.0122C914.692 87.4802 930.204 98.7992 942.235 110.778C948.184 116.701 953.609 123.668 956.162 131.775C959.11 141.14 958.14 151.441 955.897 160.84C950.942 181.611 944.886 202.489 938.076 222.732C934.725 232.69 929.866 242.454 927.337 252.646C925.252 261.043 934.032 267.159 934.368 275.788C934.707 284.493 928.85 292.671 920.802 295.782C917.374 297.107 913.227 296 910.067 297.358C907.177 298.599 906.165 302.262 905.61 305.074C904.854 308.909 904.99 312.741 905.205 316.61C905.337 318.977 904.747 322.84 905.902 324.951C906.695 326.401 908.14 326.875 909.385 327.867C911.084 329.221 912.216 330.906 913.706 332.462C916.162 335.03 918.525 336.421 919.192 340.167C919.547 339.316 919.902 338.465 920.256 337.615C922.087 340.964 923.444 342.57 921.703 345.749C927.104 345.219 930.304 355.017 931.72 358.733C934.313 365.533 936.094 372.599 938.693 379.403C942.255 388.732 946.935 397.938 949.208 407.699C951.117 415.903 952.628 424.329 954.325 432.59C955.281 437.241 956.114 441.966 957.863 446.401C958.543 448.123 959.805 449.282 960.587 450.817C961.656 452.918 961.238 454.028 961.289 456.329C961.379 460.431 963.967 463.094 964.781 467.079C965.65 471.336 966.36 475.641 967.237 479.907C969.004 488.5 972.277 497.081 973.065 505.785C973.98 515.892 975.943 525.875 976.93 535.985C977.794 544.819 976.326 554.303 978.171 562.849C979.807 570.434 977.779 577.37 977.057 584.901C976.874 586.813 979.819 598.197 975.086 596.011C975.975 598.695 977.221 599.974 977.288 602.918C977.35 605.672 976.64 608.503 976.06 611.173C974.94 616.333 974.194 621.957 972 626.791C969.519 632.259 965.738 632.914 960.598 634.79C957.118 636.06 950.852 640.592 948.11 635.744C946.475 640.721 943.283 637.281 939.705 637.003C939.729 637.004 937.657 637.77 937.269 637.823C936.011 637.992 934.524 637.399 933.272 637.295C930.151 637.036 927.089 637.453 924.036 638.085C917.001 639.543 910.195 641.559 903.056 642.575C889.111 644.559 875.445 643.621 861.48 644.49C834.15 646.189 806.368 644.763 779.017 644.027C776.081 643.948 772.917 644.359 770.02 643.908C766.897 643.421 766.216 641.943 763.783 640.463C759.738 638.005 755.25 640.396 751.054 641.294C738.734 643.931 725.868 644.126 713.45 646.677C688.22 651.858 664.974 662.083 640.807 670.708C630.33 674.447 618.033 680.502 606.735 680.765C593.043 681.061 596.277 667.575 598.793 658.906C590.882 661.006 578.459 670.602 570.418 665.033C560.835 658.397 573.028 647.365 573.602 639.565C556.475 643.12 537.047 650.917 519.663 644.579C516.318 643.36 513.407 640.782 509.816 640.363C506.083 639.927 502.137 641.246 498.363 641.223C489.765 641.168 481.416 640.024 472.821 641.083C453.658 643.443 434.767 644.735 415.449 645.244C396.001 645.756 376.552 646.908 357.095 646.86C347.219 646.835 337.16 645.664 327.304 646.189C323.434 646.395 315.105 649.206 312.386 645.273C309.656 648.546 307.337 646.359 303.835 646.722C304.484 646.655 302.011 648.085 301.639 648.223C299.798 648.907 298.077 648.699 296.155 648.679C291.035 648.627 286.252 651.023 281.158 650.791C279.87 650.733 278.896 650.358 277.803 649.916C277.544 649.811 277.606 648.697 277.191 648.604C274.699 648.046 275.343 649.572 273.761 650.342C272.007 651.194 269.412 649.815 270.41 652.437C265.651 652.228 261.142 653.832 256.812 651.01C258.859 655.534 251.708 651.776 249.839 651.702C246.733 651.577 244.013 653.13 240.915 653.488C237.2 653.916 233.467 652.193 229.832 653.245C226.984 654.068 226.009 656.049 223.045 655.036C220.527 654.176 218.954 652.307 217.732 650.264C216.046 647.445 215.83 646.187 211.764 646.137C208.749 646.1 205.718 646.749 202.674 646.743C199.186 646.736 195.353 646.366 192.169 648.024C188.739 649.81 186.724 652.529 182.92 653.928C165.814 660.218 147.036 658.553 129.188 658.446C121.658 658.401 116.132 659.093 114.018 650.504C112.232 643.247 111.516 635.658 109.812 628.341C107.724 619.376 105.429 611.058 100.796 603.043C96.3024 595.27 92.5214 587.24 88.6084 579.166C80.4704 562.374 69.1424 548.087 56.5124 534.441C51.7144 529.256 46.2154 523.48 45.9921 516.014C45.8284 509.567 48.6684 502.888 52.3934 497.752C55.7194 493.168 61.1994 487.997 67.3984 489.066C71.1314 489.71 73.5784 492.721 76.3644 494.98C79.4094 497.448 82.7264 499.13 86.3964 500.476C94.9544 503.615 102.131 507.05 109.542 512.468C117.041 517.951 124.051 524.091 130.536 530.74C142.985 543.505 155.741 556.766 162.894 573.295C165.713 579.807 167.514 586.087 169.436 592.839C171.324 599.469 176.464 597.642 182.244 596.689C189.288 595.527 196.367 594.904 203.458 594.168C206.127 593.891 209.89 593.809 211.497 591.287C213.269 588.506 211.239 584.903 211.078 582.018C210.992 580.477 211.503 579.341 211.631 577.838C211.778 576.129 211.273 574.568 211.271 572.866C211.269 569.206 212.982 565.946 215.829 563.729C221.156 559.579 228.926 557.105 235.233 554.822C243.844 551.704 253.071 550.172 261.939 547.947C271.924 545.441 281.969 543.183 292.008 540.907C301.872 538.671 311.721 536.371 321.691 534.649C327.539 533.639 333.883 534.008 339.552 532.162C345.577 530.2 344.578 524.138 344.56 518.767C344.531 509.897 345.629 500.765 346.928 491.996C349.692 473.354 356.276 455.11 362.261 437.295C368.027 420.137 375.17 403.669 386.962 389.745C398.441 376.19 412.53 363.923 427.145 353.85C442.373 343.354 459.318 335.771 475.214 326.401C471.74 323.744 467.596 321.477 465.6 317.385C463.346 312.766 464.301 307.243 464.397 302.306C464.505 296.734 464.675 291.843 466.665 286.535C467.754 283.628 471.964 278.114 471.319 274.953C470.238 269.645 458.626 265.768 454.35 263.584C447.644 260.158 440.925 256.678 434.745 252.353C428.814 248.204 423.234 243.21 419.641 236.841C418.622 235.034 417.783 233.136 417.132 231.166C416.407 228.968 416.914 228.219 414.717 228.058C411.21 227.8 405.952 231.32 402.997 232.875C387.762 240.892 371.03 251.681 353.054 250.965C346.532 250.706 339.2 248.657 336.894 241.855C333.858 232.9 340.197 223.649 345.759 217.181C334.91 218.886 314.904 224.215 306.343 214.535C300.638 208.085 304.941 197.847 309.725 192.254C316.046 184.866 325.057 180.368 333.381 175.667C323.167 171.773 311.86 169.283 302.878 162.767C294.287 156.536 295.349 146.963 302.134 139.613C309.388 131.756 322.072 127.732 332.048 124.815C344.284 121.237 356.44 121.524 369.049 121.764C391.679 122.194 411.118 130.536 429.679 143.148C439.493 149.817 449.166 157.014 457.87 165.091C466.034 172.666 474.743 179.71 482.787 187.367C490.581 194.786 496.712 203.978 504.938 210.909C511.933 216.802 519.602 225.155 528.488 227.771C537.911 230.545 546.393 235.133 555.896 237.864C566.676 240.961 575.936 246.14 585.926 251.081C627.851 271.817 672.858 285.312 717.058 300.199C739.666 307.813 762.424 313.18 785.505 318.995C797.096 321.915 807.859 323.473 819.82 322.945C822.578 322.824 825.212 322.752 827.932 323.135C829.926 323.415 831.442 324.169 833.225 322.977C835.787 321.265 836.75 316.809 838.277 314.272C829.765 311.633 821.432 308.778 817.548 300.055C815.101 294.558 813.831 288.147 812.758 282.249C812.182 279.075 812.169 275.872 811.677 272.696C811.407 270.942 810.573 269.109 810.637 267.317C810.446 268.314 804.103 265.035 803.183 264.426C799.634 262.075 798.988 257.336 799.017 253.336C799.051 248.818 800.415 243.852 803.483 240.426C804.935 238.804 806.663 237.588 808.774 236.977C810.272 236.543 812.248 237.111 813.569 236.674C819.429 234.737 820.085 220.236 820.916 214.957C822.748 203.325 824.573 192.22 828.527 181.07C835.736 160.742 845.014 140.986 856.065 122.478C865.534 106.619 874.994 87.2272 895.813 87.001H896.454ZM716.477 575.321C708.05 576.78 699.977 579.76 691.837 582.287C684.235 584.647 676.53 586.15 668.731 587.684C653.21 590.738 637.348 593.533 622.052 597.514C617.745 598.635 615.479 601.165 611.721 602.924C608.935 604.228 606.32 602.907 603.422 602.796C597.113 602.555 590.113 604.613 584.045 606.147C569.72 609.766 557.01 616.052 544.047 623.001C542.887 623.622 535.044 627.211 535.416 628.697C535.718 629.91 545.688 626.653 547.274 626.412C555.302 625.189 563.144 622.658 571.113 621.086C577.654 619.795 584.269 618.921 590.782 617.488C598.03 615.894 613.47 610.35 614.084 622.321C614.747 635.259 600.46 639.238 591.872 645.273C592.829 646.924 606.607 641.48 608.315 640.93C614.174 639.041 619.609 635.636 625.574 634.186C635.952 631.663 634.695 643.125 628.966 648.224C622.6 653.888 612.072 655.6 608.547 664.317C613.176 665.987 619.228 662.851 623.48 661.292C629.064 659.245 634.669 657.229 640.287 655.277C652.898 650.895 664.876 644.858 677.554 640.683C703.566 632.119 731.061 629.663 758.253 628.141C755.83 618.742 753.18 609.398 751.003 599.937C750.071 595.888 749.218 591.82 748.512 587.725C748.021 584.877 748.439 578.062 746.477 575.816C744.088 573.08 737.866 576.923 734.48 576.85C731.163 576.778 728.743 575.066 725.678 574.526C722.768 574.014 719.324 574.828 716.477 575.321ZM227.722 629.727C227.722 634.22 226.943 639.67 232.853 640.195C237.633 640.62 246.984 641.166 250.797 637.767C247.143 635.986 242.99 635.675 239.109 634.648C235.065 633.577 231.331 631.819 227.722 629.727ZM325.268 547.861C323.47 547.874 320.437 549.873 318.797 550.431C315.796 551.451 312.746 552.312 309.682 553.123C300.476 555.561 288.623 555.941 284.396 565.823C282.286 570.755 280.823 583.438 273.491 583.392C266.974 583.35 263.071 573.944 258.422 570.597C253.617 567.139 245.999 569.493 240.817 570.995C235.551 572.52 227.379 574.477 227.97 581.151C228.395 585.949 229.261 590.316 229.22 595.217C229.169 601.456 228.642 607.682 228.642 613.921C232.339 608.856 235.564 598.673 242.114 596.636C248.731 594.578 252.474 606.139 254.195 610.57C256.328 616.06 259.009 622.286 259.172 628.236C259.223 630.104 258.089 635.236 259.388 636.772C260.541 638.136 264.976 637.147 266.409 636.998C275.278 636.075 284.1 634.926 292.997 634.156C297.566 633.761 298.81 632.758 298.363 627.843C298.012 623.983 297.903 620.304 298.387 616.429C300.547 599.128 311.201 583.302 329.215 580.298C340.07 578.487 352.747 579.811 363.584 581.55C367.761 582.22 372.296 584.243 376.54 584.067C379.675 583.937 378.665 583.759 379.307 580.808C379.756 578.745 380.717 576.985 382.286 575.555C383.526 574.425 385.1 575.063 386.269 573.586C387.115 572.517 386.988 571.061 387.387 569.829C388.166 567.432 389.574 564.197 392.377 563.592C396.888 562.617 401.683 568.657 403.96 571.772C406.312 574.993 407.023 584.609 410.806 585.868C415.171 587.319 420.364 581.598 421.274 577.994C422.498 573.146 420.956 567.901 420.219 563.1C420.167 562.756 419.952 559.566 419.715 559.358C419.078 558.797 414.279 558.954 413.429 558.912C409.248 558.713 405.06 558.703 400.875 558.692C384.468 558.651 368.396 557.038 352.098 555.318C354.465 559.177 358.518 565.513 354.358 569.587C351.275 572.605 345.711 571.091 341.839 571.713C336.369 572.591 327.148 577.782 321.935 573.987C314.589 568.637 322.899 559.445 325.627 554.389C326.211 553.305 328.377 549.491 327.459 548.22C326.664 547.119 326.432 547.852 325.268 547.861ZM202.922 607.32C199.171 608.464 195.392 609.564 191.56 610.412C187.065 611.407 180.095 610.441 177.908 615.386C176.244 619.146 177.07 625.212 178.422 628.957C179.97 633.246 183.603 634.349 187.891 634.676C192.895 635.058 197.965 634.251 202.91 633.567C204.859 633.297 206.937 632.81 208.917 632.807C210.092 632.804 212.464 633.879 213.509 633C214.862 631.861 213.971 625.391 213.865 623.84C213.602 619.999 212.873 616.209 212.674 612.362C212.532 609.599 213.574 605.844 210.335 605.255C208.318 604.888 204.675 606.786 202.922 607.32ZM505.823 531.283C503.02 531.768 500.233 532.115 497.386 532.072C495.632 532.045 493.532 531.449 491.911 532.411C488.917 534.188 489.363 538.869 489.465 541.79C489.59 545.334 489.9 548.931 490.278 552.457C490.639 555.829 492.489 561.382 489.876 564.271C488.033 562.254 487.124 555.659 483.567 555.9C479.656 556.164 481.464 562.414 481.811 564.652C483.728 577.023 485.913 589.401 487.626 601.808C488.44 607.706 489.492 613.561 490.037 619.488C490.402 623.466 490.525 627.048 494.971 627.872C499.091 628.636 503.721 627.332 507.886 627.232C512.174 627.129 514.63 626.838 517.097 622.962C511.19 621.669 501.833 622.46 498.505 616.212C494.625 608.923 502.809 602.365 506.836 597.383C509.927 593.557 516.247 580.837 521.985 588.392C524.051 591.112 524.424 595.263 525.467 598.427C527.164 603.568 529.237 608.635 531.271 613.649C549.88 604.043 568.975 595.383 589.27 589.99C584.096 581.245 577.691 573.37 573.818 563.891C569.478 553.268 565.883 542.355 561.446 531.766C554.411 535.872 546.89 525.918 539.885 525.517C528.819 524.884 516.672 529.403 505.823 531.283ZM395.591 602.9C391.733 605.198 386.058 609.667 385.132 614.287C383.532 622.274 392.647 616.934 395.461 615.186C401.352 611.527 407.124 610.358 413.889 612.613C422.565 615.504 430.56 620.385 439.872 616.677C444.505 614.831 454.782 610.887 452.009 603.81C450.097 598.932 444.502 603.116 441.545 604.865C433.803 609.444 427.392 606.543 419.656 603.238C411.919 599.932 403.207 598.364 395.591 602.9ZM120.836 561.912C117.739 566.302 124.035 565.354 126.799 565.782C132.579 566.675 138.532 571.284 136.939 577.806C135.386 584.165 129.301 588.14 128.142 594.815C127.146 600.547 128.106 607.802 133.641 610.949C136.75 612.716 143.545 613.444 146.674 611.414C151.452 608.314 145.518 603.698 142.357 602.163C138.168 600.128 134.785 599.026 136.858 593.68C139.385 587.163 144.293 582.162 143.857 574.705C143.497 568.527 140.236 561.506 134.295 558.939C130.041 557.102 123.737 557.799 120.836 561.912ZM543.703 542.973C549.057 542.744 549.27 549.214 549 552.396C548.631 556.747 549.421 561.384 549.512 565.749C549.633 571.53 550.843 590.462 540.62 587.65C534.046 585.842 528.637 579.542 523.352 575.494C518.49 571.768 506.13 567.299 505.329 560.235C504.425 552.256 514.171 550.763 519.755 549.495C527.727 547.685 535.467 543.327 543.703 542.973ZM517.621 332.683C509.131 333.502 500.688 334.763 492.608 337.583C487.141 339.491 478.744 340.859 474.869 345.541C471.519 349.59 472.971 355.362 471.882 360.146C470.409 366.618 465.941 365.733 461.608 361.692C456.422 356.854 454.922 353.351 447.703 357.891C432.758 367.289 420.909 381.164 409.054 394.018C418.221 396.794 436.204 397.466 439.249 408.919C440.913 415.181 435.896 419.736 431.388 423.153C425.567 427.566 419.491 431.647 413.797 436.237C408.484 440.52 396.57 457.573 393.2 442.58C391.113 433.299 395.023 423.708 393.364 414.54C386.156 426.162 378.837 437.756 372.228 449.734C366.603 459.931 363.332 470.838 360.634 482.112C364.84 482.387 369.218 480.252 373.376 481.513C377.38 482.727 379.254 486.515 379.535 490.439C380.013 497.092 376.941 503.864 375.395 510.253C374.334 514.641 373.116 524.6 367.771 526.028C361.679 527.655 357.856 518.284 355.14 514.476C352.554 518.451 352.597 524.266 352.219 528.823C351.96 531.956 350.212 537.813 353.736 539.545C357.034 541.167 363.988 539.135 367.515 538.986C374.059 538.708 380.73 538.178 387.276 538.371C393.461 538.554 402.561 541.86 404.977 534.259C406.622 529.084 408.071 510.486 416.845 520.576C420.743 525.057 423.791 530.165 427.556 534.731C431.354 539.336 434.807 539.638 440.479 539.405C451.707 538.945 462.671 541.101 473.657 542.842C483.297 544.369 482.032 536.187 481.889 528.903C481.67 517.612 483.909 505.805 485.13 494.576C488.034 467.875 493.994 441.495 503.163 416.242C495.493 413.63 481.743 424.168 476.072 416.165C471.41 409.586 477.399 400.523 479.837 394.373C482.878 386.7 484.416 378.684 489.376 371.884C490.941 369.737 493.168 366.86 496.198 367.583C498.798 368.204 499.834 371.52 501.297 373.391C505.941 379.329 511.873 383.782 516.001 390.259C518.526 394.221 520.49 398.455 521.31 403.107C521.536 404.386 521.25 407.005 522.15 408.078C524.941 411.403 533.734 411.354 537.642 413.393C550.984 420.356 555.673 440.624 560.854 453.404C562.314 457.003 563.761 460.611 564.537 464.426C565.055 466.976 565.03 470.218 566.413 472.505C569.432 477.498 578.812 473.039 583.415 472.266C591.13 470.97 598.807 469.734 606.553 468.646C611.279 467.983 618.158 466.27 621.759 470.457C625.492 474.798 623.345 481.635 621.471 486.292C618.412 493.893 614.504 501.155 611.276 508.687C608.701 514.695 607.419 522.435 602.471 527.064C598.185 531.076 591.092 532.226 586.046 528.961C583.166 527.098 575.772 509.076 573.821 509.881C577.343 523.801 582.507 537.995 587.963 551.28C589.638 555.361 592.515 563.682 596.748 565.895C600.257 567.73 608.219 564.263 611.809 563.591C615.213 562.953 621.933 560.189 625.188 562.214C629.133 564.67 629.614 571.22 630.057 575.286C630.386 578.301 629.789 580.551 633.457 580.401C636.041 580.296 638.649 579.036 641.129 578.402C646.886 576.933 652.861 575.961 658.722 575.015C672.277 572.826 685.827 570.643 699.376 568.399C711.024 566.47 722.52 566.481 733.045 560.956C738.38 558.156 744.496 557.301 750.177 555.428C755.811 553.571 761.427 552.366 767.324 551.668C780.213 550.144 792.755 548.651 805.493 546.04C812.464 544.611 819.422 543.114 826.356 541.513C832.528 540.088 838.495 537.824 844.637 536.427C849.747 535.265 853.944 536.138 856.133 530.338C857.703 526.179 857.338 521.518 857.741 517.165C859.584 497.276 852.619 477.274 851.194 457.494C850.732 451.088 850.59 444.662 850.109 438.261C849.889 435.328 850.022 426.788 846.6 425.207C846.289 427.553 846.531 431.499 843.866 432.662C845.168 432.094 843.459 439.023 843.367 439.719C843.003 442.485 843.911 445.445 843.432 448.159C843.812 449.114 843.646 449.833 842.936 450.317C842.452 450.709 842.099 451.205 841.879 451.804C841.845 453.739 842.412 452.599 842.439 453.267C842.707 459.923 841.582 466.823 842.063 473.641C842.572 480.848 844.181 487.918 845.403 495.026C846.5 501.406 847.682 507.799 848.597 514.208C849.239 518.706 849.715 523.869 847.295 527.963C842.7 535.736 829.397 534.891 821.649 536.162C808.771 538.276 795.875 540.183 782.95 541.979C777.988 542.668 772.966 544.242 767.946 544.321C762.583 544.405 759.713 542.239 756.332 538.281C749.52 530.308 745.127 521.252 739.453 512.579C736.266 507.707 733.615 506.423 728.25 504.936C723.267 503.555 719.268 499.919 715.214 496.895C706.698 490.543 695.701 483.636 690.113 474.281C684.232 464.437 692.519 461.169 700.454 458.483C698.523 453.351 694.736 449.229 691.616 444.814C688.069 439.794 684.853 434.58 681.034 429.749C673.25 419.902 665.475 410.106 657.921 400.075C651.464 391.502 644.938 383.381 636.697 376.436C628.42 369.46 619.205 363.743 610.116 357.903C605.368 354.852 597.033 347.057 591.032 347.854C585.211 348.628 582.909 359.47 581.455 364.027C579.786 369.256 579.197 376.547 575.309 380.664C569.595 386.714 563.662 377.184 560.935 372.792C555.942 364.747 550.832 356.774 545.846 348.722C543.574 345.051 540.292 341.558 538.943 337.396C538.927 337.346 538.296 333.767 538.933 334.268L538.977 334.308L538.934 334.26C537.508 332.847 532.24 332.554 530.27 332.383L530.09 332.367C525.946 331.976 521.753 332.284 517.621 332.683ZM461.966 558.268C457.193 558.239 452.434 558.794 447.683 559.183C443.51 559.524 439.685 558.886 435.519 558.635C430.365 558.325 427.816 558.865 429.003 564.188C429.866 568.061 430.903 573.22 434.88 574.857C440.252 577.069 447.488 576.771 453.212 577.609C457.414 578.224 461.605 578.779 465.789 579.48C468.568 579.946 469.995 580.433 471.296 577.284C472.384 574.645 471.683 571.119 471.312 568.393C471.026 566.301 471.197 562.622 470.209 560.761C468.734 557.983 464.87 558.286 461.966 558.268ZM684.481 505.19C691.493 511.6 696.212 519.795 701.507 527.567C704.74 532.312 711.065 539.877 706.472 545.63C702.559 550.534 693.46 549.412 687.986 549.648C679.384 550.019 672.358 553.906 664.172 555.911C643.555 560.961 660.678 526.305 663.534 519.073C665.538 513.999 667.605 508.948 670.029 504.057C671.122 501.852 673.303 495.423 676.021 494.581C679.961 493.36 681.987 502.91 684.481 505.19ZM507.34 432.326C504.063 438.59 503.531 447.26 501.977 454.101C497.228 475.019 494.451 496.323 492.268 517.643C503.127 513.336 514.589 513.038 526.055 511.984C534.362 511.22 541.99 510.345 550.299 510.7C551.715 510.76 555.788 511.479 556.955 510.275C558.522 508.659 556.624 504.15 556.161 502.45C553.643 493.217 552.536 483.676 549.674 474.5C546.756 465.142 543.209 455.797 539.435 446.75C536.675 440.133 532.884 433.68 526.195 430.435C520.339 427.595 510.975 425.378 507.34 432.326ZM462.619 473.038C467.093 479.783 472.76 485.683 477.13 492.491C480.228 497.32 483.856 506.252 476.414 509.322C473.802 510.399 470.718 509.933 467.981 509.981C463.748 510.054 459.556 510.418 455.316 510.317C451.306 510.221 447.334 509.735 443.334 509.526C440.813 509.395 437.646 509.589 435.425 508.141C429.472 504.258 433.777 496.329 435.694 491.256C437.73 485.867 440.479 480.771 443.132 475.664C444.971 472.122 447.721 464.905 451.904 463.461C456.858 461.751 460.555 469.927 462.619 473.038ZM679.568 396.615C689.401 408.049 697.939 420.521 705.979 433.259C709.903 439.475 713.713 445.764 717.517 452.054C720.006 456.17 721.875 461.435 724.907 465.163C731.824 473.666 733.748 455.113 734.767 451.08C738.528 436.209 743.185 421.458 747.328 406.68L743.082 406.68C726.157 406.671 709.93 406.421 693.451 401.434C688.786 400.023 684.533 396.96 679.568 396.615ZM643.819 399.498C649.173 403.452 683.444 426.667 669.028 435.625C666.045 437.479 661.17 436.638 657.799 436.904C653.479 437.245 649.091 437.663 644.823 438.428C639.298 439.42 633.93 441.149 628.379 442.025C623.966 442.722 618.118 443.535 614.175 440.787C607.671 436.253 611.619 427.349 613.766 421.585C616.819 413.395 619.71 402.431 627.283 397.553C629.045 396.418 631.204 392.365 633.1 391.994C636.069 391.412 641.647 397.895 643.819 399.498ZM832.895 206.929C830.311 208.906 830.193 213.012 829.523 215.91C827.269 225.658 824.123 235.147 822.256 244.999C820.436 254.608 819.864 264.068 820.757 273.806C821.353 280.301 821.422 288.293 825.37 293.824C830.095 300.442 839.451 300.103 846.527 302.063C853.335 303.949 860.085 309.79 852.659 315.862C850.02 318.019 846.555 318.37 843.946 320.448C840.728 323.013 838.88 327.609 837.513 331.367C836.387 334.461 836.42 335.052 839.783 336.145C841.319 336.644 842.871 336.961 844.487 336.827C848.167 336.521 851.45 334.091 854.531 332.265C862.389 327.608 871.465 321.391 880.847 320.688C883.846 320.464 887.255 321.691 890.171 320.717C892.888 319.808 892.054 319.252 892.526 316.725C894.395 306.709 895.154 296.878 900.261 287.817C902.782 283.346 909.446 274.2 913.913 281.161C915.778 284.068 916.453 285.488 920.591 284.596C923.958 283.871 927.657 281.208 926.989 277.319C926.36 273.65 921.535 271.152 918.611 269.544C914.716 267.404 911.985 267.651 907.744 267.144C896.091 265.751 904.261 248.708 905.941 242.313C906.997 238.294 908.232 233.099 905.46 229.47C901.241 223.95 892.05 225.765 886.26 226.548C878.253 227.631 869.512 228.208 862.018 224.574C854.09 220.73 850.711 212.06 843.277 207.845C840.53 206.287 835.717 204.767 832.895 206.929ZM867.688 277.336C873.197 277.262 870.519 285.117 869.011 287.758C865.833 293.328 859.026 295.482 853.049 293.428C848.321 291.803 843.207 284.625 850.612 283.435C854.163 282.865 857.678 283.097 861.043 281.408C862.96 280.446 865.438 277.366 867.688 277.336ZM853.868 235.566C857.291 237.644 851.449 250.916 850.465 253.602C848.863 257.986 847.437 260.816 851.513 264.195C854.347 266.545 859.937 268.573 857.268 273.256C854.798 277.589 846.323 275.772 842.877 273.652C837.868 270.569 839.344 264.664 840.449 259.818C841.171 256.643 847.773 231.866 853.868 235.566ZM314.869 148.424C325.425 152.933 336.219 157.006 347.388 159.723C357.149 162.098 366.747 164.659 376.807 164.101C386.114 163.586 387.224 172.729 381.908 179.061C379.02 182.501 375.669 182.415 371.46 182.548C366.533 182.704 362.058 184.071 357.306 185.295C350.069 187.159 342.742 188.742 335.729 191.373C332.11 192.731 328.539 194.328 325.311 196.474C323.282 197.824 318.754 200.256 321.149 202.142C324.611 204.867 334.887 201.134 339.007 200.888C348.6 200.316 358.174 199.45 367.713 198.249C372.385 197.66 377.401 197.078 381.826 195.381C384.721 194.271 387.926 191.515 391.204 192.215C398.12 193.692 394.693 204.06 391.553 207.433C386.89 212.442 379.811 214.654 373.788 217.5C369.578 219.49 365.394 221.597 361.306 223.824C359.375 224.876 350.375 228.817 350.66 231.809C350.959 234.954 358.063 233.368 359.82 233.082C371.546 231.175 382.127 226.641 392.961 222.001C397.703 219.97 402.512 218.021 407.155 215.769C410.398 214.195 413.586 211.797 417.169 211.082C425.617 209.395 425.247 218.83 428.573 223.927C438.459 239.075 457.56 245.537 472.422 254.291C478.044 257.602 483.407 261.415 488.566 265.404C492.251 268.252 493.724 272.172 497.839 268.416C501.268 265.285 502.922 260.693 505.12 256.711C507.679 252.075 511.097 247.982 513.72 243.384C517.596 236.591 518.757 230.112 510.245 227.612C501.309 224.988 494.237 221.075 486.642 215.492C468.003 201.79 452.537 184.293 433.952 170.486C416.734 157.694 398.476 145.69 376.891 142.255C356.433 138.998 333.988 139.8 314.869 148.424ZM873.282 246.817C872.845 250.589 871.916 258.634 866.676 258.935C860.312 259.3 864.586 239.967 868.191 237.791C873.963 234.307 873.652 243.621 873.282 246.817ZM814.065 245.277C806.121 245.935 803.857 254.636 811.797 257.717L814.065 245.277ZM843.521 237.641C842.501 241.59 842.864 247.927 839.695 250.958C835.228 255.229 833.283 248.961 833.316 245.387C833.348 241.852 835.1 233.01 839.831 232.544C843.873 232.146 840.509 236.832 843.521 237.641ZM929.252 149.782C926.348 155.825 929.47 161.789 931.208 167.729C927.643 168.878 922.839 168.009 920.662 171.777C919.29 174.152 919.529 177.728 919.94 180.3C920.277 182.41 922.007 185.251 920.567 187.209C918.682 189.772 914.003 188.587 911.924 191.438C908.764 195.774 910.537 205.678 914.971 208.942C921.203 213.527 917.484 202.275 917.103 200.226C916.147 195.093 921.465 195.791 925.097 193.718C927.046 192.606 927.394 192.391 927.841 190.017C928.254 187.83 928.035 186.095 927.514 183.738C925.746 175.741 928.837 177.047 935.19 175.285C940.67 173.764 940.231 169.385 938.839 164.782C937.747 161.174 934.492 155.255 938.018 152.179C939.417 150.958 941.542 151.73 941.844 149.182C942.048 147.462 939.74 144.642 938.528 143.653C934.351 140.243 930.95 146.248 929.252 149.782Z" fill="black"/>
</svg>
