<svg width="1024" height="768" viewBox="0 0 1024 768" fill="none" xmlns="http://www.w3.org/2000/svg">
<path fill-rule="evenodd" clip-rule="evenodd" d="M542.373 149.024C546.336 148.6 546.902 153.975 547.442 156.425C548.969 155.461 550.329 156.383 550.674 154.132C555.506 159.194 559.375 165.005 563.665 170.504C567.78 175.78 574.212 179.977 577.772 185.523C580.793 190.232 575.808 197.382 575.192 202.403C574.497 208.062 575.974 214.539 579.839 218.853C581.647 220.87 583.858 222.272 586.53 222.814C589.187 223.353 591.715 221.794 594.055 222.126C595.996 222.401 596.081 223.684 596.758 225.591C597.686 228.207 598.87 230.677 601.061 232.515C603.511 234.567 606.142 235.16 608.011 237.918C609.642 240.324 610.566 242.654 613.096 244.325C616.47 246.554 621.884 247.228 621.519 252.433C622.099 251.972 622.679 251.512 623.259 251.05C624.604 255.373 626.455 259.559 628.432 263.624C629.358 265.529 629.834 266.541 629.786 268.66C629.754 270.056 628.989 271.112 629.816 272.464C631.14 274.627 634.68 274.333 636.297 276.082C637.954 277.876 636.234 280.309 638.149 281.872C637.342 282.119 635.107 283.925 635.947 285.022C637.156 286.598 637.247 284.438 638.095 284.698C640.041 285.294 639.63 287.723 641.148 288.383C641.46 288.519 641.436 287.064 641.42 286.689L641.418 286.675L642.59 288.962C652.456 308.055 664.018 326.243 673.313 345.612L674.417 347.942C691.92 385.357 712.728 421.788 735.739 456.106C741.167 464.201 747.124 472.243 752.143 480.569C757.186 488.938 763.471 496.355 769.049 504.356C774.787 512.588 780.039 521.156 785.823 529.35C790.436 535.885 796.074 542.842 796 551.268C795.965 555.013 795.421 559.15 791.811 561.162C791.724 559.618 789.387 561.326 788.83 561.705C786.419 563.346 787.73 563.164 785.131 562.591C780.913 561.66 777.311 562.92 773.409 560.522C765.132 555.437 756.975 550.209 748.549 545.356C730.339 534.869 712.31 524.131 695.417 511.597C665.886 489.686 633.801 470.052 606.662 445.128C579.543 420.224 551.084 395.515 518.903 377.3C516.746 376.079 510.563 374.247 511.133 371.335C511.633 368.783 517.193 365.205 519.143 363.438C525.912 357.305 532.961 351.501 539.489 345.105C551.542 333.298 563.505 320.267 573.173 306.413C577.875 299.674 580.275 292.178 583.021 284.515C585.444 277.751 587.684 269.425 583.751 262.733C581.93 259.633 579.416 258.376 575.9 258.611C572.99 258.805 573.121 259.401 571.967 256.314C570.725 252.991 569.715 249.136 566.384 247.212C562.933 245.219 560.582 247.344 557.787 249.339C554.572 244.697 550.628 236.664 544.147 236.219C537.379 235.756 533.535 244.116 531.198 249.145C524.287 264.015 515.295 277.905 505.625 291.147C495.143 305.501 484.427 320.102 472.878 333.618C470.433 336.479 467.657 340.655 464.212 342.391C460.678 344.173 457.745 342.499 454.758 340.45C447.718 335.621 440.872 330.662 433.542 326.241C425.424 321.344 417.078 316.858 408.799 312.244C405.146 310.209 401.68 307.758 397.916 305.93C394.409 304.227 390.59 303.383 387 301.892C400.183 297.962 414.068 303.111 426.546 307.195C433.022 309.314 439.795 311.521 446.709 310.951C452.689 310.459 458.116 307.257 462.846 303.76C471.396 297.438 472.068 287.943 469.279 278.346C466.071 267.3 461.164 256.677 457.456 245.782C455.77 240.826 454.608 235.563 458.447 231.281C461.882 227.449 466.327 226.978 471.015 228.486C482.383 232.144 492.467 235.579 504.653 235.231C514.18 234.96 526.298 232.256 532.717 224.514C536.235 220.27 536.369 214.435 536.383 209.171C536.401 202.932 536.007 196.658 535.134 190.482C533.576 179.462 529.534 168.428 534.603 157.728C535.791 155.219 539.099 149.374 542.373 149.024ZM641.417 286.639L641.418 286.675L641.415 286.666C641.412 286.587 641.414 286.586 641.417 286.639ZM247.11 234.913C250.089 230.792 258.24 221.197 264.463 223.297C265.55 223.663 266.335 224.747 267.051 225.554C267.559 226.213 268.062 226.875 268.562 227.541C268.873 228.416 269.43 228.674 270.234 228.316C272.417 231.338 275.497 233.621 276.751 237.333C277.994 241.011 281.329 244.578 283.296 247.952C284.818 250.561 288.248 257.527 287.986 260.79V269.119C287.676 272.356 281.625 278.147 279.497 280.336C274.213 285.775 268.474 286.471 260.643 285.777C254.01 285.189 245.418 282.978 240.928 277.705C236.618 272.646 236.679 264.806 237.317 258.576C238.208 249.875 242.024 241.949 247.11 234.913ZM267.52 236.294C266.306 234.038 263.649 233.481 261.314 233.748C258.98 234.015 256.302 234.211 254.162 235.252C252.186 236.214 251.186 237.899 248.722 237.333C249.698 239.015 247.95 239.986 247.698 241.501C247.374 243.447 248.002 245.192 249.288 246.669C251.949 249.727 255.925 249.668 259.624 249.966C262.751 250.218 266.598 250.736 268.436 253.666C269.621 255.556 268.546 256.917 269.101 258.815C269.51 260.214 271.218 261.017 271.965 262.218C274.468 258.533 274.381 250.641 272.854 246.701C272.133 244.84 270.769 242.417 269.689 240.783C269.335 240.247 268.5 239.609 268.278 239.167C267.894 238.404 267.94 237.073 267.52 236.294Z" fill="#2357F5" fill-opacity="0.788235"/>
<path fill-rule="evenodd" clip-rule="evenodd" d="M559.309 727.712C563.838 725.941 569.42 726.768 574.167 726.853C580.128 726.961 586.105 727.413 592.048 727.878C603.461 728.773 614.816 728.395 626.239 729.462C631.91 729.992 637.585 730.481 643.26 730.964C648.229 731.387 653.999 732.705 658.96 731.757C661.008 731.365 666.536 729.438 665.512 726.439C664.721 724.125 658.498 722.698 656.471 722.04C651.702 720.489 646.778 719.378 641.957 717.996C639.481 717.287 637.015 716.523 634.408 716.77C632.195 716.979 629.864 718.63 627.622 718.44C624.307 718.16 622.598 713.996 620.166 712.16C616.294 709.235 613.424 710.798 610.455 714.021C608.26 716.403 606.17 720.008 602.568 720.222C597.987 720.493 597.095 716.565 599.117 713.234C600.979 710.165 606.049 707.019 606.321 703.194C606.493 700.777 602.627 694.308 600.401 693.388C596.659 691.842 591.369 695.937 587.986 697.194C582.077 699.388 576.045 701.331 570.062 703.313C565.97 704.668 559.898 704.788 559.125 709.583C558.158 715.587 559.336 721.683 559.309 727.712ZM325.118 635.419C326.308 632.783 327.557 631.284 325.179 628.838C323.849 627.47 321.973 626.797 320.664 625.378C318.697 623.245 315.615 617.415 319.831 615.947C323.861 614.543 327.256 620.152 330.499 621.384C334.615 622.948 337.165 620.326 337.754 616.393C338.51 611.34 337.678 606.059 338.282 600.943C338.872 595.927 340.624 591.762 341.968 586.96C342.88 583.704 343.995 580.426 339.86 579.704C336.068 579.042 331.67 580.617 327.825 580.828C321.828 581.157 315.759 581.46 309.812 582.359C303.172 583.363 303.293 590.153 301.626 595.704C297.584 609.161 292.164 622.365 289.64 636.238C288.552 642.22 291.436 646.317 294.794 651.021C298.997 656.91 303.37 662.784 308.131 668.24C311.31 671.883 314.892 675.276 319.521 676.951C324.765 678.849 326.769 676.742 325.56 671.573C323.962 664.75 321.552 658.159 321.836 651.053C321.94 648.465 322.692 645.685 320.826 643.519C319.532 642.017 317.315 641.511 315.626 640.597C312.842 639.089 308.529 634.237 313.953 633.193C317.637 632.483 321.552 634.961 325.118 635.419ZM450.38 368.144C453.69 371.84 457.288 375.376 460.426 379.215C462.225 381.418 463.5 384.064 465.431 386.151C469.66 390.722 473.874 385.657 477.619 382.696C492.347 371.052 506.207 358.434 520.24 345.971C526.926 340.033 534.039 334.557 540.618 328.506C547.283 322.377 552.832 315.202 559.076 308.671C562.075 305.535 565.665 302.424 567.516 298.418C569.096 295.002 569.444 291.286 571.244 287.908C574.36 282.058 580.074 275.267 578.764 268.192C574.905 272.237 568.479 286.732 561.746 279.934C556.941 275.082 561.849 267.91 561.635 262.253C557.073 264.189 558.259 272.039 553.395 273.428C550.764 274.18 548.514 271.798 547.287 269.71C545.166 266.1 545.944 262.322 546.908 258.492C547.564 255.882 551.754 247.275 547.61 246.213C544.019 245.292 541.01 251.897 539.819 254.237C537.638 258.529 535.949 262.967 533.554 267.166C529.424 274.405 524.667 281.321 520.131 288.311C510.79 302.706 500.138 316.218 489.181 329.413C477.477 343.506 464.809 356.795 450.38 368.144ZM554.145 413.931C553.673 426.612 542.776 436.228 533.349 443.279C521.301 452.29 510.187 462.531 495.818 467.659C490.286 469.634 483.378 469.065 481.162 475.291C480.296 477.726 481.082 478.62 482.021 481.07C483.489 484.904 484.372 489.061 485.069 493.096C487.439 506.824 485.135 520.804 476.886 532.233C472.501 538.309 466.898 543.474 461.105 548.183C455.326 552.881 449.86 558.361 443.489 562.247C429.901 570.536 414.806 575.295 399.138 577.585C390.989 578.777 382.807 579.838 374.577 580.259C370.309 580.477 366.033 580.517 361.763 580.33C359.855 580.246 352.76 578.634 351.381 579.727C350.32 580.569 349.847 585.664 349.635 587.07C349.184 590.042 348.829 592.973 348.215 595.92C346.982 601.835 345.321 608.526 347.138 614.493C347.664 616.219 348.09 617.624 349.688 618.204C350.701 618.572 352.496 617.925 353.52 617.82C355.837 617.582 358.024 617.489 360.354 617.736C368.001 618.545 375.51 620.499 383.238 619.967C399.714 618.832 416.206 617.672 432.531 615.094C440.472 613.84 448.091 611.467 455.9 609.635C463.343 607.888 470.782 606.124 477.729 602.843C491.339 596.413 503.918 587.908 515.154 577.945C527.15 567.308 535.091 554.7 542.595 540.63C549.187 528.27 554.745 515.76 554.456 501.511C554.273 492.494 552.981 481.322 558.194 473.369C560.576 469.737 565.38 466.37 569.856 468.291C577.979 471.778 570.305 478.682 567.207 482.464C562.744 487.913 563.344 496.21 562.881 502.874C562.334 510.738 560.567 517.635 558.844 525.239C557.158 532.682 560.559 541.512 560.895 549.105C561.26 557.338 561.02 565.58 560.928 573.817C560.745 590.199 561.506 606.537 561.45 622.917C561.42 631.412 561.637 639.949 561.1 648.432C560.611 656.168 559.026 663.569 557.639 671.163C556.278 678.618 554.294 687.545 554.753 695.123C573.366 688.038 591.484 679.669 610.384 673.34C604.489 668.2 604.227 660.936 603.751 653.687C603.125 644.128 601.552 634.65 600.865 625.091C599.509 606.212 599.89 586.352 601.496 567.494C603.22 547.248 606.278 527.07 606.907 506.739C607.21 496.945 606.452 487.126 604.857 477.461C603.513 469.319 602.346 459.073 598.1 451.859C594.043 444.965 586.585 440.586 580.361 435.89C571.26 429.024 562.83 421.303 554.145 413.931ZM555.272 149.123C557.602 152.274 560.235 155.182 563.022 157.935C565.897 160.776 567.121 160.148 570.561 158.671C577.401 155.731 577.27 152.331 573.452 146.438C564.595 132.768 561.235 116.488 551.864 103.098C542.631 89.9043 529.2 79.2446 515.1 71.6369C499.969 63.473 483.572 60.8753 466.517 61.1189C457.802 61.2437 449.03 61.8452 440.369 62.8218C431.943 63.7711 424.449 66.536 416.293 68.6236C412.187 69.6741 407.953 70.5458 403.961 71.9895C400.459 73.2556 397.31 75.2111 393.772 76.3943C386.026 78.9823 378.231 81.875 371.242 86.1078C364.409 90.2472 358.253 94.6617 352.047 99.7432C345.62 105.006 340.038 111.122 333.088 115.743C326.761 119.95 321.729 125.618 315.992 130.548C309.998 135.7 304.47 142.012 299.973 148.522C295.576 154.887 293.903 163.123 291.247 170.301C288.155 178.656 285.088 187.587 283.923 196.445C281.753 212.951 286.624 232.244 292.818 247.519C298.945 262.627 308.874 275.233 320.721 286.294C326.496 291.689 332.798 296.585 339.859 300.192C345.899 303.278 353.775 308.826 360.349 304.949C363.011 303.379 365.172 301.554 368.249 300.847C371.613 300.075 374.908 300.391 377.623 297.925C379.931 295.829 381.035 293.299 384.065 292.034C387.658 290.533 391.907 290.26 395.754 290.272C404.393 290.301 413.037 292.463 421.282 294.861C428.838 297.058 435.161 300.372 443.188 298.364C449.153 296.872 458.72 292.905 460.006 286.067C461.155 279.955 456.72 272.054 454.487 266.585C451.4 259.027 448.604 251.592 446.665 243.646C445.128 237.35 442.715 227.277 447.053 221.522C451.316 215.868 461.171 215.936 467.294 217.358C471.307 218.29 474.996 220.167 479.011 221.113C483.101 222.077 487.333 222.561 491.505 223.034C505.964 224.669 526.534 220.972 525.764 202.496C525.079 186.029 516.005 169.522 521.319 153.035C523.484 146.315 527.908 138.543 535.275 136.769C541.118 135.362 549.015 136.837 554.17 139.893C558.306 142.346 562.405 147.483 555.272 149.123ZM264.917 222.675C250.343 225.518 240.704 240.881 238.033 254.504C236.822 260.677 236.395 268.029 238.736 274.002C241.434 280.888 249.061 283.762 255.791 285.206C263.484 286.857 270.301 286.212 276.4 280.879C279.081 278.533 281.352 275.801 283.279 272.816C285.249 269.763 287.989 267.539 286.008 264.127C281.097 255.673 276.907 247.368 273.673 238.068C272.23 233.918 270.947 229.863 269.989 225.589C269.229 222.195 268.861 220.124 264.917 222.675ZM392.564 314.893C389.744 317.609 386.504 319.773 382.864 321.233C378.871 322.834 377.659 322.065 377.857 326.684C378.076 331.784 378.113 335.866 375.788 340.612C374.7 342.834 370.68 345.832 371.439 348.331C372.529 351.918 383.693 355.545 386.95 356.799C394.742 359.801 403.833 359.862 411.188 355.621C419.731 350.695 420.487 341.764 417.269 333.121C416.926 332.199 415.677 330.641 415.984 329.634C416.548 327.789 418.869 328.055 420.201 328.76C423.093 330.29 424.301 334.943 424.924 337.847C426.587 345.605 423.532 354.007 417.726 359.352C414.775 362.067 411.085 363.882 407.321 365.19C405.185 365.933 402.943 366.52 400.687 366.747C398.864 366.93 396.562 366.355 394.821 366.875C391.753 367.789 391.616 371.573 390.849 374.339C389.479 379.283 388.907 384.635 388.727 389.75C388.436 398.023 389.421 408.563 394.18 415.577C405.283 431.941 426.757 437.621 443.523 446.042C452.435 450.519 460.699 456.143 468.634 462.155C469.418 462.749 470.591 463.913 471.532 464.376C474.713 465.941 471.935 465.371 473.971 464.337C475.539 463.541 476.881 461.812 478.501 460.911C482.232 458.834 486.422 457.713 490.217 455.751C499.04 451.188 506.846 445.526 514.677 439.483C522.701 433.29 530.828 427.636 538.148 420.587C541.235 417.615 544.71 415.165 547.841 412.321C550.995 409.455 546.959 408.266 544.288 406.157C535.198 398.978 526.221 391.571 516.514 385.226C513.276 383.109 510.42 380.254 507.042 378.383C503.514 376.429 501.42 378.18 498.641 380.665C495.604 383.38 492.709 386.042 489.329 388.365C484.865 391.434 479.675 392.911 475.187 395.833C478.068 398.849 485.094 399.858 486.113 404.427C487.147 409.057 480.252 412.67 477.029 414.458C471.339 417.616 465.062 419.533 458.721 420.903C453.445 422.042 445.623 420.327 441.395 424.309C440.189 421.759 439.059 420.427 441.043 417.988C443.025 415.553 446.558 415.134 449.355 414.197C456.908 411.666 464.348 408.294 471.657 405.133C470.687 402.863 468.262 401.309 466.414 399.831C463.775 397.72 461.558 395.381 459.41 392.756C455.312 387.749 451.637 382.408 447.734 377.254C446.042 375.018 444.498 372.786 441.407 374.024C438.678 375.117 436.015 377.95 433.393 379.418C427.462 382.738 422.274 385.925 415.746 388.037C413.116 388.888 402.345 391.312 405.21 384.728C406.059 382.776 408.897 381.972 410.645 381.119C413.875 379.541 417.095 377.933 420.207 376.131C426.6 372.431 432.238 367.65 438.219 363.346C444.817 358.598 451.528 353.99 457.723 348.713C451.559 344.63 444.721 341.64 438.347 337.906C431.904 334.131 425.414 330.719 418.75 327.366C413.444 324.696 408.051 321.849 403.213 318.399C401.29 317.026 394.673 311.324 392.564 314.893ZM586.377 182.097C585.566 182.301 584.764 182.533 583.968 182.791C589.372 191.053 583.406 201.281 585.097 210.22C590.086 207.27 590.739 195.795 598.314 197.917C606.472 200.202 602.412 210.243 604.882 215.986C608.738 212.616 613.239 215.766 614.83 219.764C616.552 224.096 614.164 228.095 614.967 232.382C615.797 236.818 618.276 233.907 619.65 231.291C621.401 227.956 622.931 223.448 622.286 219.633C621.501 214.994 618.386 210.68 616.456 206.466C614.539 202.279 612.723 198.006 609.949 194.291C604.693 187.257 595.565 180.937 586.377 182.097ZM638.634 281.17C635.107 272.365 629.886 264.302 626.55 255.427C625.575 252.832 625.03 248.695 622.45 247.096C620.755 246.045 618.499 246.676 616.63 246.111C614.766 245.548 612.802 244.206 611.465 242.821C609.02 240.288 608.227 236.812 605.343 234.606C601.621 231.759 598.746 230.667 596.975 225.91C595.585 222.174 595.582 221.626 591.404 222.46C586.843 223.37 583.138 222.255 579.991 218.692C574.662 212.659 574.073 204.16 576.688 196.878C577.911 193.472 580.039 189.51 578.272 185.945C576.629 182.632 572.642 180.254 570.115 177.614C563.728 170.941 558.729 163.132 552.74 156.13C551.306 154.455 549.841 152.784 548.736 150.864C548.034 149.644 547.62 147.546 545.993 147.201C543.194 146.607 539.285 151.448 537.877 153.211C527.567 166.115 534.943 183.69 536.199 198.237C536.838 205.645 538.275 214.526 534.989 221.502C531.894 228.075 524.058 231.356 517.455 233.186C508.548 235.655 498.982 235.546 489.919 234.047C485.172 233.262 480.616 231.922 476.123 230.224C471.525 228.486 466.743 225.497 462.057 228.65C456.009 232.721 457.878 240.888 459.206 246.84C461.376 256.563 465.165 265.632 468.517 274.973C471.332 282.818 473.611 292.66 467.693 299.68C461.782 306.691 451.979 311.079 442.855 310.715C423.939 309.961 406.672 295.857 387.342 301.626C390.974 303.127 394.813 304.01 398.362 305.729C402.646 307.803 406.611 310.56 410.77 312.868C418.753 317.296 426.764 321.661 434.566 326.406C441.616 330.692 448.281 335.388 455.009 340.139C463.393 346.058 467.809 339.502 473.187 333.108C484.929 319.151 496.106 304.371 506.774 289.58C516.049 276.722 524.658 263.296 531.365 248.931C533.765 243.791 537.806 235.072 544.829 236.086C551.063 236.986 554.699 244.508 557.922 249.112C560.171 247.5 562.099 245.346 565.135 246.233C567.654 246.967 569.395 249.551 570.51 251.755C571.276 253.27 571.798 258.375 573.08 259.143C573.991 259.69 577.475 258.515 579.028 258.874C584.343 260.102 586.042 266.934 585.988 271.675C585.913 278.211 583.182 284.75 580.944 290.802C575.928 304.369 567.334 314.972 557.861 325.692C548.246 336.571 538.181 346.432 527.337 356.086C524.661 358.468 522.011 360.878 519.402 363.334C517.262 365.347 513.874 367.442 512.2 369.808C509.101 374.185 517.391 376.172 520.476 377.774C533.749 384.666 545.981 393.744 557.67 403C569.725 412.546 581.847 422.129 593.43 432.244C604.761 442.139 615.464 452.685 627.397 461.887C639.656 471.34 652.501 480.068 665.099 489.063C677.709 498.067 689.979 507.54 702.574 516.556C714.883 525.366 728.096 532.919 741.043 540.741C747.815 544.834 754.623 548.867 761.427 552.907C766.929 556.174 772.9 561.251 779.423 561.664C785.3 562.036 790.874 564.199 794.387 557.809C797.053 552.958 795.949 546.285 793.614 541.573C790.765 535.821 786.307 530.533 782.726 525.21C778.607 519.09 774.785 512.793 770.72 506.641C766.823 500.742 762.491 495.298 758.143 489.739C753.735 484.103 750.39 477.751 746.461 471.784C738.064 459.027 729.43 446.501 721.469 433.459C703.211 403.547 686.859 372.668 671.233 341.325C669.857 338.563 637.735 281.661 638.634 281.17ZM612.927 465.07C622.74 498.988 617.081 533.478 615.069 567.983C614.052 585.429 613.897 602.984 613.446 620.454C613.226 628.946 613.242 637.445 613.594 645.934C613.772 650.204 614.084 654.46 614.388 658.722C614.657 662.491 613.646 666.658 614.121 670.294C614.73 674.952 623.978 675.866 621.137 681.844C619.231 685.855 612.556 686.467 608.98 688.158C610.57 689.999 613.057 692.754 615.709 692.928C618.097 693.083 619.942 691.012 622.083 690.229C623.984 689.533 626.599 688.859 627.799 691.078C629.056 693.401 626.424 695.983 625.383 697.783C628.922 698.468 631.37 696.355 634.563 696.549C637.922 696.753 638.074 700.058 640.282 701.971C642.806 704.158 647.214 704.628 650.326 705.548C653.947 706.618 657.586 707.946 660.883 709.804C666.778 713.125 671.841 719.4 674.02 725.822C676.277 732.478 672.752 738.238 667.501 742.323C665.544 743.844 662.74 745.612 660.145 744.792C657.179 743.854 656.716 741.441 653.102 741.62C649.856 741.781 646.775 743.077 643.512 743.243C638.716 743.488 633.925 742.614 629.124 742.798C609.75 743.542 590.374 743.708 571.033 741.845C566.028 741.363 561.123 740.969 556.19 740.811C552.354 740.689 552.033 737.828 551.383 734.236C549.813 725.562 553.285 717.022 551.566 708.593C551.68 709.149 548.964 707.702 548.637 707.427C546.643 705.749 545.977 703.365 545.384 700.887C543.802 694.29 543.818 687.568 544.307 680.84C545.419 665.568 548.26 650.438 548.028 635.086C547.91 627.348 548.144 619.628 548.146 611.893C548.148 604.788 548.791 597.776 548.851 590.72C548.982 575.25 550.611 559.953 551.065 544.5C547.845 547.632 546.137 552 544.092 555.909C541.576 560.715 538.77 565.472 535.697 569.944C529.353 579.18 520.841 586.697 512.023 593.511C495.195 606.514 476.913 616.585 456.296 622.1C433.977 628.07 411.405 632.101 388.396 634.365C383.072 634.889 377.689 635.173 372.354 634.654C368.86 634.315 363.181 631.492 359.861 632.924C356.088 634.552 355.329 638.467 350.382 637.369C348.494 636.95 347.127 635.689 345.474 634.839C343.043 633.588 342.946 634.452 340.625 634.611C338.037 634.789 336.486 633.496 334.23 635.58C332.315 637.349 332.501 638.589 334.25 640.245C336.709 642.573 340.645 642.963 343.106 645.394C345.501 647.758 345.072 650.664 341.373 650.699C337.651 650.735 334.343 648.085 330.706 647.74C331.481 658.5 334.719 670.521 331.129 681.078C329.463 685.975 325.89 689.13 320.561 689.096C311.643 689.039 303.821 680.835 298.45 674.445C295.481 670.913 293.074 666.944 290.208 663.324C287.277 659.624 284.134 655.903 282.456 651.428C280.671 646.667 281.192 641.889 282.19 637.002C283.425 630.952 284.573 624.841 286.066 618.849C288.961 607.23 294.784 596.623 297.724 585.039C298.836 580.656 298.822 575.513 301.629 571.755C304.6 567.775 309.223 567.52 313.808 567.775C319.483 568.09 325.154 568.718 330.799 569.36C334.364 569.765 342.175 572.336 345.076 570.145C346.075 569.391 346.077 567.414 347.245 566.732C348.371 566.074 350.189 566.546 351.42 566.638C357.515 567.09 363.663 567.639 369.77 567.817C392.47 568.481 416.424 564.943 436.691 554.398C446.096 549.504 453.261 541.8 460.82 534.524C468.253 527.369 474.731 519.668 476.731 509.281C478.557 499.798 477.866 488.457 474.833 479.278C471.879 470.337 461.394 464.921 453.763 460.512C443.181 454.398 431.947 449.331 420.546 444.942C418.736 444.246 416.536 443.359 414.546 443.715C412.105 444.152 410.466 446.266 408.246 447.2C405.607 448.309 402.37 448.315 399.585 448.963C396.885 449.591 394.253 450.455 391.503 450.87C382.842 452.176 370.671 451.133 363.513 445.601C351.813 436.559 358.882 423.762 362.641 412.756C358.667 412.622 355.358 413.551 351.565 411.851C347.786 410.156 344.831 407.156 343.108 403.398C339.974 396.56 341.784 388.703 342.709 381.573C343.127 378.349 343.604 375.15 344.834 372.122C345.787 369.777 347.351 367.542 347.929 365.062C348.565 362.33 347.74 362.171 345.462 360.865C341.949 358.851 339.421 356.535 337.271 353C333.06 346.077 332.956 338.52 336.406 331.237C337.803 328.29 341.135 324.237 340.756 320.795C340.43 317.833 337.078 315.526 335.104 313.587C329.008 307.598 322.527 302.069 315.767 296.845C312.608 294.403 309.128 292.187 306.257 289.413C304.153 287.381 302.016 282.96 299.139 281.891C296.259 280.822 294.341 284.038 292.335 285.762C289.208 288.449 286.211 291.541 282.803 293.87C276.691 298.048 269.113 297.266 262.21 295.932C255 294.537 248.313 292.082 242.165 288.031C239.723 286.421 236.87 283.152 233.863 282.89C230.651 282.611 227.161 285.804 224.865 287.721C218.872 292.726 217.073 300.5 213.582 307.224C209.684 314.733 208.028 322.527 209.089 330.968C210.043 338.562 212.968 344.3 217.319 350.434C218.219 351.703 220.326 354.1 218.786 355.503C216.902 357.22 213.042 353.777 211.777 352.665C199.212 341.614 192.071 324.963 196.15 308.294C198.339 299.344 202.622 291.063 207.596 283.362C209.711 280.086 211.774 276.811 215.452 275.14C219.639 273.239 224.383 273.465 228.855 273.009C225.762 257.867 224.794 241.39 234.299 228.193C241.593 218.066 256.531 209.205 268.369 217.417C267.884 206.254 266.293 195.653 269.264 184.661C270.595 179.736 272.419 174.943 274.661 170.358C276.857 165.866 279.89 162.056 281.664 157.38C288.664 138.934 302.095 122.457 316.44 109.218C330.941 95.8358 345.17 79.5099 363.436 71.1377C382.492 62.402 401.899 54.5519 422.561 50.5827C444.006 46.4626 466.049 45.6169 487.653 49.5177C506.591 52.9375 524.118 64.4357 538.448 76.8317C554.8 90.9766 565.357 108.029 573.708 127.782C575.542 132.121 577.311 136.497 579.561 140.644C582.057 145.245 585.263 149.524 587.099 154.461C588.736 158.864 589.012 163.641 586.096 167.575C584.046 170.341 579.84 170.965 578.048 173.495C577.143 174.771 577.234 175.985 579.223 176.365C581.277 176.757 582.256 174.466 583.733 173.547C587.409 171.259 592.596 173.209 596.312 174.508C605.125 177.589 612.023 183.123 617.297 190.793C622.344 198.134 625.696 206.474 629.028 214.683C631.131 219.862 633.132 225.007 634.29 230.494C634.725 232.558 635.332 238.154 632.07 235.702C630.747 234.708 628.857 242.252 629.214 243.453C630.454 247.631 634.878 251.548 637.481 254.931C643.603 262.883 647.703 271.791 652.021 280.785C661.375 300.261 671.791 319.168 681.798 338.307C702.177 377.282 724.448 414.76 747.808 452.014C759.382 470.471 771.314 488.613 783.686 506.546C789.146 514.459 794.622 522.377 799.962 530.371C804.501 537.164 808.98 544.728 807.812 553.206C806.743 560.969 802.131 567.204 794.673 569.743C790.677 571.104 785.932 572.672 781.655 572.254C776.978 571.797 772.851 568.668 768.953 566.319C751.037 555.522 733.119 544.736 715.192 533.959C695.143 521.906 676.807 507.595 657.679 494.194C647.946 487.376 637.91 481.231 627.769 475.059C625.485 473.669 615.124 463.711 612.927 465.07Z" fill="black"/>
<path fill-rule="evenodd" clip-rule="evenodd" d="M439.331 499.383C434.434 506.593 429.284 513.369 422.391 518.84C415.129 524.603 407.535 529.272 399.427 533.744C385.128 541.63 365.961 548.614 349.353 545.039C344.63 544.023 337.074 539.89 341.18 533.99C343.244 531.025 347.671 531.798 350.805 531.961C355.854 532.225 360.269 532.512 365.107 530.814C373.996 527.691 382.946 524.746 391.626 521.071C400.033 517.51 407.406 512.627 415.119 507.83C422.353 503.331 427.871 497.946 434.226 492.507C435.966 491.018 438.958 488.411 440.604 491.308C441.794 493.401 439.983 497.336 439.331 499.383Z" fill="black"/>
<path fill-rule="evenodd" clip-rule="evenodd" d="M637.212 153.069C636.665 156.192 635.185 162.406 630.791 161.557C625.185 160.475 627.947 149.501 627.861 145.776C627.489 129.544 622.197 113.936 614.36 99.8626C610.463 92.8661 605.663 86.3959 602.122 79.1991C601.434 77.8007 599.346 74.3326 600.863 72.8155C602.685 70.9937 606.176 73.7429 607.46 75.0431C612.422 80.0705 616.375 87.6075 620.205 93.5234C625.32 101.421 629.838 109.763 633.082 118.619C636.999 129.316 639.199 141.723 637.212 153.069Z" fill="black"/>
<path fill-rule="evenodd" clip-rule="evenodd" d="M647.699 101.161C648.223 103.976 650.785 111.635 646.216 112.314C641.037 113.084 639.428 100.323 637.99 96.942C637.232 95.1597 633.192 87.31 635.298 85.6013C639.683 82.0439 646.66 98.8962 647.699 101.161Z" fill="black"/>
<path fill-rule="evenodd" clip-rule="evenodd" d="M403.948 480.991C399.032 485.47 393.325 485.207 387.12 484.781C383.969 484.564 376.672 482.698 381.743 478.79C384.392 476.749 405.175 475.345 403.948 480.991Z" fill="black"/>
<path fill-rule="evenodd" clip-rule="evenodd" d="M787 563C787.35 562.305 790.299 558.969 790.935 560.318C791.536 561.59 787.779 562.962 787 563Z" fill="black"/>
<path fill-rule="evenodd" clip-rule="evenodd" d="M396 315.392C395.395 316.639 392.87 315.55 392 315.739C393.182 313.208 394.587 313.75 396 315.392Z" fill="black"/>
<path fill-rule="evenodd" clip-rule="evenodd" d="M586 183C585.737 184 585.475 185 585.213 186C584.809 185.251 584.404 184.502 584 183.752C584.666 183.502 585.334 183.251 586 183Z" fill="black"/>
<path fill-rule="evenodd" clip-rule="evenodd" d="M590.828 371.935C597.137 372.571 603.467 372.893 609.801 373.088C615.148 373.252 617.344 372.241 618.027 366.684C618.836 360.096 619.112 353.449 619.921 346.858C620.288 343.864 623.192 337.881 619.694 336.278C616.762 334.935 612.189 336.859 609.118 337.085C605.697 337.337 600.535 336.294 597.511 338.322C594.278 340.49 594.982 348.082 594.431 351.645C593.381 358.438 592.115 365.185 590.828 371.935ZM587.818 339.938C582.1 340.37 576.363 340.711 570.661 341.32C568.123 341.592 562.987 342.847 560.848 341C555.827 336.667 574.592 335.146 576.721 334.804C580.309 334.228 586.449 334.993 588.749 331.606C591.024 328.256 590.449 322.627 591.037 318.738C591.922 312.885 592.934 307.04 593.525 301.149C593.723 299.169 593.44 292.628 595.531 291.656C600.337 289.422 598.827 312.443 598.748 314.171C598.613 317.142 598.464 320.127 598.05 323.073C597.817 324.734 596.996 326.98 597.502 328.648C598.951 333.431 607.183 330.673 610.933 330.291C615.135 329.863 621.624 331.491 623.015 326.306C624.763 319.79 624.509 312.39 625.157 305.686C625.336 303.832 625.804 289.986 629.221 291.059C633.036 292.258 631.547 303.828 631.512 306.807C631.473 310.169 631.486 313.533 631.258 316.889C631.054 319.904 630.204 323.599 630.833 326.586C631.936 331.823 638.145 329.038 639.947 333.204C641.659 337.163 632.325 334.059 630.582 335.419C627.979 337.45 628.605 345.936 628.233 348.907C627.417 355.434 625.85 362.211 625.34 368.718C624.939 373.855 629.068 373.173 633.27 372.801C636.874 372.482 640.833 371.626 644.445 372.107C647.347 372.492 651.402 375.166 647.177 376.945C640.571 379.728 627.12 374.043 623.801 382.494C623.175 384.088 620.262 402.576 616.602 393.45C615.072 389.635 618.818 383.65 614.823 380.727C613.438 379.713 611.375 379.892 609.768 379.78C605.811 379.504 601.829 379.41 597.864 379.328C593.911 379.246 590.359 378.45 588.832 382.78C587.643 386.154 587.775 389.929 586.825 393.382C586.112 395.97 583.772 400.5 581.345 396.266C579.751 393.485 580.971 388.626 581.286 385.602C581.443 384.088 582.346 380.955 581.197 379.683C579.964 378.318 576.664 379.057 575.104 379.18C570.601 379.537 562.215 381.704 558.768 377.62C555.885 374.203 561.879 374.138 564.236 373.907C566.664 373.669 569.093 373.449 571.519 373.194C574.19 372.912 577.726 373.288 580.24 372.451C584.462 371.045 584.161 365.305 584.438 361.582C584.981 354.309 586.617 347.125 587.818 339.938Z" fill="black"/>
<path fill-rule="evenodd" clip-rule="evenodd" d="M662 355.471C661.659 359.67 661.204 364.378 659.848 368.369C658.822 371.385 656.751 372.302 656.045 368.461C655.597 366.027 658.572 352.308 662 355.471Z" fill="black"/>
<path fill-rule="evenodd" clip-rule="evenodd" d="M395.428 327.822C393.744 326.613 385.769 320.254 391.533 320.003C394.476 319.874 400.817 324.715 400.999 327.401C401.045 328.079 399.595 328.43 399.674 329.086C399.824 330.335 401.673 330.926 402.269 331.919C403.582 334.109 403.037 338.436 401.341 340.518C397.473 345.266 393.178 337.228 396.172 335.651C395.505 336.002 386.551 331.451 386.215 330.423C384.373 324.79 394.975 330.097 395.428 327.822Z" fill="black"/>
<path fill-rule="evenodd" clip-rule="evenodd" d="M409.484 349.988C407.439 350.052 403.331 349.91 401.799 348.45C398.951 345.735 404.506 345.375 406.131 344.11C408.409 342.339 408.856 336.577 412.432 340.142C415.979 343.679 412.86 347.793 409.484 349.988Z" fill="black"/>
<path fill-rule="evenodd" clip-rule="evenodd" d="M380 335.026C383.698 334.484 391.925 342.456 387.933 342.986C385.291 343.337 380.577 337.156 380 335.026Z" fill="black"/>
</svg>
