<svg width="1024" height="768" viewBox="0 0 1024 768" fill="none" xmlns="http://www.w3.org/2000/svg"><path fill-rule="evenodd" clip-rule="evenodd" d="M621.816 498.242C620.209 521.815 588.222 534.071 568.821 539.1C572.71 515.975 577.732 492.002 574.607 468.549C573.579 460.824 572.229 453.14 570.779 445.484C570.243 442.653 569.69 439.825 569.117 437.001C568.978 436.314 567.853 433.309 568.211 432.624C568.852 431.399 574.279 431.591 575.662 431.645C579.225 431.781 582.722 432.682 585.982 434.106C592.835 437.098 598.608 442.249 603.364 447.935C614.582 461.342 623.029 480.466 621.816 498.242ZM584.783 338C566.214 348.996 543.846 354.897 522.666 357.773C490.401 362.155 457.457 357.111 425.913 350.121C418.168 348.405 410.439 346.555 402.808 344.384C402.464 366.739 408.753 387.998 421.036 406.641C431.191 422.055 444.444 434.937 456.028 449.215C466.812 462.506 475.51 477.499 475.942 495.042C476.122 502.363 475.52 509.062 469.39 513.806C463.23 518.574 454.91 520.342 447.372 521.428C428.498 524.148 408.73 522.678 389.974 519.684C386.332 519.102 382.697 518.44 379.103 517.612C375.022 516.673 373.592 515.566 370.184 518.629C362.829 525.239 359.455 535.153 357.789 544.637C354.667 562.399 355.726 583.12 360.226 600.644C364.562 617.525 385.024 626.881 400.183 630.961C445.907 643.266 496.354 626.272 531.439 596.02C532.203 595.36 532.962 594.692 533.703 594.004C536.195 599.193 538.916 604.291 541.89 609.219C543.959 612.648 546.137 616.094 548.746 619.146C549.688 620.247 550.794 621.736 552.082 622.458C554.48 623.801 556.918 622.814 559.632 622.342C579.657 618.865 599.635 614.292 618.676 607.091C647.623 596.143 673.585 578.107 687.305 549.617C694.236 535.226 697.849 519.458 699.598 503.645C701.605 485.489 702.039 466.929 696.929 449.233C687.567 416.803 663.68 390.513 637.521 370.236C621.335 357.688 603.54 346.35 584.783 338Z" fill="#2357F5" fill-opacity="0.788235"/><path fill-rule="evenodd" clip-rule="evenodd" d="M911.98 123.252C907.748 124.934 903.191 125.402 898.689 125.731C895.157 125.989 892.385 127.405 889.057 127.485C879.791 127.706 870.485 128.122 861.264 129.507C852.002 130.898 843.472 129.081 836.159 136.04C833.556 138.516 830.293 141.363 831.857 145.36C832.575 147.19 833.586 148.503 834.182 150.468C834.856 152.689 835.694 154.787 836.668 156.902C838.537 160.958 847.899 176.064 840.302 177.912C832.066 179.915 820.896 177.574 812.962 175.282C808.333 173.945 803.777 172.378 799.215 170.834C795.603 169.612 790.858 168.919 787.53 167.005C785.322 165.734 784.865 163.566 783.406 161.506C780.752 157.759 778.272 154.568 774.842 151.45C767.728 144.983 758.833 140.592 750.062 136.733C749.496 136.482 748.462 135.899 747.851 135.841C747.191 135.78 746.464 136.46 746.037 136.377C744.868 136.15 744.46 135.414 743.18 134.687C741.46 133.711 734.449 130.462 733.223 133.016C734.37 129.661 735.208 130.629 738.313 131.116C739.681 131.332 740.596 130.705 741.825 130.768C742.957 130.825 743.422 131.47 744.368 131.644C746.101 131.962 747.715 131.722 749.524 131.709C750.01 130.636 750.7 130.644 751.593 131.732C752.092 131.894 752.591 132.055 753.089 132.218C754.891 132.712 756.817 132.617 758.661 132.762C761.432 132.982 768.651 136.36 770.041 132.941C771.523 129.29 767.021 128.38 766.27 125.832C765.538 123.332 768.968 121.865 770.344 120.356C771.912 118.639 772.87 117.132 774.71 115.62C775.788 114.732 777.201 113.905 778 112.722C778.735 111.634 778.703 109.875 779.657 108.969C780.794 107.888 780.969 108.636 782.003 108.114C784.03 107.088 783.135 107.14 784.334 105.738C785.359 104.54 786.116 104.576 787.458 103.658C789.422 102.313 790.113 99.6854 792.021 98.2402C793.417 97.1821 795.641 97.1839 796.866 96.085C797.588 95.4377 797.365 94.3887 797.989 93.7776C799.186 92.6034 800.007 93.0803 801.502 92.6932C804.023 92.0404 804.839 90.6468 806.695 89.033C808.391 87.5596 809.467 87.566 811.59 86.9549C814.489 86.1208 816.363 83.9357 818.979 82.6519C821.443 81.4442 823.987 80.5974 826.479 79.3108C828.279 78.3815 830.013 77.8048 831.656 76.8564C832.211 76.5364 832.259 75.3641 832.975 75.2054C833.797 75.0223 834.454 76.3886 835.329 76.4602C837.161 76.6107 839.247 74.578 840.451 73.4011C840.974 72.8898 841.681 71.5071 842.355 71.2215C843.762 70.6231 844.602 71.8081 845.857 71.3403C847.618 70.6839 846.918 68.7617 847.997 67.7018C848.94 66.777 850.944 66.8396 852.62 67.1324C859.37 68.3093 848.864 73.0784 846.889 74.0431C843.566 75.6678 819.388 87.4871 825.044 93.3814C828.037 96.4994 835.343 94.1547 838.596 93.3333C844.3 91.8926 850.245 89.1191 856.095 88.4826C856.818 88.4038 858.976 88.9215 859.564 88.6957C860.893 88.1871 860.562 87.1698 861.642 86.6348C863.269 85.8315 866.592 85.8705 868.243 86.051C869.534 86.1924 870.948 86.9631 872.26 86.8588C873.707 86.7436 875.104 85.9023 876.539 85.6312C878.993 85.1688 881.534 85.3954 884.013 85.4671C887.578 85.5713 894.705 86.1099 889.525 90.8463C885.333 94.6797 878.081 96.3389 872.793 98.0117C864.97 100.484 857.285 102.734 849.563 105.551C844.301 107.469 833.077 110.839 839.341 118.031C839.96 117.447 840.578 116.864 841.195 116.28C841.926 117.019 842.681 118.457 843.851 118.499C844.824 118.533 844.467 117.487 845.387 117.16C848.281 116.133 852.247 116.211 855.298 116.018C862.941 115.534 870.557 114.521 878.21 114.207C885.418 113.912 892.702 114.296 899.768 115.808C901.586 116.197 918.533 120.648 911.98 123.252ZM849.478 197.203C849.862 200.413 848.438 203.01 848.042 206.111C847.564 209.86 847.915 213.162 846.852 216.889C844.786 224.134 843.317 231.546 841.1 238.749C837.185 251.467 830.864 262.699 824.364 274.238C821.049 280.121 816.056 284.979 811.492 289.9C806.817 294.943 803.081 299.907 797.491 304.048C786.32 312.324 774.266 319.685 761.041 324.156C747.199 328.837 732.642 330.255 718.102 329.66C711.65 329.396 704.81 330.049 698.46 329.006C691.708 327.895 684.391 326.532 677.755 324.892C665.573 321.885 653.836 316.779 641.939 312.22C628.653 307.127 616.691 300.626 604.575 293.282C601.37 291.339 597.982 290.432 594.977 288.08C592.442 286.099 589.949 284.204 587.284 282.394C584.225 280.318 581.297 278.048 578.172 276.075C576.305 274.895 573.678 273.741 572.698 271.606C571.349 268.669 572.975 264.981 573.815 262.132C574.909 258.424 576.073 254.762 577.388 251.127C579.615 244.972 585.282 235.479 582.165 228.972C575.594 233.043 572.696 241.046 569.887 247.849C566.532 255.977 564.19 264.085 563.684 272.9C562.668 290.632 565.635 309.296 572.068 325.83C573.024 328.285 574.703 330.948 573.469 333.575C572.174 336.331 568.66 338.659 565.959 339.851C557.414 343.62 548.835 344.718 539.911 346.803C537.481 347.37 534.821 349.075 532.541 349.29C531.002 349.435 529.73 348.93 527.967 348.942C526.197 348.954 524.812 349.945 523.228 350.051C521.845 350.145 520.618 349.336 519.299 349.412C516.349 349.584 515.805 354.641 514.342 350.189C514.077 350.372 512.612 352.033 512.428 352.033C512.011 352.034 511.276 350.796 510.878 350.576C510.102 350.146 509.08 350.121 508.213 350.009C506.3 349.76 504.236 349.735 502.352 350.174C498.858 350.988 495.345 350.645 492.357 350.586C491.678 350.573 491.196 351.12 490.35 351.088C489.966 351.072 489.412 350.391 489.003 350.286C486.641 349.677 484.189 350.132 481.784 349.999C476.131 349.687 470.673 349.536 465.153 348.287C453.842 345.726 442.309 345.213 430.952 342.871C425.166 341.677 419.514 341.026 413.817 339.453C411.815 338.9 409.763 338.639 407.989 337.885C406.295 337.164 406.961 336.204 404.332 338.132C403.151 335.237 403.011 335.532 400.16 334.575C399.057 334.204 396.523 333.284 395.702 332.555C395.62 332.482 393.865 328.075 393.714 327.533C392.983 324.901 393.592 321.892 393.897 319.243C394.586 313.271 395.582 307.346 395.641 301.326C395.667 298.671 396.146 298.594 396.972 296.593C397.227 295.973 397.978 296.022 398.04 295.078C398.125 293.819 396.837 292.943 396.976 291.473C397.161 289.495 399.147 287.491 399.844 285.648C400.682 283.429 400.671 281.082 401.171 278.785C401.84 275.729 403.132 272.861 403.783 269.792C404.337 267.193 404.39 265.126 405.774 262.896C407.159 260.67 406.751 258.853 407.854 256.636C408.866 254.603 410.146 253.873 410.839 251.418C412.517 245.479 415.067 239.599 418.679 234.564C421.856 247.189 425.236 260.232 434.082 270.212C437.726 274.321 442.43 278.467 447.924 279.719C454.136 281.134 459.104 277.47 463.149 273.13C472.787 262.787 476.779 251.242 477.361 237.218C477.506 233.732 477.485 230.241 477.438 226.753C477.416 225.201 476.62 221.217 477.684 219.912C478.85 218.481 482.178 219.375 483.91 218.432C486.039 217.27 488.379 214.163 487.429 211.601C493.105 214.171 498.532 217.554 504.844 218.27C507.343 218.554 510.004 218.122 512.239 218.003C512.172 218.006 513.969 218.373 514.077 218.397C514.52 217.886 515 217.762 515.516 218.024C515.975 218.072 516.309 218.319 516.519 218.764C525.516 219.663 534.575 215.217 542.276 210.508C546.775 207.756 551.717 203.683 552.98 198.326C553.431 196.415 553.041 194.614 555.017 193.639C556.622 192.845 559.722 193.99 561.415 194.114C567.375 194.551 573.247 193.985 579.065 195.761C582.615 196.845 588.813 204.44 591.289 199.097C592.363 200.105 591.78 201.9 592.923 202.881C593.92 203.736 597.271 204.338 598.649 205.07C600.784 206.202 602.036 207.709 603.905 209.07C606.201 210.743 608.604 210.872 610.827 212.835C618.526 219.633 627.544 224.557 636.14 230.195C646.339 236.883 655.365 244.767 666.309 250.222C677.502 255.8 688.332 260.46 700.563 263.362C706.111 264.679 711.801 265.778 717.497 266.184C720.183 266.374 722.746 266.278 725.337 267.084C726.911 267.574 727.42 267.819 728.966 267.864C729.867 267.89 731.171 267.37 732.281 267.39C734.56 267.431 735.724 267.337 737.781 268.091C740.108 268.944 742.043 269.457 744.693 269.53C747.741 269.616 749.536 268.445 752.305 267.723C754.537 267.141 756.547 267.419 758.544 266.21C767.422 260.84 774.555 252.639 779.211 243.329C784.556 232.644 788.674 219.618 789.511 207.644C789.991 200.79 788.479 194.106 785.862 187.813C785.123 186.038 780.691 178.477 782.056 177.104C783.606 175.543 788.674 179.12 790.103 179.897C794.636 182.361 802.823 183.15 806.001 187.295C806.81 185.742 811.311 188.044 812.755 188.692C813.949 189.228 814.287 190.197 815.789 190.313C817.206 190.422 818.667 189.293 819.968 188.933C819.017 191.586 822.214 191.71 824.405 191.851C825.982 191.952 827.678 191.704 829.083 191.604C831.772 191.413 831.816 190.809 834.272 189.431C834.176 190.44 834.286 191.426 834.599 192.388C836.177 190.103 839.189 191.69 841.322 190.686C839.781 188.347 846.362 187.706 847.895 188.198C851.753 189.437 849.137 194.359 849.478 197.203ZM547.367 357.969C549.913 357.21 552.475 356.516 555.028 355.791C553.094 357.566 551.085 360.769 548.323 361.269C544.991 361.87 543.679 359.068 547.367 357.969ZM421.682 359.241C425.968 359.754 430.635 359.361 434.392 361.892C432.561 363.998 431.372 366.203 428.318 364.995C425.752 363.981 423.64 361.088 421.682 359.241ZM564.872 474.569C562.058 472.045 562.429 470.916 563.751 467.649C564.319 466.244 565.219 461.875 567.354 463.155C568.112 463.609 569.03 468.369 569.166 469.334C569.468 471.49 568.134 477.495 564.872 474.569ZM580.745 459.912C579.751 456.258 579.785 452.28 578.808 448.537C577.777 444.584 576.508 440.618 576.143 436.533C591.014 439.16 599.459 453.918 605.9 466.234C609.322 472.778 612.678 480.016 613.969 487.332C615.228 494.461 613.043 499.874 610.504 506.227C609.21 509.471 607.071 510.596 604.574 512.739C602.361 514.638 601.532 517.842 599.226 519.548C597.523 520.809 595.309 521.463 593.528 522.736C591.768 523.993 590.008 525.239 588.192 526.414C586.115 527.755 579.893 532.647 577.09 531.603C574.991 530.822 575.926 528.254 576.455 526.644C577.568 523.25 578.35 519.982 579.037 516.444C580.872 507.004 581.866 497.622 582.342 488.02C582.806 478.644 583.239 469.065 580.745 459.912ZM568.308 502.492C568.531 502.956 569.46 506.919 567.387 506.105C565.947 505.538 568.097 503.22 568.308 502.492ZM577.069 345.14C578.824 344.415 579.526 346.56 581.07 346.624C583.118 346.709 583.548 344.431 585.697 344.364C590.952 344.199 598.566 349.277 602.839 351.927C600.747 354.572 599.884 357.278 600.924 360.534C601.841 363.403 605.342 366.611 605.214 369.651C605.082 372.699 601.293 374.662 600.112 377.374C599.026 379.865 598.612 384.847 601.964 385.945C607.73 387.834 609.049 377.034 613.418 376.95C615.286 376.915 617.714 380.427 619.057 381.521C622.066 383.97 625.459 385.759 628.958 387.385C631.32 388.482 634.608 390.645 636.359 387.695C637.763 385.333 636.616 381.589 635.252 379.556C633.687 377.224 619.664 366.55 620.549 365.61C621.021 365.108 624.513 366.491 625.008 366.911C626.126 367.857 626.537 369.398 627.657 370.406C629.368 371.945 631.578 372.554 633.693 373.266C638.107 374.749 640.901 379.967 645.179 382.397C647.647 383.798 649.153 386.489 651.241 388.573C653.974 391.301 656.759 394.16 656.348 398.177C656.062 400.961 655.649 407.445 654.075 409.794C652.366 412.343 649.523 411.366 646.926 411.968C644.005 412.645 641.668 414.924 642.25 418.18C642.854 421.565 645.561 421.807 648.389 421.892C656.365 422.133 653.428 427.198 656.209 432.761C657.72 435.782 660.241 436.968 661.975 433.432C663.372 430.587 660.877 426.102 662.393 423.673C664.239 420.712 674.12 421.518 676.181 423.817C677.743 425.561 678.571 427.959 680.128 429.783C682.493 432.552 683.465 436.434 684.884 439.829C686.39 443.434 687.704 447.091 688.857 450.826C689.668 453.45 691.418 457.604 687.228 455.363C684.301 453.799 682.115 450.269 678.407 450.157C674.739 450.047 672.649 453.857 673.721 457.17C674.757 460.376 679.486 461.788 680.033 465.039C680.635 468.595 674.544 472.223 672.695 474.838C668.436 480.858 671.998 487.636 678.978 482.525C681.452 480.714 684.043 477.06 686.834 475.916C691.249 474.104 691.223 480.815 693.338 483.285C694.477 484.613 694.888 483.263 694.214 485.249C693.965 485.981 692.704 486.21 692.562 487.12C692.46 487.787 693.057 488.14 693.078 488.656C693.148 490.406 693.152 490.664 692.758 492.566C692.323 494.674 692.481 497.294 692.35 499.437C692.049 504.334 691.985 509.011 691.47 513.906C691.185 516.63 690.587 522.18 693.803 523.508C692.658 525.302 691.134 530.292 688.884 529.917C689.066 531.098 688.964 532.607 690.111 533.379C690.386 532.659 690.66 531.939 690.933 531.218C691.564 532.864 691.009 533.054 690.972 534.175C691.019 532.787 689.706 536.11 690.416 535.7C689.812 536.205 689.016 536.493 688.108 537.147C686.84 538.059 686.172 539.319 685.188 540.553C683.407 542.783 683.51 545.036 681.951 547.362C679.739 550.661 676.901 553.918 674.571 557.215C672.674 559.899 669.059 561.446 667.539 564.331C666.572 566.166 666.187 568.3 664.538 569.59C662.175 571.438 659.018 573.179 656.452 575.088C654.838 576.287 653.611 577.952 652.001 579.116C651.185 579.706 648.73 580.304 648.727 581.505C645.638 580.64 643.45 577.484 641.021 575.564C639.398 574.28 635.532 572.613 635.765 570.041C635.957 567.936 638.949 565.325 639.638 563.118C640.223 561.249 641.036 557.761 639.42 556.163C636.028 552.813 632.182 560.004 630.361 561.918C626.605 565.866 625.008 561.885 621.92 559.018C616.987 554.439 613.886 559.19 615.622 564.892C616.502 567.778 619.851 570.352 620.068 573.3C620.307 576.54 616.797 578.167 615.408 580.755C614.097 583.196 613.491 587.484 615.956 589.504C618.675 591.732 621.039 589.096 622.817 587.04C624.198 585.442 625.733 581.927 627.976 581.727C630.786 581.478 635.394 586.582 637.532 588.157C634.284 589.097 632.329 591.817 629.583 593.559C626.04 595.807 621.093 596.339 617.128 597.882C613.392 599.337 610.031 600.521 606.474 602.325C602.253 604.465 597.09 605 592.62 606.558C588.63 607.95 584.844 609.902 580.768 611.051C576.174 612.346 571.407 613.125 566.774 614.296C562.813 615.296 558.167 616.258 554.085 616.265C549.956 616.272 550.042 613.716 548.722 610.309C547.153 606.263 544.555 602.711 542.898 598.763C541.321 595.008 543.702 593.582 545.986 590.709C548.137 588.001 547.568 587.577 550.342 589.479C553.994 591.981 556.406 590.288 559.247 587.41C561.775 584.853 562.703 582.726 566.34 584.508C569.98 586.29 573.447 589.19 577.357 590.353C580.438 591.268 582.733 590.603 583.249 587.233C583.806 583.592 581.73 581.008 579.113 578.845C577.121 577.201 572.77 575.249 572.042 572.58C571.275 569.769 575.315 565.666 575.747 562.522C576.291 558.552 574.582 555.634 570.816 558.382C568.084 560.375 566.266 564.698 562.473 564.966C563.526 560.547 565.811 556.62 567.771 552.57C569.414 549.181 570.823 545.332 575.233 544.954C576.663 544.832 577.593 544.981 578.957 544.735C580.758 544.411 583.202 544.153 585.128 543.667C589.658 542.522 593.659 539.024 597.83 537.019C598.787 539.593 600.479 546.924 604.374 542.644C607.255 539.478 604.064 534.029 606.718 530.507C612.193 523.24 624.117 528.576 631.31 524.829C634.441 523.198 636.99 517.996 632.575 516.427C629.995 515.511 622.546 518.894 620.994 516.4C619.887 514.621 624.524 507.673 625.084 505.763C626.828 499.819 626.545 493.648 626.545 487.526C630.045 488.958 634.474 492.31 638.246 492.769C642.124 493.24 642.806 488.686 641.79 485.695C640.389 481.574 635.722 478.197 632.523 475.542C631.112 474.373 627.42 472.489 626.647 470.71C625.849 468.873 626.992 467.983 627.888 466.387C629.288 463.892 632.68 457.443 628.989 455.106C625.594 452.955 623.689 458.983 621.526 460.272C617.856 462.46 616.598 457.448 615.139 454.897C612.49 450.266 608.819 446.133 605.524 441.966C602.524 438.173 600.676 435.606 600.238 430.773C599.906 427.112 599.158 424.278 603.474 423.446C611.126 421.972 622.329 425.605 628.545 419.378C631.805 416.113 629.476 412.737 625.36 412.905C619.953 413.126 614.812 413.393 609.37 412.954C606.477 412.721 600.429 413.424 598.968 410.442C597.088 406.602 600.276 400.433 596.814 397.068C592.395 392.771 591.312 402.482 591.166 405.163C591.058 407.117 591.559 410.091 590.344 411.781C589.209 413.357 587.136 413.334 585.459 413.904C581.235 415.34 579.053 420.531 584.657 421.629C586.542 421.999 589.171 421.461 590.737 422.859C592.378 424.322 591.752 426.922 591.905 428.894C587.98 424.343 579.819 426.36 574.503 424.67C571.703 423.78 571.23 422.594 570.052 419.882C568.627 416.6 565.378 412.45 565.253 408.821C565.148 405.74 567.714 403.421 568.911 400.765C569.939 398.486 570.869 394.777 570.717 392.22C570.35 386.052 559.224 392.348 556.932 394.708C552.773 398.991 547.645 404.531 549.9 410.598C551.911 416.011 552.978 419.08 546 418.655C543.446 418.499 538.082 419.005 536.1 417.926C534.629 417.126 535.182 415.69 535.133 413.61C535.092 411.808 535.228 409.077 534.072 407.502C530.002 401.964 529.05 415.746 526.764 417.239C523.194 419.574 515.635 417.127 516.218 424.056C516.729 430.119 524.922 427.643 527.189 432.859C528.28 435.372 528.048 438.297 529.423 440.722C531.382 444.178 533.793 443.994 535.092 440.391C536.004 437.86 534.788 435.259 535.49 432.871C536.503 429.418 541.327 429.738 544.295 429.348C547.902 428.873 551.046 427.965 554.477 426.855C558.71 425.485 558.48 427.734 559.169 430.99C559.969 434.768 561.191 438.41 561.941 442.244C562.639 445.817 564.492 449.665 564.794 453.241C565.024 455.975 564.098 455.725 561.835 457.303C559.36 459.027 556.637 463.509 553.766 464.246C549.447 465.355 545.094 455.48 541.165 460.533C539.477 462.702 540.13 467.321 541.33 469.562C542.915 472.523 545.829 473.276 543.387 476.668C541.551 479.216 539.244 481.19 539.072 484.619C538.911 487.802 541.075 490.813 544.459 489.878C547.193 489.124 548.809 486.323 550.879 484.623C554.453 481.688 557.387 484.407 561.045 486.068C563.924 487.376 569.216 488.229 570.66 491.305C572.494 495.208 570.143 496.717 566.736 495.607C568.064 499.971 566.317 502.506 565.838 507.016C565.45 510.667 564.611 514.007 564.076 517.537C563.366 522.25 563.291 521.739 558.441 521.899C554.321 522.035 550.315 521.925 546.2 521.744C542.575 521.585 540.109 521.913 539.946 517.537C539.874 515.606 541.091 509.059 537.286 509.845C533.935 510.537 534.9 516.519 533.779 518.767C532.158 522.021 529.415 521.026 526.364 521.829C523.26 522.647 520.751 524.939 521.551 528.481C522.407 532.262 525.872 531.999 528.884 532.874C533.522 534.22 532.505 541.044 535.212 544.751C536.317 546.263 537.48 547.791 539.335 546.55C542.736 544.273 539.525 538.711 540.424 535.92C541.369 532.985 544.556 533.586 547.568 533.205C552.015 532.644 556.669 530.499 561.099 530.525C560.25 533.082 557.87 534.568 557.013 537.26C556.554 538.703 556.983 541.398 556.345 542.591C555.66 543.873 553.499 544.257 552.605 546.04C551.435 548.375 551.074 550.876 549.705 553.163C546.469 558.571 543.682 564.1 540.242 569.453C536.69 574.981 532.862 580.242 528.394 585.034C524.059 589.684 522.766 587.432 519.041 583.631C517.525 582.084 514.304 580.293 513.883 577.983C513.466 575.705 515.35 573.847 516.381 571.993C517.749 569.535 520.218 565.306 519.616 562.357C518.487 556.819 513.537 561.918 511.66 563.991C508.382 567.612 506.55 571.42 501.596 568.56C498.425 566.728 494.426 561.715 490.264 563.569C486.475 565.257 487.536 570.133 489.867 572.607C491.173 573.993 493.033 574.786 494.418 576.083C497.4 578.879 495.712 579.638 494.351 582.769C493.237 585.333 493.076 590.372 495.129 592.508C499.17 596.708 502.294 588.235 506.044 588.062C507.822 587.981 515.211 592.83 515.738 594.576C516.662 597.639 508.69 601.297 506.572 602.735C501.645 606.079 496.278 609.488 490.736 611.705C484.196 614.322 489.07 606.076 485.495 603.336C480.845 599.772 480.485 609.536 480.008 611.962C478.74 618.414 471.925 618.582 466.427 620.182C462.927 621.201 459.424 622.283 455.888 623.169C452.887 623.921 449.527 623.903 446.618 624.834C444.067 625.651 442.321 627.308 439.468 627.327C438.54 627.334 437.734 627.019 436.839 626.998C435.035 626.954 433.381 627.986 431.656 627.879C428.788 627.7 430.036 626.796 429.037 624.794C428.1 622.916 425.716 622.226 423.861 621.639C418.542 619.958 414.114 621.431 413.342 614.668C413.104 612.591 413.418 604.063 409.467 605.06C404.853 606.222 408.913 616.358 406.049 618.898C404.655 620.134 402.551 619.517 400.871 619.883C398.113 620.482 396.904 622.565 393.885 622.425C391.338 622.308 388.967 621.177 386.747 620.054C383.438 618.379 379.49 617.27 376.731 614.715C372.949 611.211 371.29 605.757 369.678 601.021C367.306 594.045 366.295 587.094 365.914 579.779C365.781 577.229 364.698 575.431 364.245 573.091C363.764 570.603 365.186 570.104 365.513 567.747C365.831 565.455 365.677 563.007 366.159 560.551C366.852 557.02 367.094 553.408 367.766 549.866C368.878 544.009 370.564 538.192 371.948 532.388C372.378 530.584 373.157 524.804 375.382 524.249C377.024 523.839 380.815 526.284 382.336 527.002C385.345 528.421 387.931 530.381 391.15 531.364C392.811 531.871 394.908 531.821 395.998 533.363C397.721 535.804 396.328 540.584 397.042 543.468C397.916 546.999 400.81 548.501 403.142 544.954C404.385 543.064 404.054 540.809 404.221 538.719C404.459 535.705 404.512 534.976 407.773 535.179C411.076 535.386 414.301 536.633 417.688 536.785C420.742 536.921 423.811 536.837 426.862 536.67C434.271 536.264 441.047 535.059 447.995 532.421C452.702 530.634 458.16 526.727 463.347 526.865C470.669 527.059 468.687 533.838 469.689 538.909C470.3 541.996 475.461 551.47 477.444 543.781C478.424 539.977 475.157 534.432 477.093 530.997C479.379 526.938 487.782 530.306 491.605 529.366C494.699 528.605 499.87 524.218 497.685 520.433C496.65 518.64 494.64 518.98 492.848 518.846C489.451 518.592 486.077 518.128 482.708 517.632C480.792 517.35 477.863 517.185 477.097 514.984C476.447 513.116 479.496 508.272 480.158 506.485C482.346 500.568 483.135 495.756 483.144 489.304C483.146 486.397 483.336 483.329 482.869 480.453C482.697 479.399 481.115 475.958 481.856 474.951C482.852 473.596 484.89 475.316 485.708 476.331C487.333 478.354 486.768 478.192 485.844 480.288C484.484 483.371 481.841 489.837 486.324 492.21C491.012 494.692 492.706 486.304 497.148 487.224C499.219 487.653 501.263 490.376 502.932 491.648C504.886 493.138 506.995 494.718 509.291 495.632C513.058 497.132 517.291 496.008 515.769 491.27C514.569 487.534 510.772 484.409 508.057 481.76C503.732 477.541 503.928 475.768 506.916 470.798C508.167 468.718 512.969 459.886 507.403 459.168C504.457 458.787 501.271 463.564 499.715 465.392C497.044 468.529 495.513 469.876 491.539 467.357C487.655 464.895 485.852 462.837 481.154 462.61C475.749 462.349 473.317 454.227 470.452 450.056C462.667 438.726 450.749 433.122 440.7 424.441C435.803 420.21 432.496 414.675 428.772 409.467C426.998 406.986 424.709 404.926 423.264 402.223C422.355 400.523 419.892 396.426 420.533 394.42C421.331 391.923 425.638 390.382 427.429 388.618C428.933 387.139 429.736 385.294 432.101 385.859C434.206 386.363 436.103 389.212 437.824 390.464C439.513 391.693 441.419 392.833 443.292 393.752C446.68 395.414 450.77 396.302 450.969 391.248C451.142 386.875 447.154 382.192 444.273 379.242C442.176 377.095 439 375.229 439.416 371.82C439.621 370.129 441.057 367.119 441.895 365.701C444.784 360.82 453.604 363.798 458.397 364.111C464.172 364.489 470.539 363.519 475.129 367.605C476.626 368.938 480.096 371.556 480.831 373.411C481.686 375.57 480.289 376.541 479.513 378.631C478.509 381.331 477.819 386.664 480.708 388.526C485.53 391.633 488.044 382.416 493.057 384.432C497.81 386.344 501.133 391.841 506.559 392.711C513.66 393.849 509.616 385.047 507.159 382.457C503.972 379.099 497.792 375.627 499.815 370.662C500.393 369.243 501.714 366.283 502.902 365.402C505.228 363.677 508.977 364.624 511.64 364.652C518.361 364.724 524.706 364.171 531.293 362.996C533.279 362.641 533.73 362.36 535.13 363.84C537.068 365.886 538.085 368.554 540.339 370.566C537.083 374.075 532.256 378.218 534.521 383.62C536.468 388.268 540.738 385.988 543.627 383.505C544.984 382.339 546.385 379.871 548.183 379.403C550.517 378.795 553.14 380.916 555.051 381.992C557.919 383.609 564.052 388.401 567.31 385.572C571.618 381.83 566.52 376.2 563.552 373.889C561.757 372.491 559.366 371.494 557.855 369.769C555.845 367.473 557.024 367.136 558.242 365.067C560.471 361.281 559.654 356.405 563.22 353.448C565.197 351.808 568.024 350.777 570.282 349.575C572.504 348.39 574.889 346.041 577.069 345.14ZM613.401 359.863C612.534 359.332 611.667 358.801 610.8 358.269C612.782 357.303 614.09 357.418 613.401 359.863ZM661.245 405.864C661.594 404.097 662.957 400.936 664.833 402.589C666.041 403.651 664.721 407.64 667.595 406.537C667.743 409.078 665.85 408.862 668.642 411.123C665.12 410.715 660.258 410.874 661.245 405.864ZM524.534 620.077C525.421 617.697 525.414 614.007 528.144 616.182C528.287 613.3 527.605 604.161 532.837 604.532C534.97 604.683 534.946 606.565 535.51 608.195C536.493 611.038 538.153 613.628 539.551 616.278C534.36 616.488 529.165 617.676 524.534 620.077ZM526.234 652.924C529.201 655.166 530.688 652.519 533.489 651.553C536.074 650.662 538.757 651.196 541.621 650.563C545.173 649.779 549.356 649.898 552.826 649.867C553.681 649.86 555.469 649.995 556.333 650.095C557.907 650.275 557.766 650.601 559.396 651.039C560.025 650.894 560.66 650.788 561.302 650.723C562.088 650.689 562.708 651.014 563.162 651.699C564.627 652.187 565.16 651.862 566.563 652.204C569.904 653.02 572.398 655.033 574.58 657.702C579.023 663.134 579.155 671.298 579.053 678.022C579.024 679.937 578.878 681.842 579.09 683.752C579.283 685.504 580.521 688.151 580.016 689.893C579.249 692.528 576.876 691.935 574.112 692.053C572.485 692.123 570.861 693.172 569.566 693.266C568.314 693.356 567.809 692.894 566.542 692.61C563.235 691.87 559.333 692.926 556.071 693.826C552.724 694.75 549.789 695.661 546.395 696.315C544.186 696.74 542.199 696.982 539.971 697.26C538.144 697.489 537.356 698.451 535.762 698.847C534.225 699.228 532.726 698.657 531.175 698.957C529.061 699.366 527.588 700.917 525.662 701.689C523.007 702.754 518.763 701.163 517.586 704.446C517.126 701.28 514.089 702.14 511.828 701.86C508.103 701.398 504.432 699.726 500.849 698.661C497.911 697.788 487.753 689.736 485.808 693.004C485.811 692.674 486.164 690.802 485.857 690.586C484.773 689.824 484.782 690.243 483.615 689.766C481.83 689.036 481.077 688.377 479.802 687.146C477.221 684.659 473.748 683.358 471.03 681.102C464.2 675.433 461.862 663.756 460.196 655.628C458.017 659.491 458.819 654.534 459.196 652.877C460.088 648.969 458.941 647.041 458.682 643.266C458.443 639.792 460.026 639.105 463.162 638.742C467.025 638.294 470.743 637.669 474.527 636.705C478.14 635.784 481.68 634.745 484.941 632.913C487.925 631.237 491.056 630.578 494.107 629.111C497.472 627.492 500.772 625.79 504.167 624.214C505.697 623.504 512.435 618.419 513.605 618.729C516.006 619.365 513.739 623.57 513.007 624.674C511.126 627.508 508.037 628.822 505.251 630.606C502.738 632.213 495.116 639.83 502.854 639.066C507.981 638.56 511.454 633.186 514.734 639.31C515.892 641.473 517.596 643.208 516.265 645.443C514.406 648.561 509.044 650.047 506.233 652.145C503.837 653.933 498.935 662.364 503.875 663.268C505.295 663.527 507.484 663.191 508.54 662.087C509.252 661.343 509.202 659.811 509.922 659.302C510.943 658.579 512.925 659.474 514.091 659.078C515.751 658.513 516.141 657.607 516.751 656.012C518.524 656.821 518.549 657.906 520.573 656.863C521.244 656.517 521.491 655.247 522.268 654.908C523.312 654.453 523.623 655.945 524.196 655.725C525.748 655.13 525.742 654.459 526.234 652.924ZM419.821 628.128C416.848 628.351 413.601 628.59 411.064 626.695C414.146 626.881 416.865 627.577 419.954 626.94C421.182 626.687 423.148 625.528 424.406 625.931C428.877 627.365 421.011 628.038 419.821 628.128ZM411.564 366.575C411.52 365.529 410.633 351.459 415.439 356.986C416.755 358.498 415.336 360.523 415.149 362.195C414.833 365.013 415.821 367.838 417.305 370.21C418.69 372.423 421.276 374.361 420.889 377.247C420.549 379.779 417.994 381.941 416.735 384.042C413.639 379.162 411.813 372.448 411.564 366.575ZM401 218.91C389.863 220.082 378.782 222.156 368.044 225.357C357.501 228.499 347.673 233.412 337.766 238.119C335.724 229.376 333.586 220.656 331.569 211.906C330.599 207.695 329.672 203.473 328.764 199.247C328.117 196.243 325.766 190.641 326.747 187.686C327.268 186.12 327.955 186.113 329.075 185.146C329.759 184.556 330.951 183.112 331.66 182.803C333.387 182.052 337.822 181.394 339.589 181.501C341.2 181.598 342.042 182.238 343.699 181.775C345.11 181.381 346.295 180.295 347.619 179.7C350.988 178.185 355.194 177.677 358.797 176.875C362.265 176.104 365.845 175.932 369.321 175.168C372.365 174.498 373.812 172.257 376.409 172.338C383.167 172.549 390.64 171.757 397.345 170.142C404.868 168.331 413.052 168.681 420.77 168.487C423.845 168.41 426.006 167.718 426.022 171.142C426.04 175.32 424.371 180.011 423.52 184.09C421.631 193.134 420.032 201.925 419.318 211.108C418.961 215.702 417.078 215.381 413.344 216.79C409.189 218.357 405.419 218.446 401 218.91ZM342.445 311.698C345.189 312.103 344.874 304.597 345.075 303.071C351.618 315.41 358.986 327.285 364.751 340.029C366.098 343.009 367.322 346.058 368.746 349.002C369.72 351.018 371.9 353.724 371.848 356.069C371.792 358.516 369.816 359.432 367.733 360.339C365.482 361.319 364.603 361.808 363.016 360.675C361.096 359.302 359.493 355.074 358.307 353.036C356.496 349.925 354.762 346.768 352.988 343.636C349.775 337.957 345.983 332.52 343.343 326.559C340.87 320.974 337.128 316.168 334.462 310.682C331.822 305.249 328.209 300.098 325.174 294.78C328.222 293.512 332.021 290.343 335.484 290.519C339.061 290.701 338.974 294.154 339.129 297.03C339.292 300.084 338.27 311.08 342.445 311.698ZM351.232 367.447C349.6 369.383 345.92 370.521 343.663 371.595C340.537 373.082 337.337 374.405 334.226 375.922C324.019 380.903 313.855 385.462 303.457 390.036C298.082 392.4 292.773 394.913 287.528 397.552C284.78 398.934 278.726 403.778 275.565 403.901C271.941 404.042 271.856 396.724 271.058 393.979C270.387 391.682 269.142 389.894 268.304 387.717C267.963 386.827 268.228 386.153 267.708 385.272C267.116 384.268 265.457 383.459 264.604 382.594C260.982 378.915 257.98 374.232 254.921 370.088C252.119 366.292 247.339 361.539 245.995 356.887C243.352 347.742 258.707 342.68 264.582 339.006C274.868 332.573 285.204 325.965 295.01 318.818C299.476 315.562 303.849 312.177 308.338 308.95C310.433 307.445 316.238 301.588 318.927 303.675C319.928 304.452 319.947 306.602 320.365 307.729C321.278 310.192 322.664 312.342 324.068 314.551C325.315 316.507 327.088 318.53 327.867 320.713C328.796 323.316 328.753 324.79 330.453 327.125C333.545 331.371 335.005 336.27 337.88 340.599C340.652 344.773 343.315 347.852 345.128 352.516C346.168 355.189 347.809 357.56 349.259 360.018C349.942 361.179 350.656 362.32 351.268 363.522C352.364 365.67 352.751 365.642 351.232 367.447ZM263.496 403.166C261.534 404.57 258.646 402.21 256.743 402.178C255.915 402.163 255.093 402.809 254.54 402.791C252.877 402.741 251.518 401.624 249.987 401.104C242.92 398.7 234.494 398.608 228.457 393.726C216.464 384.026 222.182 364.564 224.366 351.956C224.811 349.385 225.612 345.825 223.535 343.719C221.258 341.411 217.833 342.788 215.749 344.656C213.611 346.57 212.157 349.252 210.38 351.488C207.549 355.049 204.459 358.415 201.338 361.72C190.249 373.463 178.506 386.9 164.788 395.518C159.083 399.103 153.919 403.961 147.666 406.693C140.144 409.979 147.866 397.293 149.218 395.232C158.071 381.741 170.959 371.062 181.784 359.219C183.827 356.984 186.728 353.971 186.764 350.751C186.819 345.916 182.548 346.35 179.172 347.692C176.014 348.948 174.432 352.073 171.891 354.208C168.728 356.867 165.032 359.023 161.511 361.168C153.917 365.796 145.856 369.679 137.819 373.465C134.06 375.236 130.283 376.969 126.506 378.702C125.469 379.178 119.273 383.109 119.569 379.739C119.609 379.286 123.562 374.485 124.05 374.307C126.484 373.417 127.691 376.103 129.857 372.583C131.396 370.083 131.609 368.786 133.782 366.889C134.152 366.567 134.406 365.751 134.706 365.222C134.669 365.421 136.32 363.815 136.004 364.094C136.438 363.711 137.068 363.009 137.42 362.549C139.119 360.331 142.384 360.289 143.86 357.754C144.423 356.789 144.104 355.551 144.783 354.593C145.734 353.249 147.826 352.677 148.942 351.495C149.899 350.479 150.688 349.651 151.282 349.03C151.691 348.602 152.409 348.302 152.893 347.812C154.098 346.593 154.003 345.514 155.689 344.489C157.203 343.57 157.899 344.43 158.423 342.153C160.265 343.334 160.034 341.606 160.782 340.368C161.754 338.758 162.989 338.04 164.329 336.875C167.277 334.311 170.041 330.494 172.549 327.266C178.787 319.239 183.832 309.853 185.69 299.782C186.135 297.374 186.38 294.941 186.557 292.499C186.651 291.215 186.232 288.088 187.027 286.83C188.262 284.878 190.605 285.653 192.388 284.799C192.994 284.508 193.592 283.653 194.16 283.459C194.955 283.187 195.928 283.452 196.753 283.19C197.074 283.089 197.148 282.146 197.678 282.025C198.718 281.787 199.751 282.165 200.779 282.179C203.028 282.209 205.248 281.813 207.405 281.096C209.367 280.444 211.009 278.949 212.967 278.41C212.767 278.466 216.194 278.738 216.009 278.545C216.173 277.701 216.337 276.857 216.501 276.013C217.802 276.922 222.238 278.12 223.614 277.913C225.826 277.579 225.36 275.585 227.235 278.204C228.297 277.278 229.358 276.352 230.419 275.426C231.223 278.8 236.761 277.163 239.271 277.349C242.808 277.613 245.594 276.949 248.817 278.18C252.737 279.68 256.175 281.26 260.397 281.669C263.347 281.954 264.574 283.341 267.464 284.197C271.348 285.346 271.655 286.614 270.44 290.583C269.455 293.801 268.604 296.282 270.043 299.584C272.596 305.439 279.533 307.851 284.006 311.897C273.528 319.251 263.183 326.485 253.055 334.322C248.811 337.604 244.298 340.892 241.881 345.83C239.652 350.388 238.388 355.865 237.047 360.744C233.97 371.93 242.637 379.458 251.54 384.379C253.383 385.396 266.072 401.323 263.496 403.166ZM246.216 416.687C245.589 414.535 245.671 413.961 247.748 413.189C248.534 412.897 251.547 412.515 252.035 413.594C253.139 416.042 247.336 416.011 246.216 416.687ZM334.506 260.786C335.25 265.56 335.982 270.335 336.647 275.12C337.013 277.764 337.844 280.102 335.875 282.096C334.756 283.228 332.042 283.651 330.613 284.254C328.553 285.124 326.545 286.121 324.564 287.159C321.031 289.009 317.339 290.123 313.852 291.792C312.335 292.516 311.436 293.944 310.123 294.929C308.327 296.277 306.142 296.933 304.288 298.215C300.975 300.508 297.939 303.222 294.628 305.53C290.877 308.146 290.095 307.306 287.988 303.441C286.097 299.971 283.827 298.388 281.104 295.668C280.045 294.61 276.255 288.581 279.474 288.062C280.299 287.928 283.149 289.168 283.795 289.565C284.776 290.167 286.344 293.59 287.142 293.648C288.579 293.753 290.419 289.661 291.315 288.584C297.184 281.519 303.64 274.531 310.441 268.351C313.966 265.148 317.669 262.229 321.665 259.643C324.507 257.805 326.987 255.229 329.789 253.485C330.382 252.972 331.053 252.605 331.807 252.385C333.269 251.721 333.818 252.294 333.454 254.104C334.292 255.875 334.201 258.832 334.506 260.786ZM206.128 254.53C207.554 253.078 209.356 251.917 210.6 250.296C211.302 249.382 211.765 247.747 212.568 247.156C213.966 246.126 215.966 246.601 217.592 245.22C219.162 243.885 220.541 242.287 222.075 240.902C225.4 237.902 228.831 235.144 232.093 232.09C233.947 230.354 235.891 228.102 237.538 226.956C237.975 226.652 238.464 226.2 238.928 225.966C239.92 225.466 240.415 225.975 241.863 225.509C242.821 225.202 243.505 223.989 244.273 223.415C246.1 222.051 248.48 221.511 250.238 220.198C251.996 218.885 252.842 216.846 255.262 215.751C258.189 214.427 260.383 215.473 262.499 212.941C263.362 211.909 263.598 210.608 264.953 209.957C266.585 209.172 268.018 210.005 269.577 209.113C270.628 208.511 271.346 207.249 272.431 206.59C274.373 205.415 276.522 205.29 278.338 203.835C279.871 202.608 279.02 202.734 280.835 202.216C281.633 201.988 282.518 201.89 283.37 201.599C286.099 200.668 290.555 199.528 292.171 196.94C292.992 198.137 293.273 198.38 294.604 198.008C295.303 197.439 295.944 196.814 296.528 196.131C296.956 196.672 297.416 196.705 297.906 196.228C300.786 195.238 303.428 193.537 306.265 192.593C306.667 192.81 307.069 193.028 307.47 193.244C308.029 193.275 308.256 193.002 308.15 192.424C309.266 192.22 310.552 191.729 311.58 191.281C313.552 190.422 315.73 188.38 318.053 189.111C321.932 190.331 322.118 198.245 322.787 201.381C324.437 209.11 326.097 216.836 327.754 224.563C328.428 227.708 329.02 230.876 329.907 233.967C330.487 235.987 331.93 238.966 331.409 241.114C330.77 243.747 328.201 244.604 326.053 245.822C323.092 247.5 320.23 249.362 317.428 251.295C305.533 259.5 296.665 270.784 288.231 282.361C286.668 280.09 282.483 276.902 279.874 275.878C278.047 275.162 276.403 275.739 274.584 274.865C273.287 274.241 272.21 273.022 270.983 272.237C263.494 267.44 254.455 263.475 245.774 261.572C227.963 257.665 210.526 263.714 193.256 266.585C196.76 261.767 202 258.729 206.128 254.53ZM325.35 123.785C328.398 113.85 333.531 104.232 340.836 96.7795C344.519 93.0223 348.848 89.7384 353.7 87.6494C357.921 85.8334 362.941 84.0916 362.876 89.9315C362.733 102.609 359.805 115.143 359.447 127.841C359.099 140.284 361.182 150.272 368.712 160.299C363.941 161.407 359.172 162.531 354.419 163.71C350.809 164.605 347.066 165.609 343.651 166.224C340.275 166.83 337.17 167.226 333.832 168.367C331.582 169.136 328.057 171.487 325.622 170.977C321.575 170.129 322.533 155.61 322.325 152.122C321.741 142.271 322.443 133.266 325.35 123.785ZM399.317 142.913C404.846 136.201 410.591 128.371 419.893 127.125C428.887 125.92 432.202 136.707 431.63 143.981C431.437 146.442 431.071 152.833 429.283 154.827C427.305 157.033 423.794 155.37 421.281 155.03C410.433 153.561 399.312 156.013 388.434 156.013C392.061 151.645 395.707 147.294 399.317 142.913ZM443.827 169.678C447.6 170.219 450.613 170.794 448.791 175.089C445.144 183.692 442.342 191.902 445.538 201.28C447.979 208.442 455.708 217.136 463.431 218.571C466.138 219.074 470.209 218.174 471.872 220.923C473.354 223.372 471.748 230.715 471.575 233.434C470.933 243.563 468.339 253.614 461.783 261.573C455.949 268.655 448.831 274.198 440.347 267.513C433.195 261.879 428.972 251.8 426.856 243.186C425.726 238.588 425.589 234 425.373 229.301C425.182 225.144 424.39 222.509 429.089 221.647C430.349 221.417 433.496 221.489 433.5 219.566C433.507 216.982 430.095 217.951 428.79 217.82C423.756 217.318 426.114 211.464 426.583 207.678C427.382 201.231 428.676 194.856 429.864 188.474C430.875 183.038 430.929 175.914 433.125 170.832C434.407 167.864 441.309 169.317 443.827 169.678ZM453.094 188.769C453.666 185.265 453.971 180.886 457.448 178.949C461.268 176.821 463.181 180.288 465.067 183.121C470.067 190.637 475.601 197.67 476.42 207C476.518 208.113 476.995 210.347 475.923 211.117C475.444 211.461 474.301 210.554 473.561 210.608C469.6 210.893 466.735 211.954 462.851 209.718C455.252 205.34 451.712 197.225 453.094 188.769ZM482.973 209.757C482.157 201.598 478.388 194.363 474.179 187.475C472.105 184.079 468.074 180.366 466.643 176.778C465.875 174.856 467.233 172.476 470.024 173.3C471.413 173.711 474.09 177.397 475.019 178.672C477.405 181.95 479.383 185.606 481.27 189.185C483.288 193.01 489.023 207.047 482.973 209.757ZM457.957 128.515C458.398 120.839 458.443 112.024 463.414 105.654C467.267 100.714 474.321 98.5639 480.044 96.6544C487.753 94.0813 497.013 93.6842 505.076 94.5156C512.172 95.2482 517.529 100.08 521.907 105.393C526.361 110.796 529.811 117.753 532.874 124.039C533.64 125.612 540.141 135.705 535.744 135.47C534 135.376 532.484 131.971 531.148 130.965C530.102 130.178 528.862 130.275 527.924 129.645C526.918 128.97 527.136 128.345 526.356 127.511C520.985 121.775 516.045 125.078 510.252 128.099C509.981 126.098 510.456 122.381 508.782 120.919C506.593 119.005 504.306 122.037 502.735 123.523C501.306 124.878 499.544 127.346 497.743 128.079C495.405 129.03 496.2 128.019 494.169 127.22C490.081 125.612 486.936 130.372 484.869 133.14C484.098 134.172 482.837 136.779 481.456 137.058C480.12 137.327 479.946 136.376 478.795 136.025C475.539 135.032 474.638 137.354 473.601 140.237C472.434 143.479 471.44 146.603 469.713 149.631C466.657 154.989 465.344 156.752 467.761 162.669C464.231 163.193 463.49 163.614 461.739 160.481C459.937 157.252 459.469 154.574 459.582 150.863C459.819 143.102 457.502 136.398 457.957 128.515ZM539.905 165.237C543.601 171.912 545.95 181.201 545.911 188.806C545.891 192.579 545.67 197.219 543.909 200.642C542.219 203.926 538.681 205.57 535.423 206.969C527.568 210.343 518.72 210.304 510.462 208.8C506.176 208.018 502.006 208.523 498.339 205.948C495.579 204.008 492.25 202.125 491.441 198.57C491.103 197.082 491.625 195.835 491.517 194.375C491.651 193.68 491.601 193.003 491.367 192.341C490.885 192.064 490.399 191.794 489.91 191.531C489.524 190.422 490.263 189.186 490.073 188.028C489.845 186.63 488.685 185.492 488.142 184.225C486.648 180.731 487.715 178.777 490.512 176.404C491.181 175.877 491.854 175.356 492.532 174.839C493.14 173.877 493.812 173.873 494.547 174.826C495.879 174.844 495.84 175.255 497.241 174.847C500.309 173.953 502.883 170.688 505.889 169.541C507.057 169.095 508.799 169.474 509.748 168.652C510.595 167.917 510.05 166.375 510.795 165.654C513.172 163.348 516.913 165.534 519.112 162.182C520.907 159.447 520.526 155.567 520.71 152.462C526.22 153.515 528.607 158.796 533.134 161.452C534.029 157.981 534.16 158.085 537.616 157.132C536.05 160.029 538.582 162.848 539.905 165.237ZM544.123 128.39C545.138 129.698 545.913 132.945 544.123 133.258V128.39ZM548.826 140.2C557.239 140.217 562.616 150.853 565.072 157.442C567.742 164.607 570.555 174.164 565.573 181.142C563.662 183.818 561.318 184.063 558.243 183.716C554.538 183.298 552.639 182.762 554.089 178.803C556.805 171.384 554.762 161.952 549.948 155.741C556.569 154.462 552.372 148.388 549.049 146.115C545.167 143.461 542.031 140.185 548.826 140.2ZM356.755 524.713C354.776 529.963 352.764 535.197 351.103 540.606C349.529 545.732 350.441 551.508 348.484 556.437C347.28 555.841 346.935 554.783 345.888 554.14C345.243 553.742 344.119 553.585 343.565 553.147C342.613 552.397 340.304 549.6 339.678 548.515C337.516 544.762 338.958 538.661 340.114 534.804C341.544 530.027 343.988 525.44 347.269 521.676C349.571 519.038 350.841 519.877 353.918 521.177C355.738 521.945 357.612 522.436 356.755 524.713ZM341.761 566.134C340.18 569.332 337.258 571.969 335.522 575.193C333.701 578.578 332.322 582.392 329.999 585.487C327.635 588.643 325.51 588.115 322.254 589.476C321.085 589.964 320.593 590.869 319.653 591.576C317.889 592.898 315.955 593.71 314.101 594.887C312.783 591.651 308.755 575.41 303.629 575.758C299.174 576.06 301.453 584.563 302.027 587.072C302.513 589.191 303.068 591.343 303.807 593.389C304.553 595.455 306.878 598.55 306.018 600.815C304.925 603.693 302.205 603.504 300.843 601.404C299.704 599.648 299.126 597.261 298.286 595.35C297.548 593.67 294.175 584.475 291.259 585.901C288.45 587.274 292.819 596.189 293.55 597.94C295.316 602.168 298.702 606.232 294.227 609.62C287.434 614.764 279.069 618.636 271.459 622.344C267.017 624.509 263.023 627.355 258.36 629.112C254.03 630.744 249.026 631.022 244.839 632.898C243.809 633.36 244.5 633.935 242.995 634.203C241.733 634.427 239.528 633.825 238.175 633.837C235.933 633.858 233.687 634.029 231.45 633.747C230.189 633.589 227.32 632.208 227.774 634.488C225.991 633.993 225.301 632.193 224 631.069C222.841 630.066 221.361 629.523 220.067 628.736C217.392 627.108 215.392 625.253 214.589 622.151C212.705 614.867 216.688 607.286 221.604 602.208C224.426 599.295 227.736 596.872 230.323 593.735C231.231 592.635 231.877 591.355 233.029 590.461C234.44 589.365 236.376 589.229 237.742 588.119C238.759 587.294 239.063 585.979 240.129 585.221C241.705 584.102 243.549 584.566 245.038 583.096C245.887 582.257 248.802 578.304 248.598 577.209C249.396 577.476 250.196 577.744 250.993 578.011C251.479 575.575 255.68 572.57 257.752 571.403C258.8 570.813 260.842 570.842 261.622 570.207C262.659 569.361 262.574 567.59 263.397 566.529C265.758 563.489 270.698 562.124 273.825 560.007C277.802 557.313 281.665 554.261 285.258 551.072C292.52 544.627 298.922 537.138 304.152 528.956C306.259 525.66 308.214 522.299 309.714 518.687C310.638 516.464 311.559 512.511 313.84 511.221C316.196 509.89 321.606 511.693 324.244 511.883C328.119 512.163 334.159 511.989 337.632 513.893C341.345 515.93 338.326 517.613 336.415 520.041C333.618 523.593 331.942 527.942 330.545 532.204C329.469 535.482 329.268 538.655 328.564 541.96C327.821 545.454 327.828 550.171 329.55 553.381C331.255 556.559 343.54 562.539 341.761 566.134ZM195.297 630.55C186.955 619.191 193.861 602.564 202.022 593.385C211.868 582.31 225.881 576.082 237.392 567.076C250.702 556.662 264.372 546.988 276.166 534.773C282.144 528.582 287.349 521.909 292.069 514.715C296.075 508.606 298.984 500.468 307.079 499.585C302.304 505.538 302.025 514.115 298.333 520.742C294.424 527.761 288.661 533.598 282.792 538.993C270.4 550.384 257.016 560.82 243.631 571.001C236.799 576.197 230.156 581.628 223.347 586.849C217.249 591.527 210.844 595.527 207.33 602.654C201.267 614.95 200.905 633.166 214.331 640.741C207.413 639.361 199.632 636.45 195.297 630.55ZM922.64 118.336C920.172 113.398 915.546 111.639 910.902 109.707C906.356 107.816 902.201 105.487 897.159 104.882C894.917 104.613 888.594 105.281 888.299 102.032C888.052 99.3246 894.659 96.6073 896.182 94.5446C898.439 91.4873 899.973 86.5233 899.097 82.6618C898.267 78.9998 894.706 77.8429 891.381 77.1792C881.038 75.1166 870.041 76.6334 859.671 77.4811C860.94 75.7059 862.729 74.2498 863.747 72.1236L865.391 75.5418C866.327 73.587 867.342 71.6685 868.507 69.8379C869.294 70.7228 870.083 71.6087 870.87 72.4936C869.561 67.8977 873.964 67.9212 873.501 64.0471C873.321 62.5402 872.3 61.8801 872.05 60.6688C871.558 58.2607 873.417 56.7547 871.301 54.5216C868.946 52.0346 865.094 53.0211 862.353 53.2532C862.009 53.2831 861.51 53.964 861.065 54.0193C860.449 54.0973 860.094 53.2487 859.332 53.294C857.288 53.4146 855.486 55.0022 853.455 55.4845C844.04 57.7203 834.623 61.7079 825.586 65.4306C816.387 69.2205 807.356 73.6332 799.336 79.581C790.752 85.9467 784.552 94.1303 777.696 102.193C774.474 105.982 771.14 109.621 768.687 113.986C767.42 116.242 766.274 123.328 763.992 124.358C761.514 125.476 755.284 122.313 752.75 121.729C746.785 120.357 740.848 119.783 734.733 120.059C729.869 120.277 724.737 120.147 719.913 120.742C717.113 121.087 710.135 124.194 709.687 127.669C709.489 129.213 711.258 130.497 711.654 131.944C712.254 134.132 711.263 136.451 711.954 138.644C713.363 143.116 719.902 144.761 723.756 146.169C734.514 150.102 745.42 153.152 756.29 156.672C761.013 158.203 765.051 160.639 769.329 163.085C772.878 165.112 776.115 167.141 772.531 170.948C769.136 174.554 769.559 176.01 770.571 180.978C771.637 186.221 772.007 191.523 773.397 196.715C774.781 201.886 777.367 206.825 776.863 212.296C776.359 217.749 774.103 223.35 771.993 228.348C769.862 233.396 767.509 238.385 765.193 243.352C763.051 247.947 760.732 252.606 755.776 254.567C746.313 258.31 734.224 257.716 724.362 256.357C713.169 254.814 701.606 252.198 691.02 248.204C680.842 244.364 669.647 238.474 661.229 231.515C656.732 227.798 651.862 225.044 647.09 221.717C642.253 218.346 638.581 213.8 634.344 209.764C626.04 201.853 615.817 196.402 605.294 192.053C593.465 187.164 581.252 187.672 568.717 187.143C570.69 183.266 573.23 179.561 574.162 175.245C575.133 170.75 574.43 165.866 573.815 161.375C572.621 152.634 570.359 144.941 564.841 137.881C562.318 134.653 559.372 132.136 555.169 131.667C552.623 131.382 547.918 133.338 546.08 131.181C545.271 130.23 545.46 128.23 544.95 127.059C544.499 126.019 543.592 124.972 543.1 123.843C540.996 119.014 538.371 114.746 535.749 110.165C534.706 108.343 533.899 105.654 532.477 104.121C531.703 103.287 530.708 102.908 530.275 102.298C529.465 101.156 529.092 99.0689 528.417 97.7805C527.261 95.5755 525.791 93.5264 524.094 91.7067C521.382 88.7982 517.891 86.2314 514.172 84.7825C512.107 83.9774 510.593 83.787 508.436 83.9049C507.804 83.9393 507.101 84.3038 506.469 84.2558C504.956 84.1406 505.193 83.5984 503.981 83.3464C495.87 81.6572 484.993 84.0273 477.385 86.9368C469.371 90.0013 462.862 94.0423 457.992 101.304C446.029 119.138 448.817 142.165 453.891 161.808C450.822 161.002 447.765 160.049 444.666 159.366C442.769 158.947 440.179 159.026 438.484 158.024C434.713 155.795 437.78 150.076 437.803 146.381C437.861 136.991 433.43 122.308 423.767 118.342C413.698 114.209 401.449 125.809 395.225 132.387C391.232 136.607 387.601 141.155 383.78 145.526C381.11 148.582 377.584 153.453 372.903 152.655C362.694 150.914 365.808 131.49 366.261 124.925C366.978 114.547 368.506 104.002 368.514 93.5971C368.519 87.2722 367.425 78.7396 359.658 77.9979C348.969 76.9779 338.843 86.701 332.61 94.1819C316.171 113.908 312.54 139.982 316.937 164.736C317.582 168.365 319.64 172.842 315.713 175.095C310.554 178.055 303.959 179.847 298.415 182.021C286.017 186.879 274.537 193.359 262.865 199.693C251.309 205.965 239.938 212.19 229.512 220.27C219.119 228.325 208.831 236.86 199.363 245.992C194.645 250.544 190.091 255.293 185.795 260.249C181.753 264.911 178.478 270.206 174.084 274.563C171.093 277.53 165.591 281.508 164.934 286.034C164.403 289.687 170.564 292.22 173.344 293.908C175.25 295.066 176.571 295.03 176.709 297.094C176.879 299.668 174.166 303.793 173.2 306.247C170.739 312.507 167.523 317.693 163.294 322.902C153.928 334.442 142.61 344.226 131.867 354.477C121.886 364.002 112.105 373.377 104.788 385.196C102.995 388.092 98.5337 394.039 102.774 396.749C103.871 397.451 107.238 398.006 108.355 397.253C109.74 396.319 109.038 394.912 110.674 393.976C110.264 397.123 124.554 390.974 125.666 390.404C128.669 388.865 131.385 387.061 134.455 385.682C136.256 384.872 136.474 383.745 137.868 382.842C138.614 382.359 138.623 383.007 139.62 382.707C140.518 382.435 142.626 382.332 143.296 381.467C143.314 381.442 144.046 379.348 143.424 379.781C145.858 378.086 147.297 380.651 145.836 383.059C141.515 390.174 136.052 395.409 134.359 403.96C133.744 407.066 132.695 412.832 134.591 415.663C134.66 415.766 135.298 415.466 135.376 415.576C135.448 415.68 136.144 416.647 136.43 416.922C138.105 418.525 137.997 419.239 140.793 419.172C142.033 419.142 144.506 418.983 145.641 418.423C146.495 418.002 146.912 416.963 147.569 416.594C148.233 416.218 148.155 416.023 148.778 415.805C148.906 415.759 149.151 416.85 149.394 416.805C150.726 416.554 151.3 415.758 152.432 415.117C155.693 413.271 158.89 411.241 161.995 409.382C165.121 407.511 167.456 404.902 170.569 402.729C173.877 400.42 176.582 398.65 179.126 395.446C180.887 393.227 182.989 392.419 184.171 391.327C185.574 390.03 187.993 385.024 190.254 384.429C191.284 384.157 192.108 385.069 192.672 384.695C193.307 384.275 192.615 383.47 192.933 382.997C193.528 382.114 193.602 381.967 194.614 381.157C195.909 380.121 197.501 379.843 198.588 378.493C199.797 376.99 199.963 375.306 201.45 373.899C205.028 370.513 208.213 366.946 212.004 363.665C210.54 371.83 209.089 379.937 210.224 388.241C211.323 396.289 214.738 399.893 221.441 403.977C222.917 404.877 224.465 406.185 226.05 406.822C227.013 407.21 228.464 406.979 229.182 407.264C231.613 408.228 230.786 410.201 231.119 412.424C231.636 415.87 234.803 418.522 236.847 421.207C238.566 423.465 241.666 428.602 244.542 429.382C247.139 430.086 249.589 427.048 251.752 425.754C255.013 423.804 258.566 422.406 262.005 420.812C268.722 417.7 275.212 413.986 281.854 410.694C284.888 409.191 287.952 408.579 291.163 407.608C295.02 406.442 298.311 404.211 302.01 402.689C308.661 399.952 315.034 396.686 321.645 393.812C335.328 387.864 350.251 383.778 362.427 374.854C367.935 370.817 375.027 370.387 380.456 366.464C386.114 362.374 382.644 356.12 380.222 351.101C373.603 337.39 369.653 323.151 360.541 310.66C355.807 304.17 351.433 297.464 347.304 290.565C343.652 284.459 343.726 277.543 342.81 270.646C342.196 266.037 341.621 261.408 340.871 256.819C340.396 253.902 338.861 250.227 340.718 247.584C342.713 244.743 347.452 243.534 350.447 242.035C354.169 240.172 357.773 238.169 361.635 236.592C370.46 232.99 379.755 230.497 389.013 228.296C391.773 227.64 403.59 222.947 405.839 225.696C403.076 227.543 402.27 230.896 401.03 233.771C399.185 238.054 397.28 242.135 395.934 246.623C393.152 255.904 390.786 265.332 388.518 274.75C386.265 284.1 383.581 293.524 382.892 303.157C382.539 308.074 382.781 312.994 382.772 317.916C382.763 323.169 381.674 328.321 381.868 333.587C381.998 337.089 382.292 341.296 384.343 344.283C386.243 347.051 389.475 347.36 392.291 348.84C396.007 350.793 397.462 351.626 397.496 355.876C397.537 360.829 397.217 365.693 397.68 370.643C399.294 387.88 405.084 408.335 416.641 421.643C417.41 422.528 439.833 450.814 442.315 446.673C444.025 448.698 446.581 449.438 448.685 451.204C451.992 453.978 455.237 456.196 457.971 459.632C462.948 465.885 467.179 473.213 468.424 481.209C469.493 488.09 468.85 496.317 464.97 502.281C461.077 508.264 452.755 512.189 446.473 515.135C438.215 519.006 429.835 519.441 420.869 518.471C416.445 517.992 412.056 517.244 407.664 516.538C405.837 516.244 403.706 516.243 401.976 515.554C400.121 514.817 399.493 514.001 397.641 513.91C396.258 513.842 395.502 514.148 394.04 513.843C392.23 513.465 390.265 512.777 388.46 512.313C386.453 511.796 384.807 511.061 382.958 510.113C381.246 509.235 379.317 509.065 377.669 508.234C374.829 506.8 373.954 504.403 370.111 505.732C366.055 507.134 366.903 510.643 364.314 513.048C362.013 515.187 359.163 513.21 356.873 511.939C353.503 510.067 350.003 508.51 346.415 507.093C342.539 505.563 338.58 504.232 334.546 503.178C330.134 502.026 325.288 501.798 321.038 500.12C317.303 498.647 315.696 495.796 312.99 493.133C310.144 490.332 306.283 489.265 302.338 489.514C295.154 489.969 290.247 497.737 286.452 503.131C275.849 518.201 264.129 531.04 249.956 542.879C243.184 548.533 235.551 553.343 229.002 559.212C226.24 561.688 224.234 564.009 220.963 565.853C216.666 568.274 212.767 571.312 208.659 574.043C192.592 584.721 180.807 600.278 185.25 620.591C187.25 629.734 191.245 636.152 198.709 641.654C202.098 644.151 205.199 646.229 209.516 646.084C213.592 645.948 217.188 645.806 214.787 640.955C217.829 641.897 220.375 644.222 223.696 645.413C227.522 646.783 232.5 647.638 236.562 647.721C243.067 647.854 250.718 644.424 256.414 642.97C258.006 642.565 261.075 641.899 262.889 640.402C264.332 639.212 264.019 637.803 266.203 637.238C269.065 636.497 270.155 637.363 272.896 635.629C276.872 633.111 281.184 631.616 285.309 629.296C290.866 626.17 296.208 622.645 301.713 619.426C302.447 621.449 306.76 633.472 309.424 627.676C311.742 622.63 304.216 618.311 308.791 613.202C313.156 608.331 314.068 613.453 318.302 615.714C324.18 618.854 323.298 612.989 321.589 609.516C320.906 608.127 319.469 606.032 319.892 604.412C320.708 601.283 323.239 603.119 325.229 603.438C328.363 603.942 330.896 603.079 333.249 600.977C335.211 599.223 338.456 597.709 339.642 595.398C340.235 594.241 340.339 592.652 340.832 591.423C341.483 589.804 341.947 590.197 342.184 588.188C341.957 587.149 341.867 586.098 341.913 585.033C342.428 584.929 342.941 584.825 343.454 584.72C343.47 584.647 343.506 582.621 343.299 582.922C343.779 582.225 344.81 581.93 345.403 580.962C345.948 580.072 345.441 578.366 345.66 577.315C346.104 575.188 347.314 573.471 348.303 571.575C350.395 580.428 349.79 589.661 351.789 598.519C353.431 605.791 357.17 612.31 361.532 618.273C363.554 621.037 366.231 622.998 368.347 625.625C370.138 627.847 371.034 629.804 373.677 631.118C375.436 631.99 377.414 632.44 379.226 633.193C380.385 633.676 383.023 635.895 384.11 635.856C383.163 635.891 385.89 635.975 385.258 635.867C385.305 635.875 384.935 634.68 385.264 634.699C389.217 638.443 393.347 638.452 397.922 640.779C400.018 641.845 400.802 641.779 403.036 642.173C405.931 642.684 408.367 644.335 411.139 644.511C415.406 644.782 420.212 645.356 424.661 645.198C425.871 645.154 428.146 644.374 429.095 645.433C429.722 646.132 428.533 651.185 428.458 652.342C427.676 664.476 429.297 677.215 434.416 688.318C438.661 697.524 443.187 708.415 450.694 715.445C459.016 723.237 470.673 728.729 481.803 730.831C494.126 733.157 506.341 731.415 518.702 730.692C531.244 729.958 542.848 728.179 554.943 724.543C566.191 721.162 576.845 716.755 587.608 712.107C594.928 708.946 604.209 704.397 600.372 694.802C599.444 692.482 595.846 686.031 592.662 689.214C589.845 692.03 594.554 697.359 596.685 699.148C580.622 710.351 561.13 714.056 542.335 718.025C532.013 720.204 521.844 720.112 511.345 720.143C502.448 720.168 493.552 720.424 484.713 719.181C476.716 718.057 467.405 715.948 461.454 710.101C455.229 703.983 449.338 696.679 445.089 689.048C440.427 680.672 439.296 671.616 438.919 662.171C438.721 657.198 438.498 652.164 439.018 647.203C439.396 643.602 441.234 643.174 442.146 640.329C444.253 643.281 445.64 642.19 448.227 640.465C449.899 645.134 449.154 649.986 448.866 654.801C448.587 659.492 449.212 664.248 449.786 668.906C450.76 676.825 454.554 685.084 459.367 691.459C461.543 694.342 464.804 695.559 467.754 697.549C471.515 700.087 475.415 702.45 479.341 704.728C486.734 709.017 494.803 712.684 503.136 713.33C506.055 713.557 508.178 715.078 511.656 714.865C513.721 714.739 515.801 714.032 517.862 714.088C519.927 714.144 521.701 714.805 523.822 714.651C532.637 714.013 541.724 711.125 550.452 709.538C559.902 707.821 569.41 705.972 578.431 702.582C582.34 701.112 585.568 699.217 587.75 695.525C589.308 692.887 588.9 688.157 591.804 686.579C589.902 684.125 590.609 683.692 592.252 681.498C593.019 680.475 595.495 677.767 592.492 677.816C593.405 673.863 591.878 670.04 591.227 666.173C590.947 664.503 591.023 661.974 589.99 660.536C589.387 659.698 588.384 659.682 587.845 659.064C587.288 659.052 586.852 658.82 586.54 658.369C586.503 657.709 586.812 657.306 587.466 657.162C587.315 655.855 588.282 656.324 587.315 654.281C585.996 651.491 583.493 649.062 581.123 647.165C579.104 645.549 577.617 642.679 575.286 641.817C572.253 640.694 569.072 639.475 565.885 638.433C558.659 636.07 551.497 635.167 543.915 636.477C540.443 637.077 537.022 637.813 533.669 638.886C531.707 639.515 528.706 641.211 526.968 639.382C526.371 638.755 525.125 633.425 525.203 632.849C525.514 630.537 530.234 629.604 531.956 628.797C534.588 627.564 539.461 626.246 541.132 623.799C541.833 622.773 541.041 618.416 541.156 618.338C542.26 617.594 546.894 628.174 548.156 628.896C549.981 629.939 555.109 628.56 556.995 628.353C562.624 627.734 568.346 627.383 573.859 626.04C584.431 623.465 594.811 619.482 605.099 615.962C624.671 609.267 643.566 600.442 661.161 589.481C669.378 584.361 677.541 577.818 683.794 570.384C686.614 567.031 688.607 563.055 691.486 559.767C694.809 555.975 693.761 552.553 695.25 547.802C698.265 538.187 701.926 529.452 703.567 519.375C705.257 509 705.954 498.407 705.486 487.903C704.56 467.143 703.553 447.46 694.431 428.385C686.071 410.904 675.238 393.824 662.359 379.351C659.365 375.988 656.202 372.783 652.524 370.167C648.565 367.349 644.207 365.139 640.623 361.811C637.682 359.08 635.222 355.863 632.146 353.27C628.369 350.09 623.877 348.684 619.455 346.652C615.215 344.706 611.348 342.174 607.012 340.402C604.374 339.325 601.701 338.33 598.95 337.578C596.918 337.022 594.217 336.987 592.358 335.931C589.417 334.26 586.408 329.398 584.487 326.651C581.684 322.644 580.165 317.982 578.832 313.323C577.209 307.655 575.701 301.952 574.115 296.273C573.572 294.333 571.546 287.58 575.587 289.219C576.769 289.698 577.878 291.829 578.789 292.739C580.515 294.467 582.646 296.011 584.787 297.186C588.241 299.081 591.838 301.363 595.15 302.669C598.069 303.82 601.071 306.076 603.792 307.699C604.205 307.946 604.326 308.794 604.859 309.031C606.113 309.588 606.949 308.052 608.133 308.428C609.751 308.942 610.017 310.467 610.915 311.68C612.217 313.439 612.891 313.579 614.88 314.484C617.092 315.491 618.716 317.481 620.872 318.468C623.493 319.665 629.259 318.736 629.653 322.865C633.724 320.205 638.832 325.37 641.373 328.05C643.931 324.122 648.462 328.721 652.333 327.417C650.191 330.395 650.58 330.099 653.96 330.467C656.813 330.779 658.521 332.674 661.341 333.775C663.294 334.537 665.452 335.819 667.482 336.356C669.401 336.864 670.855 335.725 672.526 336.01C673.679 336.206 674.774 337.203 675.87 337.475C677.26 337.821 679.239 338.241 680.81 338.614C682.722 339.068 684.623 338.651 686.529 339.012C688.753 339.433 690.673 340.758 692.931 341.188C695.449 341.667 698.067 341.347 700.57 341.958C702.851 342.514 704.238 343.154 706.601 343.177C710.126 343.212 714.06 343.678 717.54 343.28C719.393 343.068 720.42 342.128 722.518 343.047C723.917 343.66 724.755 345.553 726.662 344.686C724.649 343.879 726.416 340.737 728.635 343.144C729.16 341.794 729.499 341.041 730.959 340.598C730.886 341.919 730.67 343.245 732.354 343.522C732.483 342.602 732.613 341.684 732.742 340.764C736.403 343.552 737.27 344.536 740.725 341.134C740.633 342.248 740.163 343.508 741.295 344.297C742.019 343.092 742.744 341.888 743.469 340.684C744.693 344.57 750.536 343.229 753.368 342.54C754.467 342.273 757.501 341.851 758.218 340.95C758.715 340.326 758.654 339.837 758.838 339.454C759.001 339.114 757.139 338.278 758.724 337.79C759.917 337.421 760.847 340.038 762.248 339.934C763.498 339.841 764.003 337.725 764.902 337.296C764.988 337.256 765.598 338.15 766.021 337.954C766.678 337.65 767.052 336.849 767.778 336.565C769.349 335.95 771.381 336.103 773.14 335.374C775.372 334.45 777.621 334.009 779.899 333.247C782.787 332.282 784.097 330.385 786.441 328.833C786.991 328.469 787.563 328.681 788.103 328.424C788.83 328.077 789.592 327.264 790.458 326.881C793.172 325.677 795.491 324.858 798.066 323.197C800.362 321.715 803.393 320.621 805.437 318.843C807.138 317.363 808.056 315.203 809.767 313.697C812.224 311.535 818.573 308.824 817.543 304.6C821.653 305.228 822.659 302.567 824.167 299.632C825.602 296.84 828.543 296.003 830.466 293.457C831.297 292.357 832.635 290.831 833.094 289.575C833.368 288.828 832.682 288.048 832.867 287.538C833.72 285.192 837.009 284.168 838.532 282.052C840.469 279.36 841.091 275.956 842.707 273.191C843.025 272.647 843.808 272.324 844.111 271.744C844.306 271.371 843.9 270.447 844.136 270.081C844.7 269.212 845.586 268.912 846.152 268.107C847.522 266.158 847.772 263.387 849.003 261.177C849.306 260.633 850.362 259.113 850.495 258.789C850.94 257.701 850.805 256.986 851.035 255.775C851.103 255.411 851.807 253.304 851.951 253.003C852.403 252.063 852.84 251.924 853.531 250.892C855.26 248.309 856.333 244.252 856.475 241.116C856.536 239.786 856.093 238.411 856.575 237.142C856.99 236.045 858.27 235.368 858.753 234.219C860.019 231.206 859.812 226.946 860.161 223.723C860.539 220.21 861.663 216.747 861.973 213.26C862.124 211.572 861.332 210.077 861.39 208.487C861.457 206.666 862.402 206.326 862.766 204.811C863.181 203.081 862.573 201.088 862.944 199.233C863.29 197.507 863.792 195.91 863.935 194.14C864.308 189.53 863.782 184.707 863.582 180.095C863.504 178.305 863.265 176.438 863.739 174.686C864.12 173.276 865.676 171.699 865.625 170.17C865.466 165.444 861.686 169.534 859.514 169.21C856.988 168.833 856.523 163.165 855.858 161.015C854.231 155.763 852.605 150.511 850.978 145.26C858.731 143.241 866.793 143.823 874.709 143.278C882.487 142.743 890.081 141.055 897.623 139.154C903.991 137.55 910.958 136.619 916.68 133.193C921.485 130.317 925.448 123.952 922.64 118.336Z" fill="white"/>
<path fill-rule="evenodd" clip-rule="evenodd" d="M169.719 220.003C172.82 218.391 172.038 216.163 174.316 214.093C187.062 202.509 202.021 192.394 217.013 184.042C232.808 175.242 250.531 171.516 266.675 163.718C268.847 162.669 271.668 161.029 270.858 158.107C269.911 154.693 266.66 156.264 264.343 157.07C256.621 159.755 248.403 160.766 240.571 163.125C223.853 168.16 208.197 176.843 194.035 187.006C185.796 192.917 177.903 199.453 170.867 206.795C168.276 209.497 164.821 212.65 164.147 216.543C163.312 221.361 166.16 221.853 169.719 220.003Z" fill="white"/>
<path fill-rule="evenodd" clip-rule="evenodd" d="M218 522.887C217.925 518.629 213.288 520.177 210.903 520.749C201.205 523.077 192.536 524.859 183.954 530.25C168.026 540.254 155.958 555.452 148.15 572.271C147.11 574.509 142.924 581.602 146.279 583.713C148.491 585.106 149.833 581.051 150.659 579.545C154.864 571.883 160.495 565.1 166.157 558.442C178.727 543.66 193.838 534.278 211.917 527.428C214.135 526.588 218.055 525.982 218 522.887Z" fill="white"/>
<path fill-rule="evenodd" clip-rule="evenodd" d="M753.98 418.309C750.625 411.56 745.201 403.232 737.696 400.452C733.543 398.914 731.086 401.459 732.319 405.712C733.299 409.094 736.571 410.746 739.014 412.989C745.301 418.761 749.173 427.378 751.469 435.38C753.896 443.839 754.38 453.018 754.337 461.775C754.314 466.399 753.08 470.417 752.41 474.917C752.147 476.686 751.698 480.586 753.731 481.69C758.236 484.138 760.317 471.357 760.777 468.899C762.472 459.834 762.308 451.487 760.881 442.437C759.575 434.161 757.743 425.879 753.98 418.309Z" fill="white"/>
<path fill-rule="evenodd" clip-rule="evenodd" d="M741.093 93.9911C742.926 91.5196 741.589 88.0597 742.135 85.2418C742.706 82.2883 744.411 79.3005 745.852 76.7169C748.967 71.1391 752.442 65.6616 756.144 60.4591C759.967 55.0866 764.63 50.5089 768.693 45.3471C770.067 43.6009 772.502 41.105 771.908 39.0033C770.947 35.6004 768.853 37.2589 767.176 38.685C758.006 46.4829 749.931 56.0976 743.408 66.1961C740.313 70.9889 737.388 76.2376 736.364 81.923C735.835 84.8593 735.83 87.9231 736.701 90.798C737.248 92.6048 738.891 96.9609 741.093 93.9911Z" fill="white"/>
<path fill-rule="evenodd" clip-rule="evenodd" d="M175.985 509.941C180.58 509.516 185.201 509.365 189.807 509.128C193.216 508.953 197.051 509.163 200.18 507.521C203.329 505.87 201.96 503.395 199.342 503.029C197.837 502.818 195.297 503.834 193.684 503.904C191.937 503.979 190.181 503.925 188.433 503.932C183.324 503.951 177.819 503.912 172.893 505.61C171.284 506.165 168.847 507.021 168.185 508.861C166.77 512.794 173.854 510.138 175.985 509.941Z" fill="white"/>
<path fill-rule="evenodd" clip-rule="evenodd" d="M216.22 150C222.893 149.2 229.343 147.2 235.917 145.925C242.168 144.714 243.232 139.786 235.832 140.007C233.347 140.081 209.391 144.626 216.22 150Z" fill="white"/>
<path fill-rule="evenodd" clip-rule="evenodd" d="M767.626 397.163C763.143 396.041 765.462 401.014 766.849 402.552C769.415 405.395 770.817 407.524 771.579 411.315C772.024 413.522 771.607 418.505 773.48 420.193C775.325 421.854 775.452 420.751 775.78 418.7C776.703 412.919 774.858 398.975 767.626 397.163Z" fill="white"/>
<path fill-rule="evenodd" clip-rule="evenodd" d="M718.409 82.4703C719.679 81.1241 718.317 75.2699 718.467 73.5542C718.65 71.4754 719.142 69.7162 719.762 67.7654C720.063 66.8195 721.577 63.4807 720.761 62.444C719.632 61.007 717.753 63.4353 717.158 64.3912C715.225 67.5021 714.773 72.6891 715.095 76.1922C715.21 77.4603 715.977 85.0457 718.409 82.4703Z" fill="white"/>
<path fill-rule="evenodd" clip-rule="evenodd" d="M454.441 576.135C454.652 572.818 457.845 570.52 457.854 566.994C457.866 563.032 455.2 561.316 451.88 563.891C449.878 565.444 448.319 569.227 445.611 569.722C440.18 570.718 438.05 560.962 432.7 562.091C428.069 563.068 430.503 571.023 431.9 573.708C433.381 576.553 436.071 578.549 435.195 582.049C434.155 586.205 430.588 588.601 431.976 593.345C434.554 602.16 440.15 593.918 443.516 591.148C445.914 589.173 447.363 589.524 449.692 591.46C452.882 594.112 455.32 595.913 459.189 597.7C462.601 599.276 465.892 600.375 465.998 595.088C466.082 590.929 462.942 586.791 460.186 583.97C457.898 581.629 454.207 579.826 454.441 576.135Z" fill="white"/>
<path fill-rule="evenodd" clip-rule="evenodd" d="M394.657 562.984C390.665 558.728 385.623 569.584 382.397 570.785C377.168 572.732 375.964 562.296 371.15 562.624C367.403 562.88 367.699 568.25 368.515 570.699C369.393 573.336 372.021 575.491 372.461 578.193C373.138 582.333 365.305 590.61 370.771 594.609C375.438 598.024 377.176 586.487 383.01 591.194C385.874 593.504 393.888 602.103 397.859 597.824C402.551 592.767 391.391 584.131 389.354 580.285C386.598 575.077 400.507 569.221 394.657 562.984Z" fill="white"/>
<path fill-rule="evenodd" clip-rule="evenodd" d="M491.367 415.107C490.222 414.602 488.372 415.437 487.133 415.384C485.803 415.328 484.418 414.723 483.106 414.5C480.255 414.012 475.242 414.717 473.219 412.176C471.155 409.584 472.724 404.38 471.842 401.227C471.362 399.512 470.807 397.396 468.498 398.161C465.818 399.048 465.883 403.969 465.563 406.127C465.092 409.312 464.712 411.741 461.511 412.874C459.141 413.712 456.648 413.29 454.732 415.237C453.328 416.663 452.381 419.268 453.48 421.132C455.13 423.932 458.704 422.482 461.183 423.367C464.964 424.717 464.065 430.894 464.84 434.441C465.336 436.72 466.427 443.102 469.7 442.999C474.162 442.86 472.429 433.894 472.182 431.277C471.931 428.622 471.334 426.37 474.297 425.544C476.8 424.848 480.296 426.141 482.881 426.125C486.146 426.105 489.993 425.285 491.963 422.359C493.088 420.686 493.801 416.181 491.367 415.107Z" fill="white"/>
<path fill-rule="evenodd" clip-rule="evenodd" d="M655.341 525.455C662.436 526.067 658.136 534.81 662.844 538.285C667.336 541.601 667.94 532.449 667.939 529.836C667.936 523.506 675.634 525.846 680.321 524.798C684.32 523.905 688.687 519.751 683.911 516.213C680.464 513.659 674.748 514.844 670.746 514.168C665.323 513.251 666.934 509.63 666.814 505.457C666.771 503.927 666.244 498.473 664.268 498.043C660.649 497.256 660.434 507.415 660.19 509.348C659.158 517.527 653.54 512.544 649.077 516.644C643.243 522.004 651.114 525.09 655.341 525.455Z" fill="white"/>
<path fill-rule="evenodd" clip-rule="evenodd" d="M317.915 372.965C306.831 382.05 294.244 380.748 284.099 370.968C279.81 366.832 277.218 362.664 277.602 356.612C277.946 351.166 279.545 345.148 283.906 341.47C287.578 338.37 294.504 337.258 299.154 336.824C305.671 336.218 311.502 339.766 316.01 344.2C319.936 348.061 324.525 352.98 325.13 358.712C325.767 364.743 322.331 369.344 317.915 372.965ZM319.601 336.812C309.658 327.237 292.027 328.198 281.762 336.93C270.24 346.731 268.27 365.143 279.343 375.881C291.012 387.197 306.416 385.976 318.768 376.589C325.394 371.555 328.989 365.094 329.912 356.805C330.783 348.971 325.038 342.047 319.601 336.812Z" fill="white"/>
<path fill-rule="evenodd" clip-rule="evenodd" d="M511.855 172C510.739 175.626 511.512 179.489 511.71 183.183C508.558 181.211 506.596 177.695 503.212 176.061C501.589 180.545 509.676 193.37 514.766 189.166C519.423 185.319 515.986 174.584 511.855 172Z" fill="white"/>
<path fill-rule="evenodd" clip-rule="evenodd" d="M528.393 194.111C525.884 195.046 523.552 194.787 521.077 195.266C519.444 195.582 519.234 194.654 519.022 196.523C518.572 200.512 525.007 202.055 527.906 201.999C531.444 201.93 535.321 199.551 534.979 195.678C534.624 191.643 531.121 193.095 528.393 194.111Z" fill="white"/>
<path fill-rule="evenodd" clip-rule="evenodd" d="M530.449 177.346C529.311 176.312 526.688 172.408 524.763 173.076C523.288 173.588 524.33 175.351 524.763 176.233C526.383 179.541 529.563 182.356 532.103 185.01C530.222 185.678 526.598 186.108 527.555 189.004C528.435 191.664 532.422 191.255 534.333 190.135C540.878 186.298 533.724 180.319 530.449 177.346Z" fill="white"/>
<path fill-rule="evenodd" clip-rule="evenodd" d="M537.057 171.066C537.505 172.893 537.745 174.617 536.757 176.33L531.306 166.553C526.922 168.353 534.612 182.439 539.091 180.88C542.189 179.802 540.701 173.181 540.212 171.098C539.95 169.983 539.327 166.437 537.781 166.077C534.74 165.369 536.725 169.719 537.057 171.066Z" fill="white"/>
<path fill-rule="evenodd" clip-rule="evenodd" d="M312.169 368.267C309.641 366.403 305.451 370.768 302.778 370.784C297.375 370.813 300.317 364.476 296.936 362.422C295.173 361.35 287.791 362.431 288.957 357.995C289.658 355.327 292.401 357.253 293.904 355.623C295.79 353.58 293.102 351.95 291.429 351.111C292.163 350.132 296.393 349.702 297.456 350.379C299.29 351.55 299.184 355.062 300.867 356.87C303.051 354.082 301.866 350.579 304.192 348.076C305.095 347.103 307.737 346.372 306.71 344.637C306.114 343.629 303.505 343.962 302.612 343.161C301.833 342.462 301.872 340.208 300.614 340.021C298.559 339.715 298.609 342.855 297.992 343.762C296.135 346.487 287.976 345.547 291.358 351.075C289.105 349.951 282.959 349.062 284.152 352.987C284.457 353.991 285.619 354.605 285.907 355.749C286.157 356.74 285.607 358.153 285.555 359.148C285.457 361.035 285.306 363.241 286.702 364.759C288.621 366.845 291.185 365.327 293.243 366.235C296.048 367.47 295.037 370.039 296.516 372.286C298.453 375.225 301.431 374.322 304.173 373.433C307.443 372.372 307.96 372.276 310.352 375C311.446 373.586 314.443 369.944 312.169 368.267Z" fill="white"/>
<path fill-rule="evenodd" clip-rule="evenodd" d="M316.566 356.791C313.928 356.303 314.967 348.441 311.757 351.858C310.553 353.137 311.786 355.636 310.443 357.007C309.541 357.929 308.397 357.385 307.495 357.99C306.683 358.532 306.478 359.572 306 360.365C307.697 361.129 309.009 361.228 310.821 360.895C310.821 362.26 309.914 366.278 312.243 365.985C314.409 365.711 313.797 361.678 314.9 360.424C316.019 359.15 320.531 359.741 320.951 357.95C321.47 355.732 317.719 357.004 316.566 356.791Z" fill="white"/>
</svg>
