<svg width="1024" height="768" viewBox="0 0 1024 768" fill="none" xmlns="http://www.w3.org/2000/svg"><path fill-rule="evenodd" clip-rule="evenodd" d="M720.391 432.873C745.902 427.273 771.521 415.731 792.391 399.873C788.015 416.547 781.9 437.405 768.979 449.487C764.067 454.081 757.511 457.082 751.536 460.001C742.748 464.292 733.735 468.13 724.663 471.776C708.65 478.212 691.829 485.342 674.767 488.466C670.031 489.332 667.619 488.482 663.676 485.64C657.054 480.866 651.066 475.131 645.146 469.535C635.656 460.564 626.425 451.303 617.391 441.873C651.613 441.79 686.901 440.225 720.391 432.873ZM474.391 489.873C479.145 492.974 483.9 496.075 488.655 499.175C522.233 521.075 555.812 542.974 589.391 564.873C573.391 575.54 557.391 586.206 541.391 596.873C547.058 602.873 552.724 608.873 558.391 614.873C553.09 617.889 547.788 620.905 542.488 623.921C532.768 629.452 523.048 634.981 513.329 640.512C509.884 642.472 506.439 644.432 502.994 646.392C502.184 646.853 501.037 647.817 500.186 647.741C498.908 647.625 496.599 645.417 495.56 644.742C492.275 642.605 488.995 640.461 485.719 638.31C475.637 631.694 465.592 625.023 455.586 618.292C431.056 601.789 406.58 585.088 383.097 567.114C372.247 558.811 362.175 550.203 353.699 539.4C344.373 527.514 336.671 514.389 329.9 500.908C324.198 489.559 319.15 477.876 314.673 465.992C313.134 461.908 309.325 455.369 309.394 450.882C309.431 448.47 311.527 445 312.338 442.768C314.262 437.477 316.187 432.185 318.111 426.894C319.098 424.178 321.037 420.807 321.375 417.915C321.786 414.424 320.092 409.647 319.547 406.198C319.283 404.521 319.32 399.795 318.047 398.847C317.201 398.216 314.009 398.536 312.991 398.457C304.734 397.823 296.478 397.187 288.221 396.552C266.079 394.849 243.939 393.146 221.798 391.443C215.704 390.974 208.857 391.3 202.875 389.987C198.356 388.996 195.531 385.372 194.18 381.135C190.125 368.41 186.291 355.484 183.822 342.346C181.434 329.648 183.74 319.768 188.947 308.019C193.505 297.735 198.888 287.536 205.009 278.083C206.775 275.356 206.765 275.94 209.934 276.505C222.936 278.822 235.938 281.14 248.94 283.458C292.947 291.303 336.954 299.147 380.961 306.992C396.477 309.758 411.994 312.524 427.509 315.289C429.775 315.694 434.22 315.596 436.217 316.842C437.242 317.482 438.007 319.378 438.67 320.406C441.543 324.859 444.416 329.312 447.289 333.766C463.416 358.762 480.023 383.445 496.483 408.223C514.786 435.772 533.088 463.323 551.391 490.873C525.724 490.54 500.058 490.206 474.391 489.873Z" fill="#2357F5" fill-opacity="0.788235"/><path fill-rule="evenodd" clip-rule="evenodd" d="M443.025 47.9939C451.271 51.6689 455.623 61.8369 459.952 69.1899C465.148 78.0139 469.855 87.2549 472.509 97.1909C475.229 107.372 475.606 118.535 474.4 128.981C473.87 133.577 472.626 137.76 471.312 142.157C469.907 146.857 472.095 149.545 475.428 152.859C482.352 159.743 491.07 165.025 496.209 173.506C500.562 180.692 505.624 182.022 513.831 182.33C534.214 183.095 554.189 182.464 574.383 186.363C579.51 187.353 584.605 188.565 589.649 189.918C591.306 190.362 593.039 191.138 594.747 191.294C597.209 191.518 597.629 190.539 599.468 189.592C607.56 185.427 617.83 189.428 625.918 191.713C646.335 197.482 665.599 205.335 684.105 215.74C704.088 226.976 725.391 235.698 745.19 247.268C764.317 258.445 781.5 272.512 799.34 285.56C817.482 298.831 834.69 313.191 851.467 328.143C867.683 342.594 884.448 356.778 898.953 372.993C912.177 387.776 922.624 405.277 929.632 423.874C931.971 430.081 930.531 433.991 923.219 431.943C922.572 438.222 917.891 440.846 911.957 439.504C913.779 444.772 917.941 451.908 915.56 457.577C912.393 465.114 903.322 459.628 898.874 456.691C899.357 462.75 901.934 472.586 896.93 477.476C889.175 485.053 876.087 475.397 870.594 469.735C856.598 455.306 847.647 437.452 835.221 421.886C819.82 402.594 802.471 384.405 785.059 366.94C783.685 365.561 768.187 348.933 765.966 351.193C772.728 362.39 778.132 374.715 787.586 384.017C792.074 377.714 795.325 380.82 796.168 387.149C797.18 394.757 798.308 402.769 796.905 410.394C794.147 425.402 784.673 439.676 774.718 450.915C764.304 462.67 751.374 471.621 737.503 478.826C729.65 482.905 721.774 486.727 713.327 489.405C709.544 490.605 705.755 491.996 701.869 492.829C698.133 493.63 694.093 493.574 690.635 495.387C721.61 510.175 755.88 516.405 786.928 530.812C794.422 534.289 809.471 543.327 801.867 553.486C795.985 561.346 782.617 561.624 773.843 563.192C780.298 569.285 779.336 574.942 770.851 578.259C767.442 579.591 763.889 580.209 760.254 580.304C757.786 580.368 753.521 579.49 751.527 581.43C759.22 584.955 769.708 584.741 776.031 590.934C782.482 597.252 774.777 602.335 769.012 604.772C761.429 607.976 751.002 611.356 743.288 607.492C737.191 604.438 731.562 605.1 724.82 604.297C717.868 603.469 710.996 601.981 704.29 599.98C678.755 592.361 655.242 578.261 632.692 564.391C610.163 550.534 589.152 534.791 569.722 516.826C564.929 512.394 560.937 507.12 556.038 502.829C550.882 498.313 545.484 497.908 538.888 497.983C523.893 498.153 508.927 495.485 493.94 497.244C515.481 513.479 538.244 527.779 560.904 542.361C569.526 547.91 578.59 555.309 588.727 557.728C593.174 558.79 602.716 559.494 604.193 564.977C605.273 568.978 601.851 569.65 599.801 571.821C596.832 574.965 601.012 576.016 604.076 577.319C607.937 578.96 611.462 579.489 615.668 579.055C622.106 578.39 627.157 578.611 633.156 581.369C642.583 585.701 652.704 588.033 662.155 592.27C666.069 594.025 667.098 599.255 668.987 602.806C671.957 608.387 675.389 613.701 678.757 619.046C685.106 629.122 690.585 639.486 699.594 647.524C707.489 654.568 716.28 660.807 724.855 667C738.247 676.675 755.283 688.637 750.979 707.614C746.723 726.374 727.279 724.357 712.463 721.007C706.227 719.597 697.705 715.654 691.418 717.507C685.993 719.107 682.257 719.345 676.629 718.068C670.103 716.586 663.536 715.622 656.925 714.6C643.066 712.457 629.092 708.922 615.849 704.288C609.497 702.065 604.192 699.098 599.189 694.556C597.703 693.208 596.622 691.295 594.646 691.311C592.966 691.325 590.367 694.307 589.067 695.342C584.963 698.61 580.424 701.339 575.74 697.452C572.75 694.97 570.089 689.57 574.413 687.014C577.728 685.054 583.782 687.3 586.159 683.594C588.648 679.714 583.084 674.085 581.342 670.931C576.084 674.5 568.346 681.719 562.248 675.744C557.363 670.959 562.798 668.055 567.303 666.524C572.872 664.63 579.316 664.874 576.478 657.427C574.865 653.198 572.285 649.408 571.87 644.792C571.555 641.283 572.567 637.906 572.592 634.425C572.636 628.203 565.946 622.844 560.118 621.37C556.559 620.469 555.502 623.51 553.316 625.841C550.104 629.267 546 631.831 541.909 634.066C535.197 637.732 528.152 640.642 521.118 643.6C516.457 645.56 508.218 648.128 511.546 654.068C516.416 662.764 505.001 658.602 500.886 656.629C491.312 652.039 481.644 647.657 472.19 642.816C452.801 632.885 434.961 620.622 417.835 607.2C401.023 594.023 384.608 580.026 369.333 565.083C361.934 557.843 354.861 550.229 348.561 542.006C341.794 533.174 336.096 523.597 329.201 514.853C322.047 505.778 314.976 496.974 310.367 486.269C306.097 476.35 301.25 465.278 301.173 454.381C301.088 442.342 301.136 431.529 305.117 419.981C306.778 415.163 308.773 410.145 311.668 405.932C312.5 404.721 316.868 400.58 315.973 398.929C316.023 399.022 306.049 400.546 305.006 400.645C298.385 401.278 291.724 400.143 285.128 399.527C265.624 397.707 245.936 398.389 226.504 395.711C219.178 394.701 211.229 395.762 204.078 393.901C200.7 393.023 199.868 391.088 197.386 389.505C196.253 388.782 195.041 389.021 193.987 388.017C192.753 386.841 192.486 385.144 191.94 383.61C189.023 375.42 184.108 368.107 181.22 359.901C177.973 350.671 178.12 341.106 178.356 331.458C173.533 331.842 168.467 331.874 163.942 329.922C160.29 341.399 144.561 341.192 134.892 340.321C122.817 339.234 108.659 338.097 102.539 325.978C95.3469 311.735 95.8219 294.444 94.9519 278.9C93.9299 260.645 93.6389 242.117 94.5359 223.851C95.2989 208.315 98.8389 192.188 108.884 179.858C117.747 168.979 133.08 162.612 145.141 172.764C154.206 180.396 158.164 194.141 158.757 205.588C159.059 211.413 158.787 216.645 165.958 215.03C168.715 214.409 171.221 213.405 173.254 216.233C175.047 218.724 174.224 222.325 171.954 224.188C169.897 225.878 165.895 225.592 164.486 228.104C163.09 230.595 165.298 234.585 167.944 235.092C170.957 235.669 173.277 231.798 176.311 233.594C179.091 235.241 177.639 238.318 175.776 240.12C173.572 242.254 171.449 242.699 173.025 246.076C174.233 248.667 176.651 250.392 177.736 253.139C180.414 259.916 181.298 269.654 178.32 276.47C183.488 277.045 195.983 283.158 200.048 278.213C201.523 276.419 201.699 273.784 203.293 271.954C205.168 269.8 207.789 268.884 210.564 268.537C216.497 267.795 222.567 269.6 228.33 270.763C237.884 272.693 247.496 274.383 257.092 276.088C276.401 279.519 295.889 281.907 315.15 285.593C334.37 289.272 353.392 293.924 372.4 298.557C382.368 300.986 392.29 303.716 402.332 305.82C411.717 307.785 421.497 309.234 430.232 313.391C428.505 302.709 423.686 292.893 420.682 282.567C417.592 271.946 416.724 261.344 418.468 250.407C420.067 240.386 422.435 230.647 427.548 221.791C429.615 218.21 431.89 214.643 434.868 211.755C436.985 209.701 439.966 207.993 441.64 205.544C443.291 203.127 442.94 202.566 439.967 201.453C438.314 200.833 436.813 200.646 435.246 199.778C433.805 198.98 432.565 197.531 430.871 197.255C426.963 196.617 421.25 200.405 417.67 201.753C412.783 203.592 407.734 205.248 402.518 205.808C385.399 207.646 365.097 197.716 353.361 185.686C349.444 181.671 340.455 172.439 344.108 166.316C346.036 163.084 349.483 163.852 352.377 162.384C356.909 160.085 354.037 156.271 351.866 153.244C345.952 144.998 341.986 135.561 337.752 126.386C333.442 117.048 327.534 108.7 322.69 99.6609C319.213 93.1749 315.183 85.9199 313.585 78.7019C311.633 69.8869 317.599 68.6409 324.893 67.3779C347.963 63.3819 370.678 58.0129 393.541 53.0139C402.655 51.0219 411.813 48.9969 420.986 47.2979C428.135 45.9739 436.16 44.9359 443.025 47.9939ZM645.517 597.91C633.62 598.522 621.65 601.164 621.269 615.046C622.712 641.388 639.843 661.078 657.941 678.55C662.507 682.958 666.976 687.631 671.935 691.604C674.853 693.941 678.034 695.01 681.191 696.862C681.965 697.316 683.302 698.837 684.021 699.068C685.727 699.62 685.875 699 687.539 698.824C691.167 698.442 691.837 700.97 694.595 703.038C699.828 706.961 709.22 706.387 715.365 707.614C721.04 708.747 743.63 716.93 742.614 705.144C741.621 693.628 729.339 688.033 720.684 682.89C708.621 675.722 696.186 667.963 686.029 658.194C676.373 648.905 670.069 636.195 663.584 624.627C659.542 617.418 658.423 611.305 657.256 603.249C656.762 599.841 656.712 598.726 653.378 598.151C650.8 597.707 648.118 597.776 645.517 597.91ZM604.125 595.996C597.252 598.223 592.061 603.735 588.64 609.969C586.889 613.16 585.885 616.378 585.306 619.946C584.569 624.487 582.873 629.337 584.142 633.902C586.444 642.188 592.485 651.234 597.23 658.343C602.565 666.338 609.493 675.312 617.912 680.213C626.015 684.931 635.801 686.188 643.316 692.011C642.643 688.809 639.64 686.445 637.283 684.448C633.847 681.537 630.842 678.647 627.923 675.181C621.467 667.517 616.101 659.217 612.662 649.762C609.33 640.6 607.422 630.288 607.847 620.521C608.049 615.873 608.848 610.935 610.855 606.695C612.195 603.861 614.572 601.451 615.599 598.471C617.949 591.639 607.553 594.885 604.125 595.996ZM453.413 369.547C443.818 370.637 434.305 372.48 424.64 373.373C405.101 375.177 384.82 376.244 367.114 385.577C341.351 399.159 311.681 429.299 320.616 461.047C331.171 498.55 353.736 532.462 381.988 559.001C400.024 575.943 419.777 591.21 439.591 606C458.756 620.307 480.928 629.691 500.686 643.066C502.025 623.357 514.409 605.283 529.053 592.744C536.922 586.007 545.181 579.552 554.005 574.111C558.34 571.437 562.83 569.178 567.401 566.945C570.871 565.251 574.705 562.729 578.671 562.54C578.607 559.634 571.318 558.561 569.307 557.877C562.367 555.518 555.707 551.903 549.279 548.401C535.284 540.777 522.353 531.473 509.403 522.229C503.073 517.711 496.643 513.328 490.381 508.714C484.742 504.56 479.743 499.156 473.684 495.619C467.451 491.981 460.083 491.221 453.129 489.88C444.775 488.268 436.555 486.354 428.161 484.94C414.144 482.579 400.913 474.324 387.991 468.699C383.647 466.807 377.018 465.166 373.702 461.584C370.697 458.339 371.482 453.328 375.334 451.104C381.959 447.28 393 452.267 399.264 454.735C410.852 459.3 422.36 463.386 434.657 465.725C451.501 468.929 467.508 474.926 484.375 478.065C502.564 481.449 520.796 485.153 539.288 486.401C534.757 477.422 527.245 469.962 521.394 461.84C514.681 452.523 507.978 443.2 501.323 433.841C489.594 417.342 476.514 400.763 467.599 382.526C464.542 376.274 461.534 368.624 453.413 369.547ZM540.516 609.953C537.846 610.38 535.83 613.05 534.015 614.815C528.396 620.277 522.896 625.685 518.321 632.089C525.4 629.099 531.173 623.888 537.997 620.463C540.456 619.228 549.14 616.476 547.39 613.036C546.406 611.104 542.481 609.639 540.516 609.953ZM573.002 587.954C566.071 592.684 558.856 596.913 551.547 601.025C556.673 602.973 561.792 605.661 565.999 609.192C567.923 610.807 571.878 615.534 574.66 614.346C577.246 613.242 578.651 606.844 579.903 604.535C583.108 598.623 587.592 593.039 592.413 588.377C585.17 583.529 580.316 582.963 573.002 587.954ZM514.5 330.468C508.953 332.012 503.449 333.699 497.906 335.255C486.839 338.362 475.529 340.959 463.972 340.959C462.399 343.853 466.904 348.573 468.288 350.78C471.921 356.575 475.023 362.79 478.317 368.789C485.3 381.505 492.919 393.728 501.138 405.678C509.442 417.752 516.943 430.398 525.447 442.326C533.678 453.872 542.732 465.088 551.648 476.112C586.386 519.063 634.802 548.683 682.387 575.292C695.725 582.75 709.621 589.321 724.392 593.394C730.491 595.076 736.712 596.5 742.916 597.753C747.085 598.594 754.022 600.479 757.861 597.782C745.808 593.006 730.014 591.164 720.278 581.923C714.251 576.202 720.861 571.934 727.006 570.871C738.897 568.814 751.221 573.994 762.893 570.633C759.773 564.909 750.806 565.182 745.351 563.713C738.454 561.854 738.198 558.369 744.765 555.999C752.847 553.082 762.164 554.664 770.587 554.127C774.698 553.865 791.928 553.178 786.724 545.281C782.628 539.068 772.657 537.326 766.131 535.034C756.975 531.819 748.081 526.801 738.756 524.31C729.635 521.873 720.342 520.376 711.221 517.803C701.702 515.118 692.329 512.134 683.283 508.105C665.843 500.337 649.674 489.791 634.946 477.685C619.77 465.209 606.466 450.912 594.225 435.58C587.784 427.514 581.655 419.214 575.39 411.014C569.338 403.096 562.495 395.549 557.65 386.808C552.293 377.14 545.35 368.315 539.802 358.681C536.796 353.46 533.561 348.339 530.758 343.006C528.766 339.214 527.409 333.654 524.715 330.359C522.182 327.262 517.754 329.563 514.5 330.468ZM258.277 452.984C260.136 454.683 259.827 455.383 259.469 457.541C258.736 461.963 257.927 466.303 257.587 470.79C256.421 486.136 258.585 502.051 260.976 517.208C263.363 532.331 269.101 546.303 277.944 558.811C286.512 570.93 296.854 580.585 310.479 586.532C312.818 587.553 322.081 591.299 321.482 594.755C321.032 597.354 316.223 595.884 314.494 595.513C290.003 590.265 269.247 568.118 256.87 547.502C251.746 538.968 248.45 530.291 245.62 520.858C245.206 519.48 239.275 499.963 241.278 499.718C239.549 486.203 239.032 469.771 245.419 457.262C247.805 452.59 253.396 448.527 258.277 452.984ZM215.548 455.891C213.313 466.079 214.052 476.474 214.545 486.794C214.635 488.673 215.709 494.468 212.6 494.357C210.403 494.279 208.652 488.669 208.113 487.23C204.848 478.498 203.688 468.663 205.319 459.459C205.834 456.545 206.612 453.01 209.816 451.998C212.603 451.118 215.795 452.69 215.548 455.891ZM787.868 408.855C786.491 409.52 785.884 410.786 785.473 412.176C774.699 421.36 762.024 430.249 749.426 436.73C738.172 442.518 725.14 444.958 712.857 447.576C684.766 453.564 656.795 455.983 628.778 448.233C640.227 458.797 650.609 472.834 665.042 479.564C672.213 482.908 680.15 480.891 687.38 478.773C696.251 476.174 705.176 473.519 713.761 470.073C729.982 463.563 747.332 456.359 760.972 445.2C767.019 440.253 771.948 434.138 776.287 427.677C778.772 423.976 780.875 420.018 783.39 416.344C784.839 414.226 788.013 411.617 787.868 408.855ZM668.175 220.993C667.763 226.218 664.686 230.607 661.972 234.897C660.126 237.814 656.531 241.332 658.236 244.641C660.26 248.568 666.713 251.077 670.057 253.763C675.008 257.74 679.645 262.085 684.204 266.5C692.384 274.423 700.854 282.103 708.859 290.195C716.466 297.883 723.847 305.716 733.441 310.958C754.505 322.467 773.05 338.548 791.456 353.839C810.222 369.428 828.757 385.815 845.041 404.026C853.755 413.771 860.997 424.468 867.209 435.95C870.403 441.857 873.827 447.634 877.027 453.539C878.443 456.151 880.042 458.688 881.33 461.368C882.287 463.359 882.91 466.583 884.678 468.058C888.178 460.293 882.718 450.022 879.553 443.027C877.39 438.246 875.267 433.446 873.132 428.651C871.633 425.288 868.519 421.228 868.348 417.475C867.932 408.35 879.682 414.915 882.904 417.84C890.88 425.08 895.48 435.964 901.125 444.946C902.453 437.795 888.216 426.752 894.11 420.519C898.785 415.576 907.403 427.156 910.019 430.292C911.813 421.45 907.215 412.8 902.409 405.723C897.054 397.835 890.864 390.334 884.521 383.23C869.694 366.627 852.749 351.849 835.985 337.252C819.309 322.73 802.14 308.799 785.043 294.778C768.44 281.163 751.588 267.549 733.031 256.649C722.626 250.537 711.712 245.424 701.09 239.719C689.966 233.745 679.42 226.748 668.175 220.993ZM523.144 200.852C522.659 200.973 519.852 201.31 519.642 201.557C518.727 202.635 519.947 206.121 521.026 206.747C517.303 209.53 513.121 212.063 508.389 212.496C511.366 215.417 517.022 220.527 516.142 225.238C514.931 231.719 507.144 227.174 503.99 225.213C498.929 222.064 493.757 218.724 490.051 213.976C487.698 210.963 486.897 207.768 485.136 204.523C484.18 202.76 484.736 202.441 482.618 202.319C480.198 202.182 476.058 204.477 473.815 205.389C470.351 206.799 466.973 208.426 463.715 210.264C457.705 213.657 452.079 217.774 447.15 222.611C436.944 232.623 430.032 245.777 429.156 260.18C436.399 259.321 443.485 256.198 449.588 252.302C453.935 249.528 458.369 246.268 459.136 254.096C459.434 257.145 458.581 264.245 456.751 266.604C455.042 268.807 454.304 267.021 452.53 268.342C450.479 269.872 451.562 272.074 451.562 274.222C450.573 273.392 449.585 272.563 448.598 271.733C446.81 274.069 448.833 272.818 449.508 274.231C449.902 275.055 447.208 277.427 446.67 277.847C445.557 278.717 444.942 277.997 443.669 279.247C442.851 280.051 441.969 281.855 441.082 282.859C436.497 288.047 442.568 296.177 444.969 301.678C446.746 305.752 448.685 309.745 450.534 313.784C451.888 316.74 452.619 320.249 454.417 322.973C457.985 328.38 466.161 325.426 471.498 324.764C478.737 323.865 485.846 322.945 493.093 322.264C497.341 321.865 502.141 319.393 496.686 316.194C491.272 313.02 472.569 312.419 472.448 304.254C472.32 295.574 484.38 294.131 490.428 294.877C499.275 295.967 504.992 298.2 511.044 304.877C509.688 292.144 500.654 281.613 498.638 268.838C498.09 265.368 496.407 243.98 504.746 253.22C509.212 258.169 512.749 265.659 516.05 271.382C521.046 280.046 525.4 289.049 529.987 297.93C534.363 306.406 540.774 314.55 543.839 323.567C545.564 328.639 547.971 339.299 553.445 341.887C556.952 343.546 562.873 341.375 566.495 340.846C568.733 340.519 570.916 340.199 572.836 338.907C573.83 338.238 574.812 336.504 576.067 336.31C579.683 335.751 580.616 341.275 580.37 343.818C579.99 347.74 578.189 348.757 574.531 349.213C580.697 352.234 571.197 361.684 569.53 365.452C569.443 365.259 568.361 362.611 567.557 362.614C565.959 362.619 572.453 375.404 572.943 376.293C576.349 382.464 580.626 388.012 584.763 393.7C587.141 396.969 590.563 404.702 595.4 403.971C598.079 403.567 603.645 398.051 605.75 401.833C607.649 405.244 601.783 408.903 600.9 411.615C599.419 416.164 604.991 420.947 608.274 423.332C616.976 429.653 628.259 431.145 638.557 433.053C636.589 430.4 632.303 428.955 632.218 425.156C632.16 422.573 633.986 421.163 632.752 418.352C631.736 416.037 629.189 414.692 628.431 412.211C627.595 409.475 628.913 406.367 630.417 404.107C636.79 394.526 651.026 398.513 659.374 402.866C658.758 403.137 658.246 403.529 657.84 404.042L657.742 404.172L657.764 404.157C658.835 403.501 663.479 405.557 664.058 405.974C665.887 407.292 668.354 410.364 669.617 412.267C673.683 418.394 674.265 425.862 672.153 432.807C697.61 432.807 721.592 426.022 744.374 415.207C749.577 412.738 754.688 411.157 759.617 408.049C764.681 404.858 769.492 401.315 774.465 397.993C779.136 394.872 778.714 392.998 775.585 388.561C771.775 383.161 768.419 377.404 764.19 372.311C763.541 373.722 763.287 376.545 761.899 377.412C760.365 378.37 758.957 376.467 757.923 377.187C758.015 377.123 754.747 382.2 754.221 380.936C755.583 384.207 750.131 382.117 749.165 381.511C749.39 384.577 746.842 387.216 745.411 383.118C741.524 386.675 732.307 383.419 737.278 377.934C739.732 375.226 742.403 373.787 743.946 370.252C745.673 366.296 746.276 361.818 746.493 357.541C747.005 347.458 741.549 342.75 734.709 336.212C730.89 332.561 726.902 329.096 722.973 325.566C719.519 322.464 716.531 318.622 712.907 315.746C710.304 313.681 708.227 313.087 705.701 314.88C704.66 315.619 704.321 316.558 702.984 317.27C701.27 318.183 698.728 318.748 696.816 318.986C687.204 320.183 676.079 316.888 667.271 313.338C664.859 312.366 663.704 310.784 661.616 309.581C660.296 308.82 659.171 309.281 657.77 308.372C654.108 305.997 654.292 302.185 656.954 299.217C663.191 292.262 672.15 298.518 678.524 292.902C686.466 285.904 673.225 276.228 667.876 271.945C663.595 268.516 659.917 267.774 654.685 266.874C653.589 266.685 646.321 264.587 648.864 267.603C643.217 267.457 640.44 267.48 635.894 271.005C634.701 271.929 633.115 272.803 632.787 274.38C632.614 275.212 634.328 275.379 634.332 275.371C634.101 275.93 632.376 276.945 632.127 277.123C635.035 277.468 634.28 283.176 633.53 283.208L633.486 283.203L633.571 283.277C634.841 284.479 631.976 286.331 631.004 286.642C628.245 287.525 625.627 285.606 623.782 283.689C619.652 279.398 616.653 272.098 616.918 266.15C617.289 257.802 622.771 252.962 627.293 246.704C630.678 242.022 625.649 239.532 622.149 236.594C617.865 233.001 612.039 228.583 610.63 222.859C609.347 217.645 612.904 215.861 617.462 217.429C623.622 219.547 628.607 224.998 634.066 228.409C638.911 231.436 645.027 237.617 650.947 237.97C649.861 234.105 644.482 234.515 642.401 231.644C639.653 227.851 643.922 226.16 647.152 226.595C649.659 226.932 656.812 232.24 656.626 226.12C656.526 222.841 651.057 221.743 648.676 220.795C636.577 215.979 624.184 212.694 611.353 210.463C607.194 209.741 606.13 210.247 604.12 214.002C603.438 215.277 600.986 221.143 599.642 217.254C597.884 220.441 597.372 223.837 593.55 225.119C588.686 226.749 582.433 224.336 577.952 222.465C574.106 220.859 570.451 218.607 567.983 215.173C566.755 213.466 565.86 211.571 565.28 209.551C564.788 207.836 565.021 205.025 564.131 203.467C562.644 200.862 559.099 201.424 556.362 201.164C550.252 200.583 544.219 200.058 538.077 199.986C532.974 199.927 528.102 199.617 523.144 200.852ZM655.983 429.742C654.029 430.442 657.5 432.781 658.647 432.505C658.177 431.747 657.397 429.236 655.983 429.742ZM657.742 404.172L657.689 404.213C657.621 404.274 657.576 404.352 657.556 404.449C657.6 404.377 657.646 404.308 657.693 404.24L657.742 404.172ZM696.828 342.74C698.598 344.226 697.884 347.667 699.095 349.781C702.336 355.441 708.177 361.024 713.681 364.443C719.609 368.124 722.414 372.901 723.866 379.569C724.167 380.947 725.073 382.86 724.631 384.287C724.217 385.62 722.72 386.063 722.26 387.251C722.049 387.794 722.931 391.997 722.824 392.01C722.313 392.072 720.821 389.957 720.83 389.968C720.239 391.434 720.444 393.1 718.851 393.885L718.657 393.971L718.682 393.99C719.079 394.297 720.891 395.801 720.459 396.132C719.856 396.592 718.382 396.277 717.63 396.545C716.443 396.969 715.587 398.026 714.445 398.518C711.382 399.837 707.85 399.43 704.617 398.965C697.807 397.987 690.144 395.551 685.221 390.506C679.258 384.395 680.673 378.063 680.135 371.208C679.531 363.518 685.078 351.861 689.534 345.899C691.054 343.863 694.1 340.453 696.828 342.74ZM206.975 282.908C206.59 283.818 206.974 285.238 206.748 286.237C206.292 288.261 205.118 290.033 203.988 291.732C201.873 294.912 199.745 297.826 198.302 301.414C194.759 310.221 191.473 319.713 189.776 329.051C186.136 349.099 198.289 365.634 198.951 385.16C204.532 379.284 213.019 379.003 220.581 378.986C230.644 378.964 240.614 379.387 250.639 380.268C269.817 381.954 289.422 382.638 307.598 389.648C309.599 390.42 311.1 390.754 313.109 391.175C315.316 391.638 314.147 390.605 315.761 391.911C316.195 392.263 316.368 393.532 316.822 393.977C319.17 396.274 320.576 394.713 322.565 392.249C328.037 385.466 333.497 379.302 340.537 374.031C355.534 362.8 372.332 357.614 390.819 355.944C401.415 354.987 411.761 354.435 422.403 354.538C432.564 354.636 443.292 354.822 452.918 358.458C450.524 351.606 446.435 345.466 443.138 339.038C441.537 335.917 440.052 332.636 438.016 329.764C436.227 327.239 433.526 325.176 432.287 322.293C432.066 322.872 431.845 323.451 431.623 324.029C412.076 318.43 391.919 315.414 371.878 312.212C351.747 308.995 331.866 304.537 311.778 301.108C301.692 299.386 291.569 298.351 281.41 297.197C271.631 296.087 262.203 293.916 252.561 292.071C242.796 290.202 233.292 287.938 223.69 285.364C219.664 284.285 215.853 282.796 211.935 281.497C208.81 280.462 208.1 280.24 206.975 282.908ZM639.232 318.452C639.816 320.849 637.95 323.941 637.352 326.217C636.674 328.798 635.203 329.832 634.436 332.179C633.77 334.218 634.971 345.028 629.758 341.8C629.918 342.576 630.776 343.64 630.864 344.332C630.976 345.193 630.138 346.511 630.381 347.254C630.6 347.923 632.89 349.882 633.445 350.999C635.634 355.387 637.181 360.438 638.26 365.218C639.384 370.201 640.75 377.105 636.623 380.545C635.631 381.371 634.767 381.593 633.749 382.586C633.63 383.504 633.211 384.263 632.492 384.862C632.098 384.973 631.781 384.875 631.544 384.568C630.286 385.25 630.705 382.385 629.227 385.169C628.87 385.841 629.514 388.146 629.195 387.909C628.615 387.482 626.866 385.657 626.299 385.623C625.03 387.35 625.059 385.591 623.719 385.837C623.666 386.553 623.278 386.947 622.554 387.018C621.989 386.889 621.425 386.758 620.861 386.628C617.448 386.648 612.407 385.216 609.13 384.311C602.875 382.584 598.412 378.28 597.055 371.759C594.229 358.175 605.654 341.194 613.822 331.317C616.612 327.943 636.207 306.042 639.232 318.452ZM693.781 362.214C693.693 363.355 694.046 365.06 692.764 365.186C692.822 363.899 692.281 362.25 693.781 362.214ZM604.781 360.28C605.364 363.569 605.498 361.691 604.175 363.953C603.73 362.621 603.932 361.397 604.781 360.28ZM699.491 356.039C699.999 356.671 701.944 358.377 700.269 358.814C698.804 359.195 699.429 356.818 699.491 356.039ZM629.022 333.239C628.356 336.778 630.363 335.931 633.124 335.288C631.757 334.605 630.389 333.922 629.022 333.239ZM117.271 190.469C104.045 201.818 103.646 221.663 104.063 237.637C104.63 259.342 105.947 281.107 108.045 302.716C108.993 312.48 111.778 317.452 121.416 320.724C131.857 324.268 143.103 323.582 153.933 322.953C151.862 306.852 147.809 285.669 163.96 274.953C165.438 273.973 166.79 273.249 168.589 273.156C169.777 273.095 171.481 274.172 172.609 273.621C174.89 272.506 173.585 269.348 172.838 267.561C170.567 262.129 166.233 257.782 162.717 253.173C158.301 247.387 154.507 247.543 147.913 248.257C145.284 248.543 134.942 249.721 136.978 244.108C138.457 240.027 146.582 241.049 149.874 240.104C152.369 239.387 152.878 239.071 152.771 236.521C152.602 232.536 150.317 231.454 146.772 231.563C142.212 231.702 134.317 234.126 130.52 230.54C125.098 225.418 133.139 221.832 137.216 221.136C141.484 220.408 147.192 221.071 148.177 215.788C149.115 210.749 146.457 204.651 144.38 200.214C142.37 195.922 139.623 190.452 135.429 187.875C129.511 184.24 122.21 186.23 117.271 190.469ZM168.605 285.287C163.233 286.492 160.142 293.487 159.518 298.378C158.915 303.109 159.326 309.861 162.795 313.497C167.348 318.268 175.285 317.947 180.185 322.425C182.356 311.649 186.37 301.279 191.643 291.65C187.479 290.503 183.421 289.02 179.315 287.689C176.311 286.716 171.831 284.563 168.605 285.287ZM513.437 308.502C514.642 309.532 515.023 309.845 515.334 311.462C512.474 311.643 513.335 310.724 513.437 308.502ZM541.803 231.852C546.273 231.968 548.363 233.415 551.95 235.557C554.506 237.084 557.607 235.441 557.607 239.32C564.904 233.585 578.512 248.393 583.627 252.272C589.023 256.363 594.336 261.179 594.933 268.48C595.11 270.642 594.662 272.858 594.987 275.011C595.232 276.633 596.259 278.254 596.084 279.936C595.878 281.886 594.229 283.026 593.849 284.859C593.699 285.585 594.213 287.043 593.894 287.63C590.623 293.627 586.431 298.547 579.254 299.14C573.003 299.657 566.097 297.426 561.541 293.064C557.499 289.195 555.089 283.397 554.042 277.975C553.86 277.037 554.205 274.888 553.896 274.095C553.447 272.939 552.771 272.919 552.214 271.984C550.737 269.504 548.617 264.83 550.534 262.105C545.808 263.172 542.216 253.046 540.452 250.093C539.129 247.882 535.941 246.151 535.056 244C533.842 241.05 538.204 239.784 536.693 237.729C535.884 236.629 531.542 237.378 531.968 234.622C532.364 232.073 540.096 231.807 541.803 231.852ZM633.355 283.106C633.398 283.16 633.441 283.192 633.485 283.204L633.486 283.203L633.471 283.19L633.355 283.106ZM620.878 261.026C621.288 260.674 623.484 258.451 623.742 260.118C623.953 261.484 621.535 261.026 620.878 261.026ZM415.951 87.8579C411.185 88.1489 406.937 93.2939 403.387 95.9949C398.086 100.027 391.822 102.987 385.575 105.225C378.303 107.828 370.828 110.145 363.362 112.12C355.789 114.124 347.901 114.534 340.352 116.616C344.087 123.452 347.823 130.289 351.559 137.126C353.197 134.871 352.637 132.325 355.333 130.704C357.204 129.579 359.912 129.425 362.027 129.009C367.915 127.85 374.376 126.824 380.353 128.023C384.209 128.797 388.5 131.766 384.848 135.912C382.543 138.528 377.582 137.856 377.177 142.011C376.789 145.992 380.854 149.412 379.913 153.598C378.59 159.482 372.711 157.72 370.097 153.916C367.766 150.524 368.65 144.492 365.051 142.046C362.904 140.587 357.165 140.061 354.853 141.31C359.102 149.152 367.36 158.821 362.516 168.196C361.027 171.076 357.775 172.174 359.955 175.004C362.469 178.268 369.723 180.957 373.585 179.958C377.201 179.023 381.344 174.949 385.411 176.965C389.251 178.868 386.53 182.099 386.869 185.088C387.891 194.091 406.355 188.956 411.368 187.761C416.397 186.563 421.644 183.664 426.835 183.545C431.731 183.432 436.277 185.792 440.156 188.556C443.061 190.626 447.895 196.682 451.58 196.884C455.278 197.087 460.519 191.613 463.782 189.956C469.636 186.982 476.035 186.122 482.239 184.14C483.224 183.826 487.527 182.941 487.605 181.504C487.678 180.123 482.592 177.102 481.728 176.442C473.835 170.415 468.054 162.106 459.843 156.462C456.182 153.945 452.227 152.171 447.95 151.038C445.576 150.41 439.112 149.563 438.942 146.178C450.331 144.27 450.615 130.061 445.812 122.004C442.757 116.88 438.018 114.443 432.032 115.545C423.358 117.143 421.772 123.492 419.786 131.026C412.698 127.17 404.971 117.727 404.55 109.406C404.083 100.155 414.016 96.1769 415.951 87.8579ZM627.546 150.03C639.496 152.247 651.185 155.202 662.693 159.129C669.781 161.548 680.094 163.628 686.224 168.166C688.013 169.492 690.267 172.408 688.634 174.738C687.227 176.747 683.782 176.206 681.746 175.893C672.494 174.47 663.43 170.598 654.277 168.51C629.95 162.962 604.993 160.355 580.139 158.579C573.285 158.09 566.426 157.667 559.572 157.185C553.864 156.785 547.591 156.966 542.002 155.674C537.594 154.655 536.496 151.416 539.797 147.769C543.015 144.215 548.413 144.769 552.724 144.12C577.808 142.482 602.91 145.459 627.546 150.03ZM585.973 121.001C594.105 123.803 584.601 125.139 581.044 124.845C579.838 124.746 563.932 123.168 563.932 123.657C560.757 123.657 552.358 126.085 550.078 122.875C547.629 119.428 558.113 118.218 560.232 118.065C568.379 117.478 578.142 118.304 585.973 121.001Z" fill="white"/>
</svg>
